%TF.GenerationSoftware,KiCad,Pcbnew,5.1.8*%
%TF.CreationDate,2020-11-17T21:54:47+01:00*%
%TF.ProjectId,kompas,6b6f6d70-6173-42e6-9b69-6361645f7063,rev?*%
%TF.SameCoordinates,Original*%
%TF.FileFunction,Copper,L2,Bot*%
%TF.FilePolarity,Positive*%
%FSLAX46Y46*%
G04 Gerber Fmt 4.6, Leading zero omitted, Abs format (unit mm)*
G04 Created by KiCad (PCBNEW 5.1.8) date 2020-11-17 21:54:47*
%MOMM*%
%LPD*%
G01*
G04 APERTURE LIST*
%TA.AperFunction,ComponentPad*%
%ADD10C,1.800000*%
%TD*%
%TA.AperFunction,ComponentPad*%
%ADD11O,1.700000X1.700000*%
%TD*%
%TA.AperFunction,ComponentPad*%
%ADD12R,1.700000X1.700000*%
%TD*%
%TA.AperFunction,ComponentPad*%
%ADD13R,1.800000X1.800000*%
%TD*%
%TA.AperFunction,ComponentPad*%
%ADD14C,1.300000*%
%TD*%
%TA.AperFunction,ComponentPad*%
%ADD15C,2.000000*%
%TD*%
%TA.AperFunction,ViaPad*%
%ADD16C,0.800000*%
%TD*%
%TA.AperFunction,Conductor*%
%ADD17C,0.250000*%
%TD*%
G04 APERTURE END LIST*
D10*
%TO.P,J_OUT0,3*%
%TO.N,OUT0_T*%
X102906116Y-119515380D03*
%TO.P,J_OUT0,2*%
%TO.N,Net-(J_OUT0-Pad2)*%
X102906116Y-111215380D03*
%TD*%
%TO.P,J_IN0,3*%
%TO.N,IN0_T*%
X94016116Y-119515380D03*
%TO.P,J_IN0,2*%
%TO.N,Net-(J_IN0-Pad2)*%
X94016116Y-111215380D03*
%TD*%
%TO.P,J_IN2,3*%
%TO.N,IN2_T*%
X93980000Y-147160000D03*
%TO.P,J_IN2,2*%
%TO.N,Net-(J_IN2-Pad2)*%
X93980000Y-138860000D03*
%TD*%
%TO.P,J_OUT2,3*%
%TO.N,OUT2_T*%
X102870000Y-147160000D03*
%TO.P,J_OUT2,2*%
%TO.N,Net-(J_OUT2-Pad2)*%
X102870000Y-138860000D03*
%TD*%
D11*
%TO.P,J6,3*%
%TO.N,LED1_A_B*%
X110771692Y-49486200D03*
%TO.P,J6,2*%
%TO.N,POT1_B*%
X110771692Y-46946200D03*
D12*
%TO.P,J6,1*%
%TO.N,LED0_A_B*%
X110771692Y-44406200D03*
%TD*%
%TO.P,J20,1*%
%TO.N,VCC_T*%
X94363691Y-87062793D03*
D11*
%TO.P,J20,2*%
%TO.N,RESET_T*%
X94363691Y-89602793D03*
%TO.P,J20,3*%
%TO.N,CLOCK_T*%
X94363691Y-92142793D03*
%TD*%
%TO.P,J12,3*%
%TO.N,CLOCK_B*%
X114366008Y-92052988D03*
%TO.P,J12,2*%
%TO.N,RESET_B*%
X114366008Y-89512988D03*
D12*
%TO.P,J12,1*%
%TO.N,VCC_B*%
X114366008Y-86972988D03*
%TD*%
D11*
%TO.P,J19,3*%
%TO.N,CLOCK_LED_T*%
X90720271Y-78853952D03*
%TO.P,J19,2*%
%TO.N,GND_T*%
X90720271Y-76313952D03*
D12*
%TO.P,J19,1*%
%TO.N,LED2_A_T*%
X90720271Y-73773952D03*
%TD*%
D11*
%TO.P,J18,3*%
%TO.N,OUT2_T*%
X105918000Y-92138500D03*
%TO.P,J18,2*%
%TO.N,OUT1_T*%
X105918000Y-89598500D03*
D12*
%TO.P,J18,1*%
%TO.N,OUT0_T*%
X105918000Y-87058500D03*
%TD*%
D11*
%TO.P,J16,3*%
%TO.N,IN2_T*%
X90741500Y-92138500D03*
%TO.P,J16,2*%
%TO.N,IN1_T*%
X90741500Y-89598500D03*
D12*
%TO.P,J16,1*%
%TO.N,IN0_T*%
X90741500Y-87058500D03*
%TD*%
D11*
%TO.P,J15,3*%
%TO.N,RESET_LED_T*%
X106107362Y-78853952D03*
%TO.P,J15,2*%
%TO.N,POT2_T*%
X106107362Y-76313952D03*
D12*
%TO.P,J15,1*%
%TO.N,OUT_LED2_T*%
X106107362Y-73773952D03*
%TD*%
D11*
%TO.P,J14,3*%
%TO.N,OUT_LED1_T*%
X106104316Y-49515441D03*
%TO.P,J14,2*%
%TO.N,POT0_T*%
X106104316Y-46975441D03*
D12*
%TO.P,J14,1*%
%TO.N,OUT_LED0_T*%
X106104316Y-44435441D03*
%TD*%
D11*
%TO.P,J13,3*%
%TO.N,LED1_A_T*%
X90703287Y-49538670D03*
%TO.P,J13,2*%
%TO.N,POT1_T*%
X90703287Y-46998670D03*
D12*
%TO.P,J13,1*%
%TO.N,LED0_A_T*%
X90703287Y-44458670D03*
%TD*%
D11*
%TO.P,J11,3*%
%TO.N,CLOCK_LED_B*%
X110745537Y-78856062D03*
%TO.P,J11,2*%
%TO.N,GND_B*%
X110745537Y-76316062D03*
D12*
%TO.P,J11,1*%
%TO.N,LED2_A_B*%
X110745537Y-73776062D03*
%TD*%
D11*
%TO.P,J10,3*%
%TO.N,OUT2_B*%
X126181747Y-92043749D03*
%TO.P,J10,2*%
%TO.N,OUT1_B*%
X126181747Y-89503749D03*
D12*
%TO.P,J10,1*%
%TO.N,OUT0_B*%
X126181747Y-86963749D03*
%TD*%
D11*
%TO.P,J9,3*%
%TO.N,IN2_B*%
X110754167Y-92052988D03*
%TO.P,J9,2*%
%TO.N,IN1_B*%
X110754167Y-89512988D03*
D12*
%TO.P,J9,1*%
%TO.N,IN0_B*%
X110754167Y-86972988D03*
%TD*%
D11*
%TO.P,J8,3*%
%TO.N,RESET_LED_B*%
X126167215Y-78856062D03*
%TO.P,J8,2*%
%TO.N,POT2_B*%
X126167215Y-76316062D03*
D12*
%TO.P,J8,1*%
%TO.N,OUT_LED2_B*%
X126167215Y-73776062D03*
%TD*%
D11*
%TO.P,J7,3*%
%TO.N,OUT_LED1_B*%
X126195950Y-49439741D03*
%TO.P,J7,2*%
%TO.N,POT0_B*%
X126195950Y-46899741D03*
D12*
%TO.P,J7,1*%
%TO.N,OUT_LED0_B*%
X126195950Y-44359741D03*
%TD*%
D10*
%TO.P,D2,2*%
%TO.N,OUT_LED0_T*%
X106728923Y-40377027D03*
D13*
%TO.P,D2,1*%
%TO.N,Net-(D2-Pad1)*%
X104188923Y-40377027D03*
%TD*%
D10*
%TO.P,D3,2*%
%TO.N,OUT_LED1_T*%
X106786157Y-55117030D03*
D13*
%TO.P,D3,1*%
%TO.N,Net-(D3-Pad1)*%
X104246157Y-55117030D03*
%TD*%
D11*
%TO.P,J4,10*%
%TO.N,LED0_A_B*%
X116889899Y-40785061D03*
%TO.P,J4,9*%
%TO.N,LED0*%
X114349899Y-40785061D03*
%TO.P,J4,8*%
%TO.N,LED1_A_B*%
X116889899Y-43325061D03*
%TO.P,J4,7*%
%TO.N,LED1*%
X114349899Y-43325061D03*
%TO.P,J4,6*%
%TO.N,LED2_A_B*%
X116889899Y-45865061D03*
%TO.P,J4,5*%
%TO.N,LED2*%
X114349899Y-45865061D03*
%TO.P,J4,4*%
%TO.N,PB0*%
X116889899Y-48405061D03*
%TO.P,J4,3*%
%TO.N,PD7*%
X114349899Y-48405061D03*
%TO.P,J4,2*%
%TO.N,Net-(F2-Pad2)*%
X116889899Y-50945061D03*
D12*
%TO.P,J4,1*%
%TO.N,VCC_B*%
X114349899Y-50945061D03*
%TD*%
D11*
%TO.P,J5,6*%
%TO.N,GND_B*%
X110860247Y-109721988D03*
%TO.P,J5,5*%
X110860247Y-107181988D03*
%TO.P,J5,4*%
%TO.N,VCC_B*%
X110860247Y-104641988D03*
%TO.P,J5,3*%
%TO.N,RXI*%
X110860247Y-102101988D03*
%TO.P,J5,2*%
%TO.N,TXO*%
X110860247Y-99561988D03*
D12*
%TO.P,J5,1*%
%TO.N,Net-(C5-Pad1)*%
X110860247Y-97021988D03*
%TD*%
D10*
%TO.P,D4,2*%
%TO.N,OUT_LED2_T*%
X106761460Y-69680369D03*
D13*
%TO.P,D4,1*%
%TO.N,Net-(D4-Pad1)*%
X104221460Y-69680369D03*
%TD*%
D14*
%TO.P,RV2,1*%
%TO.N,GND_T*%
X95895890Y-81500000D03*
%TO.P,RV2,2*%
%TO.N,POT2_T*%
X98395890Y-81500000D03*
%TO.P,RV2,3*%
%TO.N,VCC_T*%
X100895890Y-81500000D03*
D15*
%TO.P,RV2,*%
%TO.N,*%
X93595890Y-74000000D03*
X103195890Y-74000000D03*
%TD*%
D10*
%TO.P,J_OUT1,3*%
%TO.N,OUT1_T*%
X102870000Y-124620000D03*
%TO.P,J_OUT1,1*%
%TO.N,GND_T*%
X102870000Y-136020000D03*
%TO.P,J_OUT1,2*%
%TO.N,Net-(J_OUT1-Pad2)*%
X102870000Y-132920000D03*
%TD*%
%TO.P,J_IN1,3*%
%TO.N,IN1_T*%
X93980000Y-124620000D03*
%TO.P,J_IN1,1*%
%TO.N,GND_T*%
X93980000Y-136020000D03*
%TO.P,J_IN1,2*%
%TO.N,Net-(J_IN1-Pad2)*%
X93980000Y-132920000D03*
%TD*%
%TO.P,D9,2*%
%TO.N,LED2_A_T*%
X90039574Y-69713968D03*
D13*
%TO.P,D9,1*%
%TO.N,Net-(D9-Pad1)*%
X92579574Y-69713968D03*
%TD*%
D10*
%TO.P,D8,2*%
%TO.N,LED1_A_T*%
X90118652Y-55020267D03*
D13*
%TO.P,D8,1*%
%TO.N,Net-(D8-Pad1)*%
X92658652Y-55020267D03*
%TD*%
D10*
%TO.P,J_CLOCK0,3*%
%TO.N,CLOCK_T*%
X94016116Y-96975380D03*
%TO.P,J_CLOCK0,1*%
%TO.N,GND_T*%
X94016116Y-108375380D03*
%TO.P,J_CLOCK0,2*%
%TO.N,Net-(J_CLOCK0-Pad2)*%
X94016116Y-105275380D03*
%TD*%
%TO.P,D5,2*%
%TO.N,CLOCK_LED_T*%
X90170000Y-82931000D03*
D13*
%TO.P,D5,1*%
%TO.N,Net-(D5-Pad1)*%
X92710000Y-82931000D03*
%TD*%
D10*
%TO.P,D6,2*%
%TO.N,RESET_LED_T*%
X106650890Y-82917387D03*
D13*
%TO.P,D6,1*%
%TO.N,Net-(D6-Pad1)*%
X104110890Y-82917387D03*
%TD*%
D12*
%TO.P,J_POWER0,1*%
%TO.N,Net-(F1-Pad2)*%
X110796747Y-144011988D03*
D11*
%TO.P,J_POWER0,2*%
X110796747Y-146551988D03*
%TO.P,J_POWER0,3*%
%TO.N,GND_B*%
X113336747Y-144011988D03*
%TO.P,J_POWER0,4*%
X113336747Y-146551988D03*
%TO.P,J_POWER0,5*%
X115876747Y-144011988D03*
%TO.P,J_POWER0,6*%
X115876747Y-146551988D03*
%TO.P,J_POWER0,7*%
X118416747Y-144011988D03*
%TO.P,J_POWER0,8*%
X118416747Y-146551988D03*
%TO.P,J_POWER0,9*%
%TO.N,Net-(J_POWER0-Pad10)*%
X120956747Y-144011988D03*
%TO.P,J_POWER0,10*%
X120956747Y-146551988D03*
%TD*%
D10*
%TO.P,J_RESET0,3*%
%TO.N,RESET_T*%
X102906116Y-96975380D03*
%TO.P,J_RESET0,1*%
%TO.N,GND_T*%
X102906116Y-108375380D03*
%TO.P,J_RESET0,2*%
%TO.N,Net-(J_RESET0-Pad2)*%
X102906116Y-105275380D03*
%TD*%
%TO.P,D7,2*%
%TO.N,LED0_A_T*%
X90097039Y-40400894D03*
D13*
%TO.P,D7,1*%
%TO.N,Net-(D7-Pad1)*%
X92637039Y-40400894D03*
%TD*%
D14*
%TO.P,RV0,1*%
%TO.N,GND_T*%
X95895890Y-51500000D03*
%TO.P,RV0,2*%
%TO.N,POT0_T*%
X98395890Y-51500000D03*
%TO.P,RV0,3*%
%TO.N,VCC_T*%
X100895890Y-51500000D03*
D15*
%TO.P,RV0,*%
%TO.N,*%
X93595890Y-44000000D03*
X103195890Y-44000000D03*
%TD*%
D14*
%TO.P,RV1,1*%
%TO.N,GND_T*%
X95895890Y-66500000D03*
%TO.P,RV1,2*%
%TO.N,POT1_T*%
X98395890Y-66500000D03*
%TO.P,RV1,3*%
%TO.N,VCC_T*%
X100895890Y-66500000D03*
D15*
%TO.P,RV1,*%
%TO.N,*%
X93595890Y-59000000D03*
X103195890Y-59000000D03*
%TD*%
D16*
%TO.N,Net-(D3-Pad1)*%
X107000000Y-67000000D03*
%TO.N,Net-(D8-Pad1)*%
X92000000Y-67000000D03*
%TO.N,LED0*%
X118780237Y-61993988D03*
X113913354Y-104288400D03*
X118942594Y-55006641D03*
X118942594Y-53006641D03*
%TO.N,LED1*%
X110955247Y-54993988D03*
X113955247Y-116993988D03*
%TO.N,LED2*%
X112955247Y-54993988D03*
X116793247Y-113367988D03*
X117942594Y-97981335D03*
X116003070Y-94669834D03*
%TO.N,PB0*%
X118955247Y-113367988D03*
%TO.N,PD7*%
X117787387Y-113476113D03*
X118780237Y-97043142D03*
X116955247Y-94993988D03*
%TO.N,RXI*%
X112157245Y-98443989D03*
%TO.N,TXO*%
X110860247Y-99561988D03*
%TO.N,Net-(Q1-Pad2)*%
X120230247Y-73128289D03*
X120955247Y-82993988D03*
%TO.N,Net-(Q2-Pad2)*%
X116955247Y-57993988D03*
X117230237Y-83993988D03*
%TO.N,OUT1*%
X122955247Y-55993988D03*
X116955247Y-117993988D03*
%TO.N,OUT0*%
X119955247Y-113367988D03*
X118955247Y-40993988D03*
X110955247Y-51818978D03*
X110942594Y-60981335D03*
X110942594Y-72006641D03*
X113955247Y-73993988D03*
X114816009Y-84993988D03*
X112955247Y-93993988D03*
X115004401Y-93944834D03*
X115130257Y-96993988D03*
%TO.N,IN2*%
X125955247Y-61993988D03*
X119955247Y-109517988D03*
X125565747Y-120139316D03*
X122942594Y-96006641D03*
%TO.N,IN0*%
X120955247Y-109042989D03*
X119667870Y-99306670D03*
X117955247Y-94718988D03*
X117955247Y-64993988D03*
%TO.N,IN1*%
X122844338Y-93104897D03*
X120666257Y-61917345D03*
X122942594Y-73981335D03*
X122017889Y-77889402D03*
%TO.N,OUT_LED2_B*%
X124955247Y-99993988D03*
%TO.N,CLOCK_LED_B*%
X114787094Y-105162141D03*
X110955247Y-94993988D03*
X113955247Y-94993988D03*
%TO.N,RESET_LED_B*%
X112955247Y-104001989D03*
X112955247Y-96993988D03*
%TO.N,LED2_A_B*%
X116568249Y-52993988D03*
%TO.N,POT0_B*%
X120557187Y-66485734D03*
X120230247Y-85281852D03*
%TO.N,POT1_B*%
X110030257Y-56892896D03*
X115955247Y-93281740D03*
%TO.N,POT2_B*%
X119955247Y-95993988D03*
X120967900Y-87981335D03*
%TO.N,OUT2_B*%
X126376195Y-94171128D03*
X125955247Y-102405990D03*
%TO.N,OUT1_B*%
X126480227Y-105993988D03*
%TO.N,OUT0_B*%
X122223384Y-85262125D03*
X125967900Y-115981335D03*
%TO.N,RESET_B*%
X114955247Y-81993988D03*
%TO.N,GND_B*%
X112954558Y-114698988D03*
X120955247Y-130993988D03*
X110955247Y-111773987D03*
X113955247Y-61993988D03*
X113955247Y-58993988D03*
X120955247Y-119993988D03*
X115955247Y-53993988D03*
X122955247Y-62993988D03*
X121932994Y-51844579D03*
X110832094Y-82870835D03*
X111505246Y-84993988D03*
X113955247Y-125993988D03*
%TO.N,VCC_B*%
X125955247Y-56993988D03*
X112955247Y-72993988D03*
X121193247Y-112642988D03*
X122955247Y-124052518D03*
X123698078Y-81736819D03*
X123831736Y-91993988D03*
X119808126Y-58034701D03*
X119967900Y-53981335D03*
X124680247Y-101993988D03*
X125955247Y-106993988D03*
X125955247Y-113993988D03*
X120130257Y-110993988D03*
X112955247Y-99993988D03*
X111955247Y-110993988D03*
X111955247Y-110993988D03*
%TO.N,GND_T*%
X103000000Y-95000000D03*
X95000000Y-84000000D03*
%TD*%
D17*
%TO.N,Net-(D3-Pad1)*%
X104246157Y-55117030D02*
X104117030Y-55117030D01*
X107000000Y-58000000D02*
X107000000Y-67000000D01*
X104117030Y-55117030D02*
X107000000Y-58000000D01*
%TO.N,Net-(D8-Pad1)*%
X92000000Y-55678919D02*
X92658652Y-55020267D01*
X92000000Y-67000000D02*
X92000000Y-55678919D01*
%TO.N,LED0*%
X113913354Y-105361403D02*
X113913354Y-104288400D01*
X115135095Y-105887142D02*
X114439093Y-105887142D01*
X114439093Y-105887142D02*
X113913354Y-105361403D01*
X115680248Y-105341989D02*
X115135095Y-105887142D01*
X118942594Y-55006641D02*
X118942594Y-53006641D01*
X115157237Y-95791998D02*
X114405257Y-96543978D01*
X118780237Y-95791998D02*
X115157237Y-95791998D01*
X118780237Y-84896178D02*
X118780237Y-95791998D01*
X119505237Y-84171178D02*
X118780237Y-84896178D01*
X119505237Y-82816798D02*
X119505237Y-84171178D01*
X118780237Y-61993988D02*
X118780237Y-82168998D01*
X119505237Y-82816798D02*
X118780238Y-82091799D01*
X115680248Y-98891987D02*
X115680248Y-105341989D01*
X114405257Y-97616996D02*
X115680248Y-98891987D01*
X114405257Y-97443998D02*
X114405257Y-97616996D01*
X114405257Y-96543978D02*
X114405257Y-97443998D01*
%TO.N,LED1*%
X113955247Y-106993988D02*
X113955247Y-116993988D01*
X112230246Y-97341989D02*
X112505237Y-97616980D01*
X112230246Y-56268987D02*
X112230246Y-97341989D01*
X112230246Y-105268987D02*
X113955247Y-106993988D01*
X110955247Y-54993988D02*
X112230246Y-56268987D01*
X113955247Y-101993988D02*
X112680248Y-103268987D01*
X113955247Y-99630398D02*
X113955247Y-101993988D01*
X112680248Y-103268987D02*
X112230246Y-103268987D01*
X112230246Y-97341989D02*
X112882245Y-97993988D01*
X112882245Y-98557396D02*
X113955247Y-99630398D01*
X112230246Y-103268987D02*
X112230246Y-105268987D01*
X112882245Y-97993988D02*
X112882245Y-98557396D01*
%TO.N,LED2*%
X116793247Y-113367988D02*
X116793247Y-99155988D01*
X116793247Y-99155988D02*
X117955247Y-97993988D01*
X117955247Y-97993988D02*
X117942594Y-97981335D01*
X113955247Y-55993988D02*
X112955247Y-54993988D01*
X113230247Y-70268988D02*
X113230246Y-56718989D01*
X114141647Y-71180388D02*
X113230247Y-70268988D01*
X116680248Y-93992656D02*
X116680248Y-92933739D01*
X116405257Y-92658748D02*
X116405256Y-91807587D01*
X116405256Y-91807587D02*
X115991019Y-91393350D01*
X115991019Y-91393350D02*
X115991019Y-89958216D01*
X116680248Y-92933739D02*
X116405257Y-92658748D01*
X115991019Y-89958216D02*
X116505237Y-89443998D01*
X116505237Y-81543978D02*
X115955247Y-80993988D01*
X116505237Y-89443998D02*
X116505237Y-81543978D01*
X115955247Y-80993988D02*
X115955247Y-71993988D01*
X116003070Y-94669834D02*
X116680248Y-93992656D01*
X115505237Y-71543978D02*
X114141647Y-71543978D01*
X115955247Y-71993988D02*
X115505237Y-71543978D01*
X113230246Y-56718989D02*
X113955247Y-55993988D01*
X114141647Y-71543978D02*
X114141647Y-71180388D01*
%TO.N,PB0*%
X116829247Y-48453988D02*
X119955247Y-51579988D01*
X119955247Y-51579988D02*
X119955247Y-52993988D01*
X119230247Y-79993988D02*
X119230247Y-80268988D01*
X120053555Y-52993988D02*
X120692901Y-53633334D01*
X119955247Y-52993988D02*
X120053555Y-52993988D01*
X120691637Y-59993988D02*
X120691637Y-59732906D01*
X119941256Y-60744369D02*
X120691637Y-59993988D01*
X120691637Y-59732906D02*
X120692901Y-59731642D01*
X119941256Y-62007979D02*
X119941256Y-60744369D01*
X119505237Y-62443998D02*
X119941256Y-62007979D01*
X119505237Y-74543978D02*
X119505237Y-62443998D01*
X119230247Y-80268988D02*
X119230247Y-75718988D01*
X120692901Y-53633334D02*
X120692901Y-59731642D01*
X119230247Y-74718988D02*
X119230247Y-75993988D01*
X119330227Y-74718988D02*
X119505237Y-74543978D01*
X119230247Y-74718988D02*
X119330227Y-74718988D01*
X119230247Y-81268988D02*
X119230247Y-80268988D01*
X119230247Y-81905398D02*
X119230247Y-81268988D01*
X119955247Y-82630398D02*
X119230247Y-81905398D01*
X119505237Y-96993988D02*
X119882245Y-96993988D01*
X119505237Y-98443998D02*
X119505237Y-96993988D01*
X119955247Y-84357578D02*
X119955247Y-82630398D01*
X118237397Y-99711838D02*
X119505237Y-98443998D01*
X119230247Y-85082578D02*
X119955247Y-84357578D01*
X118237397Y-110993988D02*
X118237397Y-99711838D01*
X118955247Y-110993988D02*
X118237397Y-110993988D01*
X119230247Y-96341990D02*
X119230247Y-85082578D01*
X119882245Y-96993988D02*
X119230247Y-96341990D01*
X118955247Y-113367988D02*
X118955247Y-110993988D01*
%TO.N,PD7*%
X117787387Y-113476113D02*
X117787387Y-99161848D01*
X117787387Y-99161848D02*
X118955247Y-97993988D01*
X118955247Y-97218152D02*
X118780237Y-97043142D01*
X118955247Y-97993988D02*
X118955247Y-97218152D01*
X117130258Y-91993988D02*
X117130258Y-94179056D01*
X117768847Y-91355399D02*
X117130258Y-91993988D01*
X117768847Y-84543978D02*
X117768847Y-91355399D01*
X117955247Y-82993988D02*
X117955247Y-84357578D01*
X117768847Y-82807588D02*
X117955247Y-82993988D01*
X117768847Y-73443998D02*
X117768847Y-82807588D01*
X116955247Y-94354067D02*
X116955247Y-94993988D01*
X117505237Y-70443998D02*
X117505237Y-73180388D01*
X118856871Y-61192344D02*
X118508879Y-61192344D01*
X117130258Y-94179056D02*
X116955247Y-94354067D01*
X114289247Y-48453988D02*
X115654246Y-49818987D01*
X114955247Y-62993988D02*
X114955247Y-69993988D01*
X117955247Y-84357578D02*
X117768847Y-84543978D01*
X118004248Y-59042989D02*
X119505237Y-60543978D01*
X117505237Y-73180388D02*
X117768847Y-73443998D01*
X114955247Y-69993988D02*
X115405257Y-70443998D01*
X119505237Y-60543978D02*
X118856871Y-61192344D01*
X118508879Y-61192344D02*
X116707235Y-62993988D01*
X116707235Y-62993988D02*
X114955247Y-62993988D01*
X115405257Y-70443998D02*
X117505237Y-70443998D01*
X116916250Y-52268987D02*
X117955247Y-53307984D01*
X116474823Y-52268987D02*
X116916250Y-52268987D01*
X115654246Y-51448410D02*
X116474823Y-52268987D01*
X115654246Y-49818987D02*
X115654246Y-51448410D01*
X117955247Y-53307984D02*
X117955247Y-58993988D01*
%TO.N,RXI*%
X112157245Y-98443989D02*
X112157245Y-98195986D01*
X110860247Y-101300990D02*
X110860247Y-102101988D01*
X112157245Y-100003992D02*
X110860247Y-101300990D01*
X112157245Y-98443989D02*
X112157245Y-100003992D01*
%TO.N,Net-(Q1-Pad2)*%
X120881215Y-82556366D02*
X120881215Y-82919956D01*
X120593837Y-82268988D02*
X120881215Y-82556366D01*
X120230247Y-82268988D02*
X120593837Y-82268988D01*
X120230247Y-73128289D02*
X120230247Y-82268988D01*
%TO.N,Net-(Q2-Pad2)*%
X116955247Y-70993988D02*
X114955247Y-70993988D01*
X116955247Y-70993988D02*
X116955247Y-83993988D01*
X114955247Y-70993988D02*
X113955247Y-69993988D01*
X114019457Y-69929778D02*
X114019457Y-63058198D01*
X113955247Y-69993988D02*
X114019457Y-69929778D01*
X114019457Y-63058198D02*
X114955247Y-62122408D01*
X114955247Y-62122408D02*
X114955247Y-58993988D01*
X115955247Y-58993988D02*
X116955247Y-57993988D01*
X114955247Y-58993988D02*
X115955247Y-58993988D01*
%TO.N,OUT1*%
X121955247Y-88993988D02*
X121955247Y-87080408D01*
X121617605Y-89331630D02*
X121955247Y-88993988D01*
X123955247Y-56993988D02*
X122955247Y-55993988D01*
X120955247Y-97993988D02*
X121292889Y-97656346D01*
X116955247Y-117993988D02*
X121955247Y-122993988D01*
X122217593Y-108256334D02*
X120955247Y-106993988D01*
X126955247Y-123993988D02*
X126955247Y-117993988D01*
X121955247Y-124993988D02*
X125955247Y-124993988D01*
X121292889Y-89331630D02*
X121617605Y-89331630D01*
X126955247Y-117993988D02*
X124955247Y-115993988D01*
X121773374Y-86136831D02*
X121292889Y-85656346D01*
X124955247Y-115920986D02*
X125882245Y-114993988D01*
X125955247Y-124993988D02*
X126955247Y-123993988D01*
X123955247Y-73993988D02*
X123955247Y-56993988D01*
X125882245Y-114993988D02*
X126955247Y-114993988D01*
X124955247Y-115993988D02*
X124955247Y-115920986D01*
X121955247Y-87080408D02*
X121773374Y-86898535D01*
X121955247Y-122993988D02*
X121955247Y-124993988D01*
X126955247Y-114993988D02*
X126955247Y-108256334D01*
X121292889Y-76656346D02*
X123955247Y-73993988D01*
X121773374Y-86898535D02*
X121773374Y-86136831D01*
X126955247Y-108256334D02*
X122217593Y-108256334D01*
X120955247Y-106993988D02*
X120955247Y-97993988D01*
X121292889Y-81656346D02*
X122505237Y-81656346D01*
X121292889Y-81656346D02*
X121292889Y-76656346D01*
X122505237Y-81656346D02*
X122505237Y-84537124D01*
X121412111Y-84537124D02*
X121292889Y-84656346D01*
X122505237Y-84537124D02*
X121412111Y-84537124D01*
X121292889Y-85656346D02*
X121292889Y-84656346D01*
%TO.N,OUT0*%
X119955247Y-113367988D02*
X119955247Y-112993988D01*
X110942594Y-60981335D02*
X111767583Y-60981335D01*
X111767583Y-60981335D02*
X111780236Y-60993988D01*
X111780236Y-60993988D02*
X111780236Y-71993988D01*
X110955247Y-71993988D02*
X110942594Y-72006641D01*
X111780236Y-71993988D02*
X110955247Y-71993988D01*
X113955247Y-84133226D02*
X114816009Y-84993988D01*
X113955247Y-73993988D02*
X113955247Y-84133226D01*
X112955247Y-93993988D02*
X114028249Y-93993988D01*
X115168931Y-106489716D02*
X116130258Y-105528389D01*
X114405257Y-112053000D02*
X114405257Y-106489716D01*
X116553371Y-114201114D02*
X114405257Y-112053000D01*
X114405257Y-106489716D02*
X115168931Y-106489716D01*
X119687806Y-114201114D02*
X116553371Y-114201114D01*
X119955247Y-113933673D02*
X119687806Y-114201114D01*
X119955247Y-113367988D02*
X119955247Y-113933673D01*
X114028249Y-93993988D02*
X114955247Y-93993988D01*
X114955247Y-93993988D02*
X115004401Y-93944834D01*
X116130258Y-97993989D02*
X116130258Y-98818977D01*
X115130257Y-96993988D02*
X116130258Y-97993989D01*
X116130258Y-98818977D02*
X116130258Y-98720669D01*
X116130258Y-105528389D02*
X116130258Y-98818977D01*
X117989174Y-41960062D02*
X118224618Y-41724618D01*
X116515896Y-41960062D02*
X117989174Y-41960062D01*
X115714898Y-42761060D02*
X116515896Y-41960062D01*
X113785898Y-44690060D02*
X114723902Y-44690060D01*
X114723902Y-44690060D02*
X115714898Y-43699064D01*
X113174898Y-45301060D02*
X113785898Y-44690060D01*
X111946693Y-47553307D02*
X113174898Y-46325102D01*
X111946693Y-50827532D02*
X111946693Y-47553307D01*
X115714898Y-43699064D02*
X115714898Y-42761060D01*
X110955247Y-51818978D02*
X111946693Y-50827532D01*
X118224618Y-41724618D02*
X117940246Y-42008989D01*
X113174898Y-46325102D02*
X113174898Y-45301060D01*
X118955247Y-40993988D02*
X118224618Y-41724618D01*
%TO.N,IN2*%
X125955247Y-61993988D02*
X124556736Y-63392499D01*
X125565747Y-120139316D02*
X123100575Y-120139316D01*
X123556736Y-95392499D02*
X124556736Y-95392499D01*
X122942594Y-96006641D02*
X123556736Y-95392499D01*
X122169902Y-111917987D02*
X119405257Y-111917987D01*
X123100575Y-112848660D02*
X122169902Y-111917987D01*
X123100575Y-120139316D02*
X123100575Y-112848660D01*
X119405257Y-110067978D02*
X119955247Y-109517988D01*
X119405257Y-111917987D02*
X119405257Y-110067978D01*
X124556736Y-80392499D02*
X123353758Y-80392499D01*
X124556736Y-80392499D02*
X124556736Y-95392499D01*
X123353758Y-80392499D02*
X122955247Y-79993988D01*
X122955247Y-79993988D02*
X122955247Y-75993988D01*
X122955247Y-75993988D02*
X124556736Y-74392499D01*
X124556736Y-63392499D02*
X124556736Y-74392499D01*
%TO.N,IN0*%
X120955247Y-109042989D02*
X119955247Y-108042989D01*
X119955247Y-108042989D02*
X119955247Y-98993988D01*
X119955247Y-99019293D02*
X119667870Y-99306670D01*
X119955247Y-98993988D02*
X119955247Y-99019293D01*
X117955247Y-92993988D02*
X117955247Y-94718988D01*
X118330227Y-92619008D02*
X117955247Y-92993988D01*
X118330227Y-84619008D02*
X118330227Y-92619008D01*
X118955247Y-83993988D02*
X118330227Y-84619008D01*
X118955247Y-82993988D02*
X118955247Y-83993988D01*
X118330227Y-82368968D02*
X118955247Y-82993988D01*
X118330227Y-65368968D02*
X118330227Y-82368968D01*
X117955247Y-64993988D02*
X118330227Y-65368968D01*
%TO.N,IN1*%
X122844338Y-93104897D02*
X122955247Y-92993988D01*
X122955247Y-81406648D02*
X121955247Y-80406648D01*
X122955247Y-92993988D02*
X122955247Y-81406648D01*
X121955247Y-80406648D02*
X121955247Y-77993988D01*
X120666257Y-61917345D02*
X121955247Y-63206335D01*
X121955247Y-72993988D02*
X122942594Y-73981335D01*
X121955247Y-63206335D02*
X121955247Y-72993988D01*
%TO.N,OUT_LED2_B*%
X126680248Y-73497874D02*
X126193710Y-73984412D01*
X124955247Y-99993988D02*
X125955247Y-99993988D01*
X127212894Y-88328748D02*
X127380247Y-88496101D01*
X125955247Y-94823182D02*
X125006746Y-93874681D01*
X125617746Y-88328748D02*
X127212894Y-88328748D01*
X125006746Y-88939748D02*
X125617746Y-88328748D01*
X125955247Y-99993988D02*
X125955247Y-94823182D01*
X127380247Y-88496101D02*
X127655237Y-88221111D01*
X125006746Y-93874681D02*
X125006746Y-88939748D01*
X127655237Y-75264084D02*
X126167215Y-73776062D01*
X127655237Y-88221111D02*
X127655237Y-75264084D01*
%TO.N,CLOCK_LED_B*%
X109305257Y-80501978D02*
X109305257Y-93343998D01*
X110733247Y-79073988D02*
X109305257Y-80501978D01*
X109305257Y-93343998D02*
X110955247Y-94993988D01*
X113955247Y-96920986D02*
X113955247Y-94993988D01*
X113955247Y-97993988D02*
X114955247Y-98993988D01*
X113955247Y-97993988D02*
X113955247Y-96920986D01*
X114955247Y-98993988D02*
X114955247Y-104993988D01*
%TO.N,RESET_LED_B*%
X113505237Y-98543978D02*
X113505237Y-97543978D01*
X114141647Y-99180388D02*
X113505237Y-98543978D01*
X114505237Y-99180388D02*
X114141647Y-99180388D01*
X113505237Y-97543978D02*
X112955247Y-96993988D01*
X114505237Y-102451999D02*
X114505237Y-99180388D01*
X112955247Y-104001989D02*
X114505237Y-102451999D01*
%TO.N,LED2_A_B*%
X116568249Y-52993988D02*
X115955247Y-52993988D01*
X116568249Y-52993988D02*
X109305257Y-52993988D01*
X109305257Y-72565998D02*
X110733247Y-73993988D01*
X109305257Y-52993988D02*
X109305257Y-72565998D01*
%TO.N,POT0_B*%
X121955247Y-82106356D02*
X121955247Y-83993988D01*
X121106489Y-82106356D02*
X121955247Y-82106356D01*
X120881753Y-81881620D02*
X121106489Y-82106356D01*
X120955247Y-76357578D02*
X120842879Y-76469946D01*
X120955247Y-70993988D02*
X120955247Y-76357578D01*
X119955247Y-70993988D02*
X120955247Y-70993988D01*
X119955247Y-67087674D02*
X119955247Y-70993988D01*
X120842879Y-76469946D02*
X120842879Y-81881620D01*
X120557187Y-66485734D02*
X119955247Y-67087674D01*
X120230247Y-85281852D02*
X120230247Y-84718988D01*
X120230247Y-84718988D02*
X120955247Y-83993988D01*
X120955247Y-83993988D02*
X121955247Y-83993988D01*
%TO.N,POT1_B*%
X112230246Y-55341989D02*
X112955247Y-56066990D01*
X112230246Y-55195985D02*
X112230246Y-55341989D01*
X111028249Y-53993988D02*
X112230246Y-55195985D01*
X112780236Y-56532589D02*
X112780237Y-62528390D01*
X112955247Y-56357578D02*
X112780236Y-56532589D01*
X112955247Y-56066990D02*
X112955247Y-56357578D01*
X111028249Y-53993988D02*
X110955247Y-53993988D01*
X110030257Y-54845976D02*
X110030257Y-56892896D01*
X110882245Y-53993988D02*
X110030257Y-54845976D01*
X110955247Y-53993988D02*
X110882245Y-53993988D01*
X112780237Y-70818978D02*
X112780237Y-62528390D01*
X114955247Y-71993988D02*
X113955247Y-71993988D01*
X114955247Y-80993988D02*
X114955247Y-71993988D01*
X113955247Y-71993988D02*
X112780237Y-70818978D01*
X115028249Y-80993988D02*
X114955247Y-80993988D01*
X115991019Y-81956758D02*
X115028249Y-80993988D01*
X115955247Y-93281740D02*
X115955247Y-91993988D01*
X115541009Y-91579750D02*
X115541009Y-89408226D01*
X115955247Y-91993988D02*
X115541009Y-91579750D01*
X115541009Y-89408226D02*
X115955247Y-88993988D01*
X115991019Y-88524387D02*
X115991019Y-82029760D01*
X115955247Y-88560159D02*
X115991019Y-88524387D01*
X115955247Y-88993988D02*
X115955247Y-88560159D01*
%TO.N,POT2_B*%
X120842879Y-95106356D02*
X119955247Y-95993988D01*
X120842879Y-89106356D02*
X120842879Y-88956906D01*
X120842879Y-88881620D02*
X120842879Y-89106356D01*
X120842879Y-89106356D02*
X120842879Y-95106356D01*
X120842879Y-88106356D02*
X120955247Y-87993988D01*
X120842879Y-88956906D02*
X120842879Y-88106356D01*
%TO.N,OUT2_B*%
X126376195Y-94171128D02*
X126132387Y-94171128D01*
X126132387Y-94171128D02*
X126906738Y-94945479D01*
X126906738Y-101454499D02*
X125955247Y-102405990D01*
X126906738Y-94945479D02*
X126906738Y-101454499D01*
%TO.N,OUT1_B*%
X127356748Y-90678750D02*
X126181747Y-89503749D01*
X127356748Y-105117467D02*
X127356748Y-90678750D01*
X126480227Y-105993988D02*
X127356748Y-105117467D01*
%TO.N,OUT0_B*%
X125980553Y-115993988D02*
X125967900Y-115981335D01*
X122119337Y-107158078D02*
X122767583Y-107806324D01*
X122119337Y-89829898D02*
X122119337Y-107158078D01*
X127655237Y-107806324D02*
X127655237Y-115993988D01*
X122505237Y-86993988D02*
X122505237Y-89443998D01*
X127655237Y-115993988D02*
X125980553Y-115993988D01*
X122767583Y-107806324D02*
X127655237Y-107806324D01*
X122505237Y-89443998D02*
X122119337Y-89829898D01*
X122223384Y-86712135D02*
X122505237Y-86993988D01*
X122223384Y-85262125D02*
X122223384Y-86712135D01*
%TO.N,RESET_B*%
X115541009Y-88337987D02*
X114366008Y-89512988D01*
X115541009Y-82579750D02*
X115541009Y-88337987D01*
X114955247Y-81993988D02*
X115541009Y-82579750D01*
%TO.N,GND_B*%
X120955247Y-130993988D02*
X120955247Y-122699677D01*
X118587934Y-122699677D02*
X120955247Y-122699677D01*
X112954558Y-117066301D02*
X118587934Y-122699677D01*
X112954558Y-114698988D02*
X112954558Y-117066301D01*
X112954558Y-114698988D02*
X112954558Y-114993299D01*
X110955247Y-112993988D02*
X110955247Y-111993988D01*
X112954558Y-114993299D02*
X110955247Y-112993988D01*
X110955247Y-111993988D02*
X110955247Y-111773987D01*
X113955247Y-61993988D02*
X113955247Y-58993988D01*
X116230246Y-118341989D02*
X120882245Y-122993988D01*
X116230246Y-117645987D02*
X116230246Y-118341989D01*
X116607246Y-117268987D02*
X116230246Y-117645987D01*
X118230246Y-117268987D02*
X116607246Y-117268987D01*
X120955247Y-119993988D02*
X118230246Y-117268987D01*
X115955247Y-56993988D02*
X115955247Y-53993988D01*
X113955247Y-58993988D02*
X115955247Y-56993988D01*
X122130258Y-52041843D02*
X121932994Y-51844579D01*
X122130258Y-62168999D02*
X122130258Y-52041843D01*
X122955247Y-62993988D02*
X122130258Y-62168999D01*
X110832094Y-84320836D02*
X111505246Y-84993988D01*
X110832094Y-82870835D02*
X110832094Y-84320836D01*
X117249558Y-122699677D02*
X118587934Y-122699677D01*
X113955247Y-125993988D02*
X117249558Y-122699677D01*
%TO.N,RESET_LED_T*%
X106650890Y-79613252D02*
X106108062Y-79070424D01*
X106650890Y-82917387D02*
X106650890Y-79613252D01*
%TO.N,POT0_T*%
X103355890Y-46540000D02*
X98395890Y-51500000D01*
X106108500Y-46540000D02*
X103355890Y-46540000D01*
%TO.N,POT1_T*%
X90678000Y-46540000D02*
X90678000Y-46678000D01*
X94920889Y-50920889D02*
X94920889Y-58363997D01*
X90678000Y-46678000D02*
X94920889Y-50920889D01*
X98395890Y-61838998D02*
X98278446Y-61721554D01*
X98395890Y-66500000D02*
X98395890Y-61838998D01*
X94920889Y-58363997D02*
X98278446Y-61721554D01*
%TO.N,VCC_B*%
X114366008Y-86972988D02*
X112955247Y-85562227D01*
X112955247Y-85562227D02*
X112955247Y-72993988D01*
X122505237Y-113954978D02*
X121193247Y-112642988D01*
X122505237Y-123602508D02*
X122505237Y-113954978D01*
X122955247Y-124052518D02*
X122505237Y-123602508D01*
X123698078Y-81736819D02*
X123955247Y-81993988D01*
X123831736Y-82117499D02*
X123831736Y-91993988D01*
X123955247Y-81993988D02*
X123831736Y-82117499D01*
X119808126Y-54141109D02*
X119967900Y-53981335D01*
X119808126Y-58034701D02*
X119808126Y-54141109D01*
X124680247Y-101993988D02*
X123955247Y-102718988D01*
X123955247Y-102718988D02*
X123955247Y-104993988D01*
X123955247Y-104993988D02*
X125955247Y-106993988D01*
X125955247Y-113993988D02*
X123955247Y-111993988D01*
X122955247Y-110993988D02*
X120130257Y-110993988D01*
X123955247Y-111993988D02*
X122955247Y-110993988D01*
X112955247Y-101745990D02*
X112955247Y-99993988D01*
X110860247Y-103840990D02*
X112955247Y-101745990D01*
X110860247Y-104641988D02*
X110860247Y-103840990D01*
X112355246Y-106136987D02*
X110860247Y-104641988D01*
X112355246Y-110593989D02*
X112355246Y-106136987D01*
X111955247Y-110993988D02*
X112355246Y-110593989D01*
X113114246Y-49818987D02*
X114289247Y-50993988D01*
X113114246Y-47699989D02*
X113114246Y-49818987D01*
X113725587Y-47089330D02*
X113725246Y-47088989D01*
X117456340Y-47088989D02*
X117455999Y-47089330D01*
X121050248Y-47088989D02*
X117456340Y-47088989D01*
X113725246Y-47088989D02*
X113114246Y-47699989D01*
X117455999Y-47089330D02*
X113725587Y-47089330D01*
X125955247Y-51993988D02*
X121050248Y-47088989D01*
X125955247Y-56993988D02*
X125955247Y-51993988D01*
%TO.N,GND_T*%
X104131117Y-96131117D02*
X103000000Y-95000000D01*
X104131117Y-107150379D02*
X104131117Y-96131117D01*
X102906116Y-108375380D02*
X104131117Y-107150379D01*
X95895890Y-83104110D02*
X95000000Y-84000000D01*
X95895890Y-81500000D02*
X95895890Y-83104110D01*
X95684223Y-81500000D02*
X95895890Y-81500000D01*
X90724223Y-76540000D02*
X95684223Y-81500000D01*
X92754999Y-109636497D02*
X94016116Y-108375380D01*
X92754999Y-134534999D02*
X92754999Y-109636497D01*
X93980000Y-135760000D02*
X92754999Y-134534999D01*
%TO.N,VCC_T*%
X100895890Y-51500000D02*
X100895890Y-66500000D01*
X100895890Y-66500000D02*
X100895890Y-81500000D01*
X95333097Y-87062793D02*
X100895890Y-81500000D01*
X94363691Y-87062793D02*
X95333097Y-87062793D01*
%TD*%
M02*
