%TF.GenerationSoftware,KiCad,Pcbnew,5.1.8*%
%TF.CreationDate,2020-11-17T21:54:47+01:00*%
%TF.ProjectId,kompas,6b6f6d70-6173-42e6-9b69-6361645f7063,rev?*%
%TF.SameCoordinates,Original*%
%TF.FileFunction,Copper,L1,Top*%
%TF.FilePolarity,Positive*%
%FSLAX46Y46*%
G04 Gerber Fmt 4.6, Leading zero omitted, Abs format (unit mm)*
G04 Created by KiCad (PCBNEW 5.1.8) date 2020-11-17 21:54:47*
%MOMM*%
%LPD*%
G01*
G04 APERTURE LIST*
%TA.AperFunction,ComponentPad*%
%ADD10C,1.800000*%
%TD*%
%TA.AperFunction,ComponentPad*%
%ADD11O,1.700000X1.700000*%
%TD*%
%TA.AperFunction,ComponentPad*%
%ADD12R,1.700000X1.700000*%
%TD*%
%TA.AperFunction,SMDPad,CuDef*%
%ADD13R,0.550000X1.600000*%
%TD*%
%TA.AperFunction,SMDPad,CuDef*%
%ADD14R,1.600000X0.550000*%
%TD*%
%TA.AperFunction,ComponentPad*%
%ADD15R,1.800000X1.800000*%
%TD*%
%TA.AperFunction,SMDPad,CuDef*%
%ADD16R,3.500000X2.300000*%
%TD*%
%TA.AperFunction,ComponentPad*%
%ADD17C,1.300000*%
%TD*%
%TA.AperFunction,ComponentPad*%
%ADD18C,2.000000*%
%TD*%
%TA.AperFunction,SMDPad,CuDef*%
%ADD19R,0.800000X0.900000*%
%TD*%
%TA.AperFunction,SMDPad,CuDef*%
%ADD20R,0.900000X0.800000*%
%TD*%
%TA.AperFunction,SMDPad,CuDef*%
%ADD21R,3.200000X0.400000*%
%TD*%
%TA.AperFunction,SMDPad,CuDef*%
%ADD22R,2.000000X3.800000*%
%TD*%
%TA.AperFunction,SMDPad,CuDef*%
%ADD23R,2.000000X1.500000*%
%TD*%
%TA.AperFunction,ViaPad*%
%ADD24C,0.800000*%
%TD*%
%TA.AperFunction,Conductor*%
%ADD25C,0.250000*%
%TD*%
G04 APERTURE END LIST*
D10*
%TO.P,J_OUT0,3*%
%TO.N,OUT0_T*%
X102906116Y-119515380D03*
%TO.P,J_OUT0,2*%
%TO.N,Net-(J_OUT0-Pad2)*%
X102906116Y-111215380D03*
%TD*%
%TO.P,J_IN0,3*%
%TO.N,IN0_T*%
X94016116Y-119515380D03*
%TO.P,J_IN0,2*%
%TO.N,Net-(J_IN0-Pad2)*%
X94016116Y-111215380D03*
%TD*%
%TO.P,J_IN2,3*%
%TO.N,IN2_T*%
X93980000Y-147160000D03*
%TO.P,J_IN2,2*%
%TO.N,Net-(J_IN2-Pad2)*%
X93980000Y-138860000D03*
%TD*%
%TO.P,J_OUT2,3*%
%TO.N,OUT2_T*%
X102870000Y-147160000D03*
%TO.P,J_OUT2,2*%
%TO.N,Net-(J_OUT2-Pad2)*%
X102870000Y-138860000D03*
%TD*%
D11*
%TO.P,J6,3*%
%TO.N,LED1_A_B*%
X110771692Y-49486200D03*
%TO.P,J6,2*%
%TO.N,POT1_B*%
X110771692Y-46946200D03*
D12*
%TO.P,J6,1*%
%TO.N,LED0_A_B*%
X110771692Y-44406200D03*
%TD*%
%TO.P,U2,14*%
%TO.N,Net-(U2-Pad13)*%
%TA.AperFunction,SMDPad,CuDef*%
G36*
G01*
X126966247Y-63722488D02*
X127266247Y-63722488D01*
G75*
G02*
X127416247Y-63872488I0J-150000D01*
G01*
X127416247Y-65522488D01*
G75*
G02*
X127266247Y-65672488I-150000J0D01*
G01*
X126966247Y-65672488D01*
G75*
G02*
X126816247Y-65522488I0J150000D01*
G01*
X126816247Y-63872488D01*
G75*
G02*
X126966247Y-63722488I150000J0D01*
G01*
G37*
%TD.AperFunction*%
%TO.P,U2,13*%
%TA.AperFunction,SMDPad,CuDef*%
G36*
G01*
X125696247Y-63722488D02*
X125996247Y-63722488D01*
G75*
G02*
X126146247Y-63872488I0J-150000D01*
G01*
X126146247Y-65522488D01*
G75*
G02*
X125996247Y-65672488I-150000J0D01*
G01*
X125696247Y-65672488D01*
G75*
G02*
X125546247Y-65522488I0J150000D01*
G01*
X125546247Y-63872488D01*
G75*
G02*
X125696247Y-63722488I150000J0D01*
G01*
G37*
%TD.AperFunction*%
%TO.P,U2,12*%
%TO.N,GND_B*%
%TA.AperFunction,SMDPad,CuDef*%
G36*
G01*
X124426247Y-63722488D02*
X124726247Y-63722488D01*
G75*
G02*
X124876247Y-63872488I0J-150000D01*
G01*
X124876247Y-65522488D01*
G75*
G02*
X124726247Y-65672488I-150000J0D01*
G01*
X124426247Y-65672488D01*
G75*
G02*
X124276247Y-65522488I0J150000D01*
G01*
X124276247Y-63872488D01*
G75*
G02*
X124426247Y-63722488I150000J0D01*
G01*
G37*
%TD.AperFunction*%
%TO.P,U2,11*%
%TA.AperFunction,SMDPad,CuDef*%
G36*
G01*
X123156247Y-63722488D02*
X123456247Y-63722488D01*
G75*
G02*
X123606247Y-63872488I0J-150000D01*
G01*
X123606247Y-65522488D01*
G75*
G02*
X123456247Y-65672488I-150000J0D01*
G01*
X123156247Y-65672488D01*
G75*
G02*
X123006247Y-65522488I0J150000D01*
G01*
X123006247Y-63872488D01*
G75*
G02*
X123156247Y-63722488I150000J0D01*
G01*
G37*
%TD.AperFunction*%
%TO.P,U2,10*%
%TO.N,Net-(R6-Pad1)*%
%TA.AperFunction,SMDPad,CuDef*%
G36*
G01*
X121886247Y-63722488D02*
X122186247Y-63722488D01*
G75*
G02*
X122336247Y-63872488I0J-150000D01*
G01*
X122336247Y-65522488D01*
G75*
G02*
X122186247Y-65672488I-150000J0D01*
G01*
X121886247Y-65672488D01*
G75*
G02*
X121736247Y-65522488I0J150000D01*
G01*
X121736247Y-63872488D01*
G75*
G02*
X121886247Y-63722488I150000J0D01*
G01*
G37*
%TD.AperFunction*%
%TO.P,U2,9*%
%TO.N,IN0*%
%TA.AperFunction,SMDPad,CuDef*%
G36*
G01*
X120616247Y-63722488D02*
X120916247Y-63722488D01*
G75*
G02*
X121066247Y-63872488I0J-150000D01*
G01*
X121066247Y-65522488D01*
G75*
G02*
X120916247Y-65672488I-150000J0D01*
G01*
X120616247Y-65672488D01*
G75*
G02*
X120466247Y-65522488I0J150000D01*
G01*
X120466247Y-63872488D01*
G75*
G02*
X120616247Y-63722488I150000J0D01*
G01*
G37*
%TD.AperFunction*%
%TO.P,U2,8*%
%TA.AperFunction,SMDPad,CuDef*%
G36*
G01*
X119346247Y-63722488D02*
X119646247Y-63722488D01*
G75*
G02*
X119796247Y-63872488I0J-150000D01*
G01*
X119796247Y-65522488D01*
G75*
G02*
X119646247Y-65672488I-150000J0D01*
G01*
X119346247Y-65672488D01*
G75*
G02*
X119196247Y-65522488I0J150000D01*
G01*
X119196247Y-63872488D01*
G75*
G02*
X119346247Y-63722488I150000J0D01*
G01*
G37*
%TD.AperFunction*%
%TO.P,U2,7*%
%TO.N,IN1*%
%TA.AperFunction,SMDPad,CuDef*%
G36*
G01*
X119346247Y-58772488D02*
X119646247Y-58772488D01*
G75*
G02*
X119796247Y-58922488I0J-150000D01*
G01*
X119796247Y-60572488D01*
G75*
G02*
X119646247Y-60722488I-150000J0D01*
G01*
X119346247Y-60722488D01*
G75*
G02*
X119196247Y-60572488I0J150000D01*
G01*
X119196247Y-58922488D01*
G75*
G02*
X119346247Y-58772488I150000J0D01*
G01*
G37*
%TD.AperFunction*%
%TO.P,U2,6*%
%TA.AperFunction,SMDPad,CuDef*%
G36*
G01*
X120616247Y-58772488D02*
X120916247Y-58772488D01*
G75*
G02*
X121066247Y-58922488I0J-150000D01*
G01*
X121066247Y-60572488D01*
G75*
G02*
X120916247Y-60722488I-150000J0D01*
G01*
X120616247Y-60722488D01*
G75*
G02*
X120466247Y-60572488I0J150000D01*
G01*
X120466247Y-58922488D01*
G75*
G02*
X120616247Y-58772488I150000J0D01*
G01*
G37*
%TD.AperFunction*%
%TO.P,U2,5*%
%TO.N,Net-(R5-Pad1)*%
%TA.AperFunction,SMDPad,CuDef*%
G36*
G01*
X121886247Y-58772488D02*
X122186247Y-58772488D01*
G75*
G02*
X122336247Y-58922488I0J-150000D01*
G01*
X122336247Y-60572488D01*
G75*
G02*
X122186247Y-60722488I-150000J0D01*
G01*
X121886247Y-60722488D01*
G75*
G02*
X121736247Y-60572488I0J150000D01*
G01*
X121736247Y-58922488D01*
G75*
G02*
X121886247Y-58772488I150000J0D01*
G01*
G37*
%TD.AperFunction*%
%TO.P,U2,4*%
%TO.N,VCC_B*%
%TA.AperFunction,SMDPad,CuDef*%
G36*
G01*
X123156247Y-58772488D02*
X123456247Y-58772488D01*
G75*
G02*
X123606247Y-58922488I0J-150000D01*
G01*
X123606247Y-60572488D01*
G75*
G02*
X123456247Y-60722488I-150000J0D01*
G01*
X123156247Y-60722488D01*
G75*
G02*
X123006247Y-60572488I0J150000D01*
G01*
X123006247Y-58922488D01*
G75*
G02*
X123156247Y-58772488I150000J0D01*
G01*
G37*
%TD.AperFunction*%
%TO.P,U2,3*%
%TO.N,Net-(R4-Pad1)*%
%TA.AperFunction,SMDPad,CuDef*%
G36*
G01*
X124426247Y-58772488D02*
X124726247Y-58772488D01*
G75*
G02*
X124876247Y-58922488I0J-150000D01*
G01*
X124876247Y-60572488D01*
G75*
G02*
X124726247Y-60722488I-150000J0D01*
G01*
X124426247Y-60722488D01*
G75*
G02*
X124276247Y-60572488I0J150000D01*
G01*
X124276247Y-58922488D01*
G75*
G02*
X124426247Y-58772488I150000J0D01*
G01*
G37*
%TD.AperFunction*%
%TO.P,U2,2*%
%TO.N,IN2*%
%TA.AperFunction,SMDPad,CuDef*%
G36*
G01*
X125696247Y-58772488D02*
X125996247Y-58772488D01*
G75*
G02*
X126146247Y-58922488I0J-150000D01*
G01*
X126146247Y-60572488D01*
G75*
G02*
X125996247Y-60722488I-150000J0D01*
G01*
X125696247Y-60722488D01*
G75*
G02*
X125546247Y-60572488I0J150000D01*
G01*
X125546247Y-58922488D01*
G75*
G02*
X125696247Y-58772488I150000J0D01*
G01*
G37*
%TD.AperFunction*%
%TO.P,U2,1*%
%TA.AperFunction,SMDPad,CuDef*%
G36*
G01*
X126966247Y-58772488D02*
X127266247Y-58772488D01*
G75*
G02*
X127416247Y-58922488I0J-150000D01*
G01*
X127416247Y-60572488D01*
G75*
G02*
X127266247Y-60722488I-150000J0D01*
G01*
X126966247Y-60722488D01*
G75*
G02*
X126816247Y-60572488I0J150000D01*
G01*
X126816247Y-58922488D01*
G75*
G02*
X126966247Y-58772488I150000J0D01*
G01*
G37*
%TD.AperFunction*%
%TD*%
D13*
%TO.P,U1,32*%
%TO.N,CLOCK_LED_B*%
X115993247Y-107192988D03*
%TO.P,U1,31*%
%TO.N,TXO*%
X116793247Y-107192988D03*
%TO.P,U1,30*%
%TO.N,RXI*%
X117593247Y-107192988D03*
%TO.P,U1,29*%
%TO.N,RST*%
X118393247Y-107192988D03*
%TO.P,U1,28*%
%TO.N,POT2_B*%
X119193247Y-107192988D03*
%TO.P,U1,27*%
%TO.N,POT1_B*%
X119993247Y-107192988D03*
%TO.P,U1,26*%
%TO.N,POT0_B*%
X120793247Y-107192988D03*
%TO.P,U1,25*%
%TO.N,IN2*%
X121593247Y-107192988D03*
D14*
%TO.P,U1,24*%
%TO.N,IN0*%
X123043247Y-108642988D03*
%TO.P,U1,23*%
%TO.N,IN1*%
X123043247Y-109442988D03*
%TO.P,U1,22*%
%TO.N,Net-(U1-Pad22)*%
X123043247Y-110242988D03*
%TO.P,U1,21*%
%TO.N,GND_B*%
X123043247Y-111042988D03*
%TO.P,U1,20*%
%TO.N,VCC_B*%
X123043247Y-111842988D03*
%TO.P,U1,19*%
%TO.N,Net-(U1-Pad19)*%
X123043247Y-112642988D03*
%TO.P,U1,18*%
%TO.N,VCC_B*%
X123043247Y-113442988D03*
%TO.P,U1,17*%
%TO.N,CLOCK*%
X123043247Y-114242988D03*
D13*
%TO.P,U1,16*%
%TO.N,RESET*%
X121593247Y-115692988D03*
%TO.P,U1,15*%
%TO.N,OUT0*%
X120793247Y-115692988D03*
%TO.P,U1,14*%
%TO.N,OUT1*%
X119993247Y-115692988D03*
%TO.P,U1,13*%
%TO.N,OUT2*%
X119193247Y-115692988D03*
%TO.P,U1,12*%
%TO.N,PB0*%
X118393247Y-115692988D03*
%TO.P,U1,11*%
%TO.N,PD7*%
X117593247Y-115692988D03*
%TO.P,U1,10*%
%TO.N,LED2*%
X116793247Y-115692988D03*
%TO.P,U1,9*%
%TO.N,LED1*%
X115993247Y-115692988D03*
D14*
%TO.P,U1,8*%
%TO.N,Net-(U1-Pad8)*%
X114543247Y-114242988D03*
%TO.P,U1,7*%
%TO.N,Net-(U1-Pad7)*%
X114543247Y-113442988D03*
%TO.P,U1,6*%
%TO.N,VCC_B*%
X114543247Y-112642988D03*
%TO.P,U1,5*%
%TO.N,GND_B*%
X114543247Y-111842988D03*
%TO.P,U1,4*%
%TO.N,VCC_B*%
X114543247Y-111042988D03*
%TO.P,U1,3*%
%TO.N,GND_B*%
X114543247Y-110242988D03*
%TO.P,U1,2*%
%TO.N,RESET_LED_B*%
X114543247Y-109442988D03*
%TO.P,U1,1*%
%TO.N,LED0*%
X114543247Y-108642988D03*
%TD*%
%TO.P,F1,2*%
%TO.N,Net-(F1-Pad2)*%
%TA.AperFunction,SMDPad,CuDef*%
G36*
G01*
X110782247Y-140386987D02*
X110782247Y-141286989D01*
G75*
G02*
X110532248Y-141536988I-249999J0D01*
G01*
X109882246Y-141536988D01*
G75*
G02*
X109632247Y-141286989I0J249999D01*
G01*
X109632247Y-140386987D01*
G75*
G02*
X109882246Y-140136988I249999J0D01*
G01*
X110532248Y-140136988D01*
G75*
G02*
X110782247Y-140386987I0J-249999D01*
G01*
G37*
%TD.AperFunction*%
%TO.P,F1,1*%
%TO.N,Net-(C1-Pad1)*%
%TA.AperFunction,SMDPad,CuDef*%
G36*
G01*
X112832247Y-140386987D02*
X112832247Y-141286989D01*
G75*
G02*
X112582248Y-141536988I-249999J0D01*
G01*
X111932246Y-141536988D01*
G75*
G02*
X111682247Y-141286989I0J249999D01*
G01*
X111682247Y-140386987D01*
G75*
G02*
X111932246Y-140136988I249999J0D01*
G01*
X112582248Y-140136988D01*
G75*
G02*
X112832247Y-140386987I0J-249999D01*
G01*
G37*
%TD.AperFunction*%
%TD*%
D12*
%TO.P,J20,1*%
%TO.N,VCC_T*%
X94363691Y-87062793D03*
D11*
%TO.P,J20,2*%
%TO.N,RESET_T*%
X94363691Y-89602793D03*
%TO.P,J20,3*%
%TO.N,CLOCK_T*%
X94363691Y-92142793D03*
%TD*%
%TO.P,J12,3*%
%TO.N,CLOCK_B*%
X114366008Y-92052988D03*
%TO.P,J12,2*%
%TO.N,RESET_B*%
X114366008Y-89512988D03*
D12*
%TO.P,J12,1*%
%TO.N,VCC_B*%
X114366008Y-86972988D03*
%TD*%
D11*
%TO.P,J19,3*%
%TO.N,CLOCK_LED_T*%
X90720271Y-78853952D03*
%TO.P,J19,2*%
%TO.N,GND_T*%
X90720271Y-76313952D03*
D12*
%TO.P,J19,1*%
%TO.N,LED2_A_T*%
X90720271Y-73773952D03*
%TD*%
D11*
%TO.P,J18,3*%
%TO.N,OUT2_T*%
X105918000Y-92138500D03*
%TO.P,J18,2*%
%TO.N,OUT1_T*%
X105918000Y-89598500D03*
D12*
%TO.P,J18,1*%
%TO.N,OUT0_T*%
X105918000Y-87058500D03*
%TD*%
D11*
%TO.P,J16,3*%
%TO.N,IN2_T*%
X90741500Y-92138500D03*
%TO.P,J16,2*%
%TO.N,IN1_T*%
X90741500Y-89598500D03*
D12*
%TO.P,J16,1*%
%TO.N,IN0_T*%
X90741500Y-87058500D03*
%TD*%
D11*
%TO.P,J15,3*%
%TO.N,RESET_LED_T*%
X106107362Y-78853952D03*
%TO.P,J15,2*%
%TO.N,POT2_T*%
X106107362Y-76313952D03*
D12*
%TO.P,J15,1*%
%TO.N,OUT_LED2_T*%
X106107362Y-73773952D03*
%TD*%
D11*
%TO.P,J14,3*%
%TO.N,OUT_LED1_T*%
X106104316Y-49515441D03*
%TO.P,J14,2*%
%TO.N,POT0_T*%
X106104316Y-46975441D03*
D12*
%TO.P,J14,1*%
%TO.N,OUT_LED0_T*%
X106104316Y-44435441D03*
%TD*%
D11*
%TO.P,J13,3*%
%TO.N,LED1_A_T*%
X90703287Y-49538670D03*
%TO.P,J13,2*%
%TO.N,POT1_T*%
X90703287Y-46998670D03*
D12*
%TO.P,J13,1*%
%TO.N,LED0_A_T*%
X90703287Y-44458670D03*
%TD*%
D11*
%TO.P,J11,3*%
%TO.N,CLOCK_LED_B*%
X110745537Y-78856062D03*
%TO.P,J11,2*%
%TO.N,GND_B*%
X110745537Y-76316062D03*
D12*
%TO.P,J11,1*%
%TO.N,LED2_A_B*%
X110745537Y-73776062D03*
%TD*%
D11*
%TO.P,J10,3*%
%TO.N,OUT2_B*%
X126181747Y-92043749D03*
%TO.P,J10,2*%
%TO.N,OUT1_B*%
X126181747Y-89503749D03*
D12*
%TO.P,J10,1*%
%TO.N,OUT0_B*%
X126181747Y-86963749D03*
%TD*%
D11*
%TO.P,J9,3*%
%TO.N,IN2_B*%
X110754167Y-92052988D03*
%TO.P,J9,2*%
%TO.N,IN1_B*%
X110754167Y-89512988D03*
D12*
%TO.P,J9,1*%
%TO.N,IN0_B*%
X110754167Y-86972988D03*
%TD*%
D11*
%TO.P,J8,3*%
%TO.N,RESET_LED_B*%
X126167215Y-78856062D03*
%TO.P,J8,2*%
%TO.N,POT2_B*%
X126167215Y-76316062D03*
D12*
%TO.P,J8,1*%
%TO.N,OUT_LED2_B*%
X126167215Y-73776062D03*
%TD*%
D11*
%TO.P,J7,3*%
%TO.N,OUT_LED1_B*%
X126195950Y-49439741D03*
%TO.P,J7,2*%
%TO.N,POT0_B*%
X126195950Y-46899741D03*
D12*
%TO.P,J7,1*%
%TO.N,OUT_LED0_B*%
X126195950Y-44359741D03*
%TD*%
%TO.P,C4,2*%
%TO.N,GND_B*%
%TA.AperFunction,SMDPad,CuDef*%
G36*
G01*
X123285247Y-129022988D02*
X123285247Y-127922988D01*
G75*
G02*
X123535247Y-127672988I250000J0D01*
G01*
X126035247Y-127672988D01*
G75*
G02*
X126285247Y-127922988I0J-250000D01*
G01*
X126285247Y-129022988D01*
G75*
G02*
X126035247Y-129272988I-250000J0D01*
G01*
X123535247Y-129272988D01*
G75*
G02*
X123285247Y-129022988I0J250000D01*
G01*
G37*
%TD.AperFunction*%
%TO.P,C4,1*%
%TO.N,VCC_B*%
%TA.AperFunction,SMDPad,CuDef*%
G36*
G01*
X118885247Y-129022988D02*
X118885247Y-127922988D01*
G75*
G02*
X119135247Y-127672988I250000J0D01*
G01*
X121635247Y-127672988D01*
G75*
G02*
X121885247Y-127922988I0J-250000D01*
G01*
X121885247Y-129022988D01*
G75*
G02*
X121635247Y-129272988I-250000J0D01*
G01*
X119135247Y-129272988D01*
G75*
G02*
X118885247Y-129022988I0J250000D01*
G01*
G37*
%TD.AperFunction*%
%TD*%
D10*
%TO.P,D2,2*%
%TO.N,OUT_LED0_T*%
X106728923Y-40377027D03*
D15*
%TO.P,D2,1*%
%TO.N,Net-(D2-Pad1)*%
X104188923Y-40377027D03*
%TD*%
%TO.P,C5,2*%
%TO.N,RST*%
%TA.AperFunction,SMDPad,CuDef*%
G36*
G01*
X118767247Y-102657488D02*
X119717247Y-102657488D01*
G75*
G02*
X119967247Y-102907488I0J-250000D01*
G01*
X119967247Y-103582488D01*
G75*
G02*
X119717247Y-103832488I-250000J0D01*
G01*
X118767247Y-103832488D01*
G75*
G02*
X118517247Y-103582488I0J250000D01*
G01*
X118517247Y-102907488D01*
G75*
G02*
X118767247Y-102657488I250000J0D01*
G01*
G37*
%TD.AperFunction*%
%TO.P,C5,1*%
%TO.N,Net-(C5-Pad1)*%
%TA.AperFunction,SMDPad,CuDef*%
G36*
G01*
X118767247Y-100582488D02*
X119717247Y-100582488D01*
G75*
G02*
X119967247Y-100832488I0J-250000D01*
G01*
X119967247Y-101507488D01*
G75*
G02*
X119717247Y-101757488I-250000J0D01*
G01*
X118767247Y-101757488D01*
G75*
G02*
X118517247Y-101507488I0J250000D01*
G01*
X118517247Y-100832488D01*
G75*
G02*
X118767247Y-100582488I250000J0D01*
G01*
G37*
%TD.AperFunction*%
%TD*%
D16*
%TO.P,D1,2*%
%TO.N,Net-(C1-Pad1)*%
X116555247Y-139993988D03*
%TO.P,D1,1*%
%TO.N,GND_B*%
X121955247Y-139993988D03*
%TD*%
D10*
%TO.P,D3,2*%
%TO.N,OUT_LED1_T*%
X106786157Y-55117030D03*
D15*
%TO.P,D3,1*%
%TO.N,Net-(D3-Pad1)*%
X104246157Y-55117030D03*
%TD*%
%TO.P,R31,2*%
%TO.N,GND_T*%
%TA.AperFunction,SMDPad,CuDef*%
G36*
G01*
X106400000Y-62450001D02*
X106400000Y-61549999D01*
G75*
G02*
X106649999Y-61300000I249999J0D01*
G01*
X107350001Y-61300000D01*
G75*
G02*
X107600000Y-61549999I0J-249999D01*
G01*
X107600000Y-62450001D01*
G75*
G02*
X107350001Y-62700000I-249999J0D01*
G01*
X106649999Y-62700000D01*
G75*
G02*
X106400000Y-62450001I0J249999D01*
G01*
G37*
%TD.AperFunction*%
%TO.P,R31,1*%
%TO.N,Net-(D2-Pad1)*%
%TA.AperFunction,SMDPad,CuDef*%
G36*
G01*
X104400000Y-62450001D02*
X104400000Y-61549999D01*
G75*
G02*
X104649999Y-61300000I249999J0D01*
G01*
X105350001Y-61300000D01*
G75*
G02*
X105600000Y-61549999I0J-249999D01*
G01*
X105600000Y-62450001D01*
G75*
G02*
X105350001Y-62700000I-249999J0D01*
G01*
X104649999Y-62700000D01*
G75*
G02*
X104400000Y-62450001I0J249999D01*
G01*
G37*
%TD.AperFunction*%
%TD*%
D11*
%TO.P,J4,10*%
%TO.N,LED0_A_B*%
X116889899Y-40785061D03*
%TO.P,J4,9*%
%TO.N,LED0*%
X114349899Y-40785061D03*
%TO.P,J4,8*%
%TO.N,LED1_A_B*%
X116889899Y-43325061D03*
%TO.P,J4,7*%
%TO.N,LED1*%
X114349899Y-43325061D03*
%TO.P,J4,6*%
%TO.N,LED2_A_B*%
X116889899Y-45865061D03*
%TO.P,J4,5*%
%TO.N,LED2*%
X114349899Y-45865061D03*
%TO.P,J4,4*%
%TO.N,PB0*%
X116889899Y-48405061D03*
%TO.P,J4,3*%
%TO.N,PD7*%
X114349899Y-48405061D03*
%TO.P,J4,2*%
%TO.N,Net-(F2-Pad2)*%
X116889899Y-50945061D03*
D12*
%TO.P,J4,1*%
%TO.N,VCC_B*%
X114349899Y-50945061D03*
%TD*%
%TO.P,R32,2*%
%TO.N,GND_T*%
%TA.AperFunction,SMDPad,CuDef*%
G36*
G01*
X105600000Y-64549999D02*
X105600000Y-65450001D01*
G75*
G02*
X105350001Y-65700000I-249999J0D01*
G01*
X104649999Y-65700000D01*
G75*
G02*
X104400000Y-65450001I0J249999D01*
G01*
X104400000Y-64549999D01*
G75*
G02*
X104649999Y-64300000I249999J0D01*
G01*
X105350001Y-64300000D01*
G75*
G02*
X105600000Y-64549999I0J-249999D01*
G01*
G37*
%TD.AperFunction*%
%TO.P,R32,1*%
%TO.N,Net-(D3-Pad1)*%
%TA.AperFunction,SMDPad,CuDef*%
G36*
G01*
X107600000Y-64549999D02*
X107600000Y-65450001D01*
G75*
G02*
X107350001Y-65700000I-249999J0D01*
G01*
X106649999Y-65700000D01*
G75*
G02*
X106400000Y-65450001I0J249999D01*
G01*
X106400000Y-64549999D01*
G75*
G02*
X106649999Y-64300000I249999J0D01*
G01*
X107350001Y-64300000D01*
G75*
G02*
X107600000Y-64549999I0J-249999D01*
G01*
G37*
%TD.AperFunction*%
%TD*%
D11*
%TO.P,J5,6*%
%TO.N,GND_B*%
X110860247Y-109721988D03*
%TO.P,J5,5*%
X110860247Y-107181988D03*
%TO.P,J5,4*%
%TO.N,VCC_B*%
X110860247Y-104641988D03*
%TO.P,J5,3*%
%TO.N,RXI*%
X110860247Y-102101988D03*
%TO.P,J5,2*%
%TO.N,TXO*%
X110860247Y-99561988D03*
D12*
%TO.P,J5,1*%
%TO.N,Net-(C5-Pad1)*%
X110860247Y-97021988D03*
%TD*%
D10*
%TO.P,D4,2*%
%TO.N,OUT_LED2_T*%
X106761460Y-69680369D03*
D15*
%TO.P,D4,1*%
%TO.N,Net-(D4-Pad1)*%
X104221460Y-69680369D03*
%TD*%
D17*
%TO.P,RV2,1*%
%TO.N,GND_T*%
X95895890Y-81500000D03*
%TO.P,RV2,2*%
%TO.N,POT2_T*%
X98395890Y-81500000D03*
%TO.P,RV2,3*%
%TO.N,VCC_T*%
X100895890Y-81500000D03*
D18*
%TO.P,RV2,*%
%TO.N,*%
X93595890Y-74000000D03*
X103195890Y-74000000D03*
%TD*%
D10*
%TO.P,J_OUT1,3*%
%TO.N,OUT1_T*%
X102870000Y-124620000D03*
%TO.P,J_OUT1,1*%
%TO.N,GND_T*%
X102870000Y-136020000D03*
%TO.P,J_OUT1,2*%
%TO.N,Net-(J_OUT1-Pad2)*%
X102870000Y-132920000D03*
%TD*%
%TO.P,J_IN1,3*%
%TO.N,IN1_T*%
X93980000Y-124620000D03*
%TO.P,J_IN1,1*%
%TO.N,GND_T*%
X93980000Y-136020000D03*
%TO.P,J_IN1,2*%
%TO.N,Net-(J_IN1-Pad2)*%
X93980000Y-132920000D03*
%TD*%
D19*
%TO.P,Q3,3*%
%TO.N,VCC_B*%
X125005247Y-40993988D03*
%TO.P,Q3,2*%
%TO.N,Net-(Q3-Pad2)*%
X124055247Y-38993988D03*
%TO.P,Q3,1*%
%TO.N,OUT_LED0_B*%
X125955247Y-38993988D03*
%TD*%
%TO.P,R20,2*%
%TO.N,OUT1*%
%TA.AperFunction,SMDPad,CuDef*%
G36*
G01*
X122792746Y-53717988D02*
X123692748Y-53717988D01*
G75*
G02*
X123942747Y-53967987I0J-249999D01*
G01*
X123942747Y-54667989D01*
G75*
G02*
X123692748Y-54917988I-249999J0D01*
G01*
X122792746Y-54917988D01*
G75*
G02*
X122542747Y-54667989I0J249999D01*
G01*
X122542747Y-53967987D01*
G75*
G02*
X122792746Y-53717988I249999J0D01*
G01*
G37*
%TD.AperFunction*%
%TO.P,R20,1*%
%TO.N,Net-(Q4-Pad2)*%
%TA.AperFunction,SMDPad,CuDef*%
G36*
G01*
X122792746Y-51717988D02*
X123692748Y-51717988D01*
G75*
G02*
X123942747Y-51967987I0J-249999D01*
G01*
X123942747Y-52667989D01*
G75*
G02*
X123692748Y-52917988I-249999J0D01*
G01*
X122792746Y-52917988D01*
G75*
G02*
X122542747Y-52667989I0J249999D01*
G01*
X122542747Y-51967987D01*
G75*
G02*
X122792746Y-51717988I249999J0D01*
G01*
G37*
%TD.AperFunction*%
%TD*%
%TO.P,R19,2*%
%TO.N,OUT1*%
%TA.AperFunction,SMDPad,CuDef*%
G36*
G01*
X117660248Y-119418488D02*
X116760246Y-119418488D01*
G75*
G02*
X116510247Y-119168489I0J249999D01*
G01*
X116510247Y-118468487D01*
G75*
G02*
X116760246Y-118218488I249999J0D01*
G01*
X117660248Y-118218488D01*
G75*
G02*
X117910247Y-118468487I0J-249999D01*
G01*
X117910247Y-119168489D01*
G75*
G02*
X117660248Y-119418488I-249999J0D01*
G01*
G37*
%TD.AperFunction*%
%TO.P,R19,1*%
%TO.N,OUT1_B*%
%TA.AperFunction,SMDPad,CuDef*%
G36*
G01*
X117660248Y-121418488D02*
X116760246Y-121418488D01*
G75*
G02*
X116510247Y-121168489I0J249999D01*
G01*
X116510247Y-120468487D01*
G75*
G02*
X116760246Y-120218488I249999J0D01*
G01*
X117660248Y-120218488D01*
G75*
G02*
X117910247Y-120468487I0J-249999D01*
G01*
X117910247Y-121168489D01*
G75*
G02*
X117660248Y-121418488I-249999J0D01*
G01*
G37*
%TD.AperFunction*%
%TD*%
%TO.P,R18,2*%
%TO.N,OUT2*%
%TA.AperFunction,SMDPad,CuDef*%
G36*
G01*
X113088248Y-119370988D02*
X112188246Y-119370988D01*
G75*
G02*
X111938247Y-119120989I0J249999D01*
G01*
X111938247Y-118420987D01*
G75*
G02*
X112188246Y-118170988I249999J0D01*
G01*
X113088248Y-118170988D01*
G75*
G02*
X113338247Y-118420987I0J-249999D01*
G01*
X113338247Y-119120989D01*
G75*
G02*
X113088248Y-119370988I-249999J0D01*
G01*
G37*
%TD.AperFunction*%
%TO.P,R18,1*%
%TO.N,Net-(Q5-Pad2)*%
%TA.AperFunction,SMDPad,CuDef*%
G36*
G01*
X113088248Y-121370988D02*
X112188246Y-121370988D01*
G75*
G02*
X111938247Y-121120989I0J249999D01*
G01*
X111938247Y-120420987D01*
G75*
G02*
X112188246Y-120170988I249999J0D01*
G01*
X113088248Y-120170988D01*
G75*
G02*
X113338247Y-120420987I0J-249999D01*
G01*
X113338247Y-121120989D01*
G75*
G02*
X113088248Y-121370988I-249999J0D01*
G01*
G37*
%TD.AperFunction*%
%TD*%
%TO.P,R17,2*%
%TO.N,OUT2*%
%TA.AperFunction,SMDPad,CuDef*%
G36*
G01*
X115247248Y-119418488D02*
X114347246Y-119418488D01*
G75*
G02*
X114097247Y-119168489I0J249999D01*
G01*
X114097247Y-118468487D01*
G75*
G02*
X114347246Y-118218488I249999J0D01*
G01*
X115247248Y-118218488D01*
G75*
G02*
X115497247Y-118468487I0J-249999D01*
G01*
X115497247Y-119168489D01*
G75*
G02*
X115247248Y-119418488I-249999J0D01*
G01*
G37*
%TD.AperFunction*%
%TO.P,R17,1*%
%TO.N,OUT2_B*%
%TA.AperFunction,SMDPad,CuDef*%
G36*
G01*
X115247248Y-121418488D02*
X114347246Y-121418488D01*
G75*
G02*
X114097247Y-121168489I0J249999D01*
G01*
X114097247Y-120468487D01*
G75*
G02*
X114347246Y-120218488I249999J0D01*
G01*
X115247248Y-120218488D01*
G75*
G02*
X115497247Y-120468487I0J-249999D01*
G01*
X115497247Y-121168489D01*
G75*
G02*
X115247248Y-121418488I-249999J0D01*
G01*
G37*
%TD.AperFunction*%
%TD*%
%TO.P,R16,2*%
%TO.N,GND_B*%
%TA.AperFunction,SMDPad,CuDef*%
G36*
G01*
X115555247Y-59297487D02*
X115555247Y-60197489D01*
G75*
G02*
X115305248Y-60447488I-249999J0D01*
G01*
X114605246Y-60447488D01*
G75*
G02*
X114355247Y-60197489I0J249999D01*
G01*
X114355247Y-59297487D01*
G75*
G02*
X114605246Y-59047488I249999J0D01*
G01*
X115305248Y-59047488D01*
G75*
G02*
X115555247Y-59297487I0J-249999D01*
G01*
G37*
%TD.AperFunction*%
%TO.P,R16,1*%
%TO.N,Net-(Q2-Pad2)*%
%TA.AperFunction,SMDPad,CuDef*%
G36*
G01*
X117555247Y-59297487D02*
X117555247Y-60197489D01*
G75*
G02*
X117305248Y-60447488I-249999J0D01*
G01*
X116605246Y-60447488D01*
G75*
G02*
X116355247Y-60197489I0J249999D01*
G01*
X116355247Y-59297487D01*
G75*
G02*
X116605246Y-59047488I249999J0D01*
G01*
X117305248Y-59047488D01*
G75*
G02*
X117555247Y-59297487I0J-249999D01*
G01*
G37*
%TD.AperFunction*%
%TD*%
%TO.P,R15,2*%
%TO.N,CLOCK_B*%
%TA.AperFunction,SMDPad,CuDef*%
G36*
G01*
X119134225Y-91956740D02*
X120034227Y-91956740D01*
G75*
G02*
X120284226Y-92206739I0J-249999D01*
G01*
X120284226Y-92906741D01*
G75*
G02*
X120034227Y-93156740I-249999J0D01*
G01*
X119134225Y-93156740D01*
G75*
G02*
X118884226Y-92906741I0J249999D01*
G01*
X118884226Y-92206739D01*
G75*
G02*
X119134225Y-91956740I249999J0D01*
G01*
G37*
%TD.AperFunction*%
%TO.P,R15,1*%
%TO.N,Net-(Q2-Pad2)*%
%TA.AperFunction,SMDPad,CuDef*%
G36*
G01*
X119134225Y-89956740D02*
X120034227Y-89956740D01*
G75*
G02*
X120284226Y-90206739I0J-249999D01*
G01*
X120284226Y-90906741D01*
G75*
G02*
X120034227Y-91156740I-249999J0D01*
G01*
X119134225Y-91156740D01*
G75*
G02*
X118884226Y-90906741I0J249999D01*
G01*
X118884226Y-90206739D01*
G75*
G02*
X119134225Y-89956740I249999J0D01*
G01*
G37*
%TD.AperFunction*%
%TD*%
%TO.P,R14,2*%
%TO.N,CLOCK*%
%TA.AperFunction,SMDPad,CuDef*%
G36*
G01*
X124518248Y-119402488D02*
X123618246Y-119402488D01*
G75*
G02*
X123368247Y-119152489I0J249999D01*
G01*
X123368247Y-118452487D01*
G75*
G02*
X123618246Y-118202488I249999J0D01*
G01*
X124518248Y-118202488D01*
G75*
G02*
X124768247Y-118452487I0J-249999D01*
G01*
X124768247Y-119152489D01*
G75*
G02*
X124518248Y-119402488I-249999J0D01*
G01*
G37*
%TD.AperFunction*%
%TO.P,R14,1*%
%TO.N,GND_B*%
%TA.AperFunction,SMDPad,CuDef*%
G36*
G01*
X124518248Y-121402488D02*
X123618246Y-121402488D01*
G75*
G02*
X123368247Y-121152489I0J249999D01*
G01*
X123368247Y-120452487D01*
G75*
G02*
X123618246Y-120202488I249999J0D01*
G01*
X124518248Y-120202488D01*
G75*
G02*
X124768247Y-120452487I0J-249999D01*
G01*
X124768247Y-121152489D01*
G75*
G02*
X124518248Y-121402488I-249999J0D01*
G01*
G37*
%TD.AperFunction*%
%TD*%
%TO.P,R13,2*%
%TO.N,GND_B*%
%TA.AperFunction,SMDPad,CuDef*%
G36*
G01*
X114405248Y-64490988D02*
X113505246Y-64490988D01*
G75*
G02*
X113255247Y-64240989I0J249999D01*
G01*
X113255247Y-63540987D01*
G75*
G02*
X113505246Y-63290988I249999J0D01*
G01*
X114405248Y-63290988D01*
G75*
G02*
X114655247Y-63540987I0J-249999D01*
G01*
X114655247Y-64240989D01*
G75*
G02*
X114405248Y-64490988I-249999J0D01*
G01*
G37*
%TD.AperFunction*%
%TO.P,R13,1*%
%TO.N,Net-(Q1-Pad2)*%
%TA.AperFunction,SMDPad,CuDef*%
G36*
G01*
X114405248Y-66490988D02*
X113505246Y-66490988D01*
G75*
G02*
X113255247Y-66240989I0J249999D01*
G01*
X113255247Y-65540987D01*
G75*
G02*
X113505246Y-65290988I249999J0D01*
G01*
X114405248Y-65290988D01*
G75*
G02*
X114655247Y-65540987I0J-249999D01*
G01*
X114655247Y-66240989D01*
G75*
G02*
X114405248Y-66490988I-249999J0D01*
G01*
G37*
%TD.AperFunction*%
%TD*%
D10*
%TO.P,D9,2*%
%TO.N,LED2_A_T*%
X90039574Y-69713968D03*
D15*
%TO.P,D9,1*%
%TO.N,Net-(D9-Pad1)*%
X92579574Y-69713968D03*
%TD*%
D10*
%TO.P,D8,2*%
%TO.N,LED1_A_T*%
X90118652Y-55020267D03*
D15*
%TO.P,D8,1*%
%TO.N,Net-(D8-Pad1)*%
X92658652Y-55020267D03*
%TD*%
%TO.P,R12,2*%
%TO.N,RESET_B*%
%TA.AperFunction,SMDPad,CuDef*%
G36*
G01*
X113505246Y-69656488D02*
X114405248Y-69656488D01*
G75*
G02*
X114655247Y-69906487I0J-249999D01*
G01*
X114655247Y-70606489D01*
G75*
G02*
X114405248Y-70856488I-249999J0D01*
G01*
X113505246Y-70856488D01*
G75*
G02*
X113255247Y-70606489I0J249999D01*
G01*
X113255247Y-69906487D01*
G75*
G02*
X113505246Y-69656488I249999J0D01*
G01*
G37*
%TD.AperFunction*%
%TO.P,R12,1*%
%TO.N,Net-(Q1-Pad2)*%
%TA.AperFunction,SMDPad,CuDef*%
G36*
G01*
X113505246Y-67656488D02*
X114405248Y-67656488D01*
G75*
G02*
X114655247Y-67906487I0J-249999D01*
G01*
X114655247Y-68606489D01*
G75*
G02*
X114405248Y-68856488I-249999J0D01*
G01*
X113505246Y-68856488D01*
G75*
G02*
X113255247Y-68606489I0J249999D01*
G01*
X113255247Y-67906487D01*
G75*
G02*
X113505246Y-67656488I249999J0D01*
G01*
G37*
%TD.AperFunction*%
%TD*%
%TO.P,R11,2*%
%TO.N,RESET*%
%TA.AperFunction,SMDPad,CuDef*%
G36*
G01*
X122168748Y-119402488D02*
X121268746Y-119402488D01*
G75*
G02*
X121018747Y-119152489I0J249999D01*
G01*
X121018747Y-118452487D01*
G75*
G02*
X121268746Y-118202488I249999J0D01*
G01*
X122168748Y-118202488D01*
G75*
G02*
X122418747Y-118452487I0J-249999D01*
G01*
X122418747Y-119152489D01*
G75*
G02*
X122168748Y-119402488I-249999J0D01*
G01*
G37*
%TD.AperFunction*%
%TO.P,R11,1*%
%TO.N,GND_B*%
%TA.AperFunction,SMDPad,CuDef*%
G36*
G01*
X122168748Y-121402488D02*
X121268746Y-121402488D01*
G75*
G02*
X121018747Y-121152489I0J249999D01*
G01*
X121018747Y-120452487D01*
G75*
G02*
X121268746Y-120202488I249999J0D01*
G01*
X122168748Y-120202488D01*
G75*
G02*
X122418747Y-120452487I0J-249999D01*
G01*
X122418747Y-121152489D01*
G75*
G02*
X122168748Y-121402488I-249999J0D01*
G01*
G37*
%TD.AperFunction*%
%TD*%
%TO.P,R6,2*%
%TO.N,IN0_B*%
%TA.AperFunction,SMDPad,CuDef*%
G36*
G01*
X120505246Y-69393988D02*
X121405248Y-69393988D01*
G75*
G02*
X121655247Y-69643987I0J-249999D01*
G01*
X121655247Y-70343989D01*
G75*
G02*
X121405248Y-70593988I-249999J0D01*
G01*
X120505246Y-70593988D01*
G75*
G02*
X120255247Y-70343989I0J249999D01*
G01*
X120255247Y-69643987D01*
G75*
G02*
X120505246Y-69393988I249999J0D01*
G01*
G37*
%TD.AperFunction*%
%TO.P,R6,1*%
%TO.N,Net-(R6-Pad1)*%
%TA.AperFunction,SMDPad,CuDef*%
G36*
G01*
X120505246Y-67393988D02*
X121405248Y-67393988D01*
G75*
G02*
X121655247Y-67643987I0J-249999D01*
G01*
X121655247Y-68343989D01*
G75*
G02*
X121405248Y-68593988I-249999J0D01*
G01*
X120505246Y-68593988D01*
G75*
G02*
X120255247Y-68343989I0J249999D01*
G01*
X120255247Y-67643987D01*
G75*
G02*
X120505246Y-67393988I249999J0D01*
G01*
G37*
%TD.AperFunction*%
%TD*%
%TO.P,R5,2*%
%TO.N,IN1_B*%
%TA.AperFunction,SMDPad,CuDef*%
G36*
G01*
X120031875Y-56051834D02*
X120031875Y-56951836D01*
G75*
G02*
X119781876Y-57201835I-249999J0D01*
G01*
X119081874Y-57201835D01*
G75*
G02*
X118831875Y-56951836I0J249999D01*
G01*
X118831875Y-56051834D01*
G75*
G02*
X119081874Y-55801835I249999J0D01*
G01*
X119781876Y-55801835D01*
G75*
G02*
X120031875Y-56051834I0J-249999D01*
G01*
G37*
%TD.AperFunction*%
%TO.P,R5,1*%
%TO.N,Net-(R5-Pad1)*%
%TA.AperFunction,SMDPad,CuDef*%
G36*
G01*
X122031875Y-56051834D02*
X122031875Y-56951836D01*
G75*
G02*
X121781876Y-57201835I-249999J0D01*
G01*
X121081874Y-57201835D01*
G75*
G02*
X120831875Y-56951836I0J249999D01*
G01*
X120831875Y-56051834D01*
G75*
G02*
X121081874Y-55801835I249999J0D01*
G01*
X121781876Y-55801835D01*
G75*
G02*
X122031875Y-56051834I0J-249999D01*
G01*
G37*
%TD.AperFunction*%
%TD*%
%TO.P,R4,2*%
%TO.N,IN2_B*%
%TA.AperFunction,SMDPad,CuDef*%
G36*
G01*
X126412246Y-69393988D02*
X127312248Y-69393988D01*
G75*
G02*
X127562247Y-69643987I0J-249999D01*
G01*
X127562247Y-70343989D01*
G75*
G02*
X127312248Y-70593988I-249999J0D01*
G01*
X126412246Y-70593988D01*
G75*
G02*
X126162247Y-70343989I0J249999D01*
G01*
X126162247Y-69643987D01*
G75*
G02*
X126412246Y-69393988I249999J0D01*
G01*
G37*
%TD.AperFunction*%
%TO.P,R4,1*%
%TO.N,Net-(R4-Pad1)*%
%TA.AperFunction,SMDPad,CuDef*%
G36*
G01*
X126412246Y-67393988D02*
X127312248Y-67393988D01*
G75*
G02*
X127562247Y-67643987I0J-249999D01*
G01*
X127562247Y-68343989D01*
G75*
G02*
X127312248Y-68593988I-249999J0D01*
G01*
X126412246Y-68593988D01*
G75*
G02*
X126162247Y-68343989I0J249999D01*
G01*
X126162247Y-67643987D01*
G75*
G02*
X126412246Y-67393988I249999J0D01*
G01*
G37*
%TD.AperFunction*%
%TD*%
%TO.P,R3,2*%
%TO.N,GND_B*%
%TA.AperFunction,SMDPad,CuDef*%
G36*
G01*
X114294748Y-76825988D02*
X113394746Y-76825988D01*
G75*
G02*
X113144747Y-76575989I0J249999D01*
G01*
X113144747Y-75875987D01*
G75*
G02*
X113394746Y-75625988I249999J0D01*
G01*
X114294748Y-75625988D01*
G75*
G02*
X114544747Y-75875987I0J-249999D01*
G01*
X114544747Y-76575989D01*
G75*
G02*
X114294748Y-76825988I-249999J0D01*
G01*
G37*
%TD.AperFunction*%
%TO.P,R3,1*%
%TO.N,IN0_B*%
%TA.AperFunction,SMDPad,CuDef*%
G36*
G01*
X114294748Y-78825988D02*
X113394746Y-78825988D01*
G75*
G02*
X113144747Y-78575989I0J249999D01*
G01*
X113144747Y-77875987D01*
G75*
G02*
X113394746Y-77625988I249999J0D01*
G01*
X114294748Y-77625988D01*
G75*
G02*
X114544747Y-77875987I0J-249999D01*
G01*
X114544747Y-78575989D01*
G75*
G02*
X114294748Y-78825988I-249999J0D01*
G01*
G37*
%TD.AperFunction*%
%TD*%
%TO.P,R2,2*%
%TO.N,GND_B*%
%TA.AperFunction,SMDPad,CuDef*%
G36*
G01*
X115673105Y-56079915D02*
X115673105Y-56979917D01*
G75*
G02*
X115423106Y-57229916I-249999J0D01*
G01*
X114723104Y-57229916D01*
G75*
G02*
X114473105Y-56979917I0J249999D01*
G01*
X114473105Y-56079915D01*
G75*
G02*
X114723104Y-55829916I249999J0D01*
G01*
X115423106Y-55829916D01*
G75*
G02*
X115673105Y-56079915I0J-249999D01*
G01*
G37*
%TD.AperFunction*%
%TO.P,R2,1*%
%TO.N,IN1_B*%
%TA.AperFunction,SMDPad,CuDef*%
G36*
G01*
X117673105Y-56079915D02*
X117673105Y-56979917D01*
G75*
G02*
X117423106Y-57229916I-249999J0D01*
G01*
X116723104Y-57229916D01*
G75*
G02*
X116473105Y-56979917I0J249999D01*
G01*
X116473105Y-56079915D01*
G75*
G02*
X116723104Y-55829916I249999J0D01*
G01*
X117423106Y-55829916D01*
G75*
G02*
X117673105Y-56079915I0J-249999D01*
G01*
G37*
%TD.AperFunction*%
%TD*%
%TO.P,R1,2*%
%TO.N,RST*%
%TA.AperFunction,SMDPad,CuDef*%
G36*
G01*
X116506246Y-102581488D02*
X117406248Y-102581488D01*
G75*
G02*
X117656247Y-102831487I0J-249999D01*
G01*
X117656247Y-103531489D01*
G75*
G02*
X117406248Y-103781488I-249999J0D01*
G01*
X116506246Y-103781488D01*
G75*
G02*
X116256247Y-103531489I0J249999D01*
G01*
X116256247Y-102831487D01*
G75*
G02*
X116506246Y-102581488I249999J0D01*
G01*
G37*
%TD.AperFunction*%
%TO.P,R1,1*%
%TO.N,VCC_B*%
%TA.AperFunction,SMDPad,CuDef*%
G36*
G01*
X116506246Y-100581488D02*
X117406248Y-100581488D01*
G75*
G02*
X117656247Y-100831487I0J-249999D01*
G01*
X117656247Y-101531489D01*
G75*
G02*
X117406248Y-101781488I-249999J0D01*
G01*
X116506246Y-101781488D01*
G75*
G02*
X116256247Y-101531489I0J249999D01*
G01*
X116256247Y-100831487D01*
G75*
G02*
X116506246Y-100581488I249999J0D01*
G01*
G37*
%TD.AperFunction*%
%TD*%
D19*
%TO.P,Q5,3*%
%TO.N,VCC_B*%
X125798747Y-101355988D03*
%TO.P,Q5,2*%
%TO.N,Net-(Q5-Pad2)*%
X126748747Y-103355988D03*
%TO.P,Q5,1*%
%TO.N,OUT_LED2_B*%
X124848747Y-103355988D03*
%TD*%
%TO.P,Q4,3*%
%TO.N,VCC_B*%
X122578510Y-47943421D03*
%TO.P,Q4,2*%
%TO.N,Net-(Q4-Pad2)*%
X123528510Y-49943421D03*
%TO.P,Q4,1*%
%TO.N,OUT_LED1_B*%
X121628510Y-49943421D03*
%TD*%
%TO.P,C1,2*%
%TO.N,GND_B*%
%TA.AperFunction,SMDPad,CuDef*%
G36*
G01*
X113855247Y-134543988D02*
X113855247Y-133443988D01*
G75*
G02*
X114105247Y-133193988I250000J0D01*
G01*
X116605247Y-133193988D01*
G75*
G02*
X116855247Y-133443988I0J-250000D01*
G01*
X116855247Y-134543988D01*
G75*
G02*
X116605247Y-134793988I-250000J0D01*
G01*
X114105247Y-134793988D01*
G75*
G02*
X113855247Y-134543988I0J250000D01*
G01*
G37*
%TD.AperFunction*%
%TO.P,C1,1*%
%TO.N,Net-(C1-Pad1)*%
%TA.AperFunction,SMDPad,CuDef*%
G36*
G01*
X109455247Y-134543988D02*
X109455247Y-133443988D01*
G75*
G02*
X109705247Y-133193988I250000J0D01*
G01*
X112205247Y-133193988D01*
G75*
G02*
X112455247Y-133443988I0J-250000D01*
G01*
X112455247Y-134543988D01*
G75*
G02*
X112205247Y-134793988I-250000J0D01*
G01*
X109705247Y-134793988D01*
G75*
G02*
X109455247Y-134543988I0J250000D01*
G01*
G37*
%TD.AperFunction*%
%TD*%
D10*
%TO.P,J_CLOCK0,3*%
%TO.N,CLOCK_T*%
X94016116Y-96975380D03*
%TO.P,J_CLOCK0,1*%
%TO.N,GND_T*%
X94016116Y-108375380D03*
%TO.P,J_CLOCK0,2*%
%TO.N,Net-(J_CLOCK0-Pad2)*%
X94016116Y-105275380D03*
%TD*%
D20*
%TO.P,Q2,3*%
%TO.N,VCC_B*%
X123628510Y-90913211D03*
%TO.P,Q2,2*%
%TO.N,Net-(Q2-Pad2)*%
X121628510Y-91863211D03*
%TO.P,Q2,1*%
%TO.N,CLOCK*%
X121628510Y-89963211D03*
%TD*%
%TO.P,R28,2*%
%TO.N,GND_B*%
%TA.AperFunction,SMDPad,CuDef*%
G36*
G01*
X124405248Y-68593988D02*
X123505246Y-68593988D01*
G75*
G02*
X123255247Y-68343989I0J249999D01*
G01*
X123255247Y-67643987D01*
G75*
G02*
X123505246Y-67393988I249999J0D01*
G01*
X124405248Y-67393988D01*
G75*
G02*
X124655247Y-67643987I0J-249999D01*
G01*
X124655247Y-68343989D01*
G75*
G02*
X124405248Y-68593988I-249999J0D01*
G01*
G37*
%TD.AperFunction*%
%TO.P,R28,1*%
%TO.N,IN2_B*%
%TA.AperFunction,SMDPad,CuDef*%
G36*
G01*
X124405248Y-70593988D02*
X123505246Y-70593988D01*
G75*
G02*
X123255247Y-70343989I0J249999D01*
G01*
X123255247Y-69643987D01*
G75*
G02*
X123505246Y-69393988I249999J0D01*
G01*
X124405248Y-69393988D01*
G75*
G02*
X124655247Y-69643987I0J-249999D01*
G01*
X124655247Y-70343989D01*
G75*
G02*
X124405248Y-70593988I-249999J0D01*
G01*
G37*
%TD.AperFunction*%
%TD*%
%TO.P,C2,2*%
%TO.N,GND_B*%
%TA.AperFunction,SMDPad,CuDef*%
G36*
G01*
X122367747Y-136468988D02*
X122367747Y-135518988D01*
G75*
G02*
X122617747Y-135268988I250000J0D01*
G01*
X123292747Y-135268988D01*
G75*
G02*
X123542747Y-135518988I0J-250000D01*
G01*
X123542747Y-136468988D01*
G75*
G02*
X123292747Y-136718988I-250000J0D01*
G01*
X122617747Y-136718988D01*
G75*
G02*
X122367747Y-136468988I0J250000D01*
G01*
G37*
%TD.AperFunction*%
%TO.P,C2,1*%
%TO.N,Net-(C1-Pad1)*%
%TA.AperFunction,SMDPad,CuDef*%
G36*
G01*
X120292747Y-136468988D02*
X120292747Y-135518988D01*
G75*
G02*
X120542747Y-135268988I250000J0D01*
G01*
X121217747Y-135268988D01*
G75*
G02*
X121467747Y-135518988I0J-250000D01*
G01*
X121467747Y-136468988D01*
G75*
G02*
X121217747Y-136718988I-250000J0D01*
G01*
X120542747Y-136718988D01*
G75*
G02*
X120292747Y-136468988I0J250000D01*
G01*
G37*
%TD.AperFunction*%
%TD*%
%TO.P,C3,2*%
%TO.N,GND_B*%
%TA.AperFunction,SMDPad,CuDef*%
G36*
G01*
X122442747Y-133468988D02*
X122442747Y-132518988D01*
G75*
G02*
X122692747Y-132268988I250000J0D01*
G01*
X123367747Y-132268988D01*
G75*
G02*
X123617747Y-132518988I0J-250000D01*
G01*
X123617747Y-133468988D01*
G75*
G02*
X123367747Y-133718988I-250000J0D01*
G01*
X122692747Y-133718988D01*
G75*
G02*
X122442747Y-133468988I0J250000D01*
G01*
G37*
%TD.AperFunction*%
%TO.P,C3,1*%
%TO.N,VCC_B*%
%TA.AperFunction,SMDPad,CuDef*%
G36*
G01*
X120367747Y-133468988D02*
X120367747Y-132518988D01*
G75*
G02*
X120617747Y-132268988I250000J0D01*
G01*
X121292747Y-132268988D01*
G75*
G02*
X121542747Y-132518988I0J-250000D01*
G01*
X121542747Y-133468988D01*
G75*
G02*
X121292747Y-133718988I-250000J0D01*
G01*
X120617747Y-133718988D01*
G75*
G02*
X120367747Y-133468988I0J250000D01*
G01*
G37*
%TD.AperFunction*%
%TD*%
D10*
%TO.P,D5,2*%
%TO.N,CLOCK_LED_T*%
X90170000Y-82931000D03*
D15*
%TO.P,D5,1*%
%TO.N,Net-(D5-Pad1)*%
X92710000Y-82931000D03*
%TD*%
%TO.P,F2,2*%
%TO.N,Net-(F2-Pad2)*%
%TA.AperFunction,SMDPad,CuDef*%
G36*
G01*
X113380247Y-54212489D02*
X113380247Y-53312487D01*
G75*
G02*
X113630246Y-53062488I249999J0D01*
G01*
X114280248Y-53062488D01*
G75*
G02*
X114530247Y-53312487I0J-249999D01*
G01*
X114530247Y-54212489D01*
G75*
G02*
X114280248Y-54462488I-249999J0D01*
G01*
X113630246Y-54462488D01*
G75*
G02*
X113380247Y-54212489I0J249999D01*
G01*
G37*
%TD.AperFunction*%
%TO.P,F2,1*%
%TO.N,GND_B*%
%TA.AperFunction,SMDPad,CuDef*%
G36*
G01*
X111330247Y-54212489D02*
X111330247Y-53312487D01*
G75*
G02*
X111580246Y-53062488I249999J0D01*
G01*
X112230248Y-53062488D01*
G75*
G02*
X112480247Y-53312487I0J-249999D01*
G01*
X112480247Y-54212489D01*
G75*
G02*
X112230248Y-54462488I-249999J0D01*
G01*
X111580246Y-54462488D01*
G75*
G02*
X111330247Y-54212489I0J249999D01*
G01*
G37*
%TD.AperFunction*%
%TD*%
D10*
%TO.P,D6,2*%
%TO.N,RESET_LED_T*%
X106650890Y-82917387D03*
D15*
%TO.P,D6,1*%
%TO.N,Net-(D6-Pad1)*%
X104110890Y-82917387D03*
%TD*%
%TO.P,R33,2*%
%TO.N,GND_T*%
%TA.AperFunction,SMDPad,CuDef*%
G36*
G01*
X101813382Y-88110252D02*
X101813382Y-89010254D01*
G75*
G02*
X101563383Y-89260253I-249999J0D01*
G01*
X100863381Y-89260253D01*
G75*
G02*
X100613382Y-89010254I0J249999D01*
G01*
X100613382Y-88110252D01*
G75*
G02*
X100863381Y-87860253I249999J0D01*
G01*
X101563383Y-87860253D01*
G75*
G02*
X101813382Y-88110252I0J-249999D01*
G01*
G37*
%TD.AperFunction*%
%TO.P,R33,1*%
%TO.N,Net-(D4-Pad1)*%
%TA.AperFunction,SMDPad,CuDef*%
G36*
G01*
X103813382Y-88110252D02*
X103813382Y-89010254D01*
G75*
G02*
X103563383Y-89260253I-249999J0D01*
G01*
X102863381Y-89260253D01*
G75*
G02*
X102613382Y-89010254I0J249999D01*
G01*
X102613382Y-88110252D01*
G75*
G02*
X102863381Y-87860253I249999J0D01*
G01*
X103563383Y-87860253D01*
G75*
G02*
X103813382Y-88110252I0J-249999D01*
G01*
G37*
%TD.AperFunction*%
%TD*%
D12*
%TO.P,J_POWER0,1*%
%TO.N,Net-(F1-Pad2)*%
X110796747Y-144011988D03*
D11*
%TO.P,J_POWER0,2*%
X110796747Y-146551988D03*
%TO.P,J_POWER0,3*%
%TO.N,GND_B*%
X113336747Y-144011988D03*
%TO.P,J_POWER0,4*%
X113336747Y-146551988D03*
%TO.P,J_POWER0,5*%
X115876747Y-144011988D03*
%TO.P,J_POWER0,6*%
X115876747Y-146551988D03*
%TO.P,J_POWER0,7*%
X118416747Y-144011988D03*
%TO.P,J_POWER0,8*%
X118416747Y-146551988D03*
%TO.P,J_POWER0,9*%
%TO.N,Net-(J_POWER0-Pad10)*%
X120956747Y-144011988D03*
%TO.P,J_POWER0,10*%
X120956747Y-146551988D03*
%TD*%
%TO.P,R25,2*%
%TO.N,GND_T*%
%TA.AperFunction,SMDPad,CuDef*%
G36*
G01*
X97692863Y-86535982D02*
X97692863Y-87435984D01*
G75*
G02*
X97442864Y-87685983I-249999J0D01*
G01*
X96742862Y-87685983D01*
G75*
G02*
X96492863Y-87435984I0J249999D01*
G01*
X96492863Y-86535982D01*
G75*
G02*
X96742862Y-86285983I249999J0D01*
G01*
X97442864Y-86285983D01*
G75*
G02*
X97692863Y-86535982I0J-249999D01*
G01*
G37*
%TD.AperFunction*%
%TO.P,R25,1*%
%TO.N,Net-(D9-Pad1)*%
%TA.AperFunction,SMDPad,CuDef*%
G36*
G01*
X99692863Y-86535982D02*
X99692863Y-87435984D01*
G75*
G02*
X99442864Y-87685983I-249999J0D01*
G01*
X98742862Y-87685983D01*
G75*
G02*
X98492863Y-87435984I0J249999D01*
G01*
X98492863Y-86535982D01*
G75*
G02*
X98742862Y-86285983I249999J0D01*
G01*
X99442864Y-86285983D01*
G75*
G02*
X99692863Y-86535982I0J-249999D01*
G01*
G37*
%TD.AperFunction*%
%TD*%
D21*
%TO.P,Y1,3*%
%TO.N,Net-(U1-Pad8)*%
X110923747Y-115423988D03*
%TO.P,Y1,2*%
%TO.N,GND_B*%
X110923747Y-114223988D03*
%TO.P,Y1,1*%
%TO.N,Net-(U1-Pad7)*%
X110923747Y-113023988D03*
%TD*%
%TO.P,R24,2*%
%TO.N,GND_T*%
%TA.AperFunction,SMDPad,CuDef*%
G36*
G01*
X90600000Y-64549999D02*
X90600000Y-65450001D01*
G75*
G02*
X90350001Y-65700000I-249999J0D01*
G01*
X89649999Y-65700000D01*
G75*
G02*
X89400000Y-65450001I0J249999D01*
G01*
X89400000Y-64549999D01*
G75*
G02*
X89649999Y-64300000I249999J0D01*
G01*
X90350001Y-64300000D01*
G75*
G02*
X90600000Y-64549999I0J-249999D01*
G01*
G37*
%TD.AperFunction*%
%TO.P,R24,1*%
%TO.N,Net-(D8-Pad1)*%
%TA.AperFunction,SMDPad,CuDef*%
G36*
G01*
X92600000Y-64549999D02*
X92600000Y-65450001D01*
G75*
G02*
X92350001Y-65700000I-249999J0D01*
G01*
X91649999Y-65700000D01*
G75*
G02*
X91400000Y-65450001I0J249999D01*
G01*
X91400000Y-64549999D01*
G75*
G02*
X91649999Y-64300000I249999J0D01*
G01*
X92350001Y-64300000D01*
G75*
G02*
X92600000Y-64549999I0J-249999D01*
G01*
G37*
%TD.AperFunction*%
%TD*%
D10*
%TO.P,J_RESET0,3*%
%TO.N,RESET_T*%
X102906116Y-96975380D03*
%TO.P,J_RESET0,1*%
%TO.N,GND_T*%
X102906116Y-108375380D03*
%TO.P,J_RESET0,2*%
%TO.N,Net-(J_RESET0-Pad2)*%
X102906116Y-105275380D03*
%TD*%
D22*
%TO.P,U3,4*%
%TO.N,N/C*%
X110440747Y-126993988D03*
D23*
%TO.P,U3,2*%
%TO.N,GND_B*%
X116740747Y-126993988D03*
%TO.P,U3,3*%
%TO.N,VCC_B*%
X116740747Y-124693988D03*
%TO.P,U3,1*%
%TO.N,Net-(C1-Pad1)*%
X116740747Y-129293988D03*
%TD*%
D10*
%TO.P,D7,2*%
%TO.N,LED0_A_T*%
X90097039Y-40400894D03*
D15*
%TO.P,D7,1*%
%TO.N,Net-(D7-Pad1)*%
X92637039Y-40400894D03*
%TD*%
D17*
%TO.P,RV0,1*%
%TO.N,GND_T*%
X95895890Y-51500000D03*
%TO.P,RV0,2*%
%TO.N,POT0_T*%
X98395890Y-51500000D03*
%TO.P,RV0,3*%
%TO.N,VCC_T*%
X100895890Y-51500000D03*
D18*
%TO.P,RV0,*%
%TO.N,*%
X93595890Y-44000000D03*
X103195890Y-44000000D03*
%TD*%
%TO.P,R26,2*%
%TO.N,GND_T*%
%TA.AperFunction,SMDPad,CuDef*%
G36*
G01*
X102613382Y-92687130D02*
X102613382Y-91787128D01*
G75*
G02*
X102863381Y-91537129I249999J0D01*
G01*
X103563383Y-91537129D01*
G75*
G02*
X103813382Y-91787128I0J-249999D01*
G01*
X103813382Y-92687130D01*
G75*
G02*
X103563383Y-92937129I-249999J0D01*
G01*
X102863381Y-92937129D01*
G75*
G02*
X102613382Y-92687130I0J249999D01*
G01*
G37*
%TD.AperFunction*%
%TO.P,R26,1*%
%TO.N,Net-(D6-Pad1)*%
%TA.AperFunction,SMDPad,CuDef*%
G36*
G01*
X100613382Y-92687130D02*
X100613382Y-91787128D01*
G75*
G02*
X100863381Y-91537129I249999J0D01*
G01*
X101563383Y-91537129D01*
G75*
G02*
X101813382Y-91787128I0J-249999D01*
G01*
X101813382Y-92687130D01*
G75*
G02*
X101563383Y-92937129I-249999J0D01*
G01*
X100863381Y-92937129D01*
G75*
G02*
X100613382Y-92687130I0J249999D01*
G01*
G37*
%TD.AperFunction*%
%TD*%
%TO.P,R27,2*%
%TO.N,GND_T*%
%TA.AperFunction,SMDPad,CuDef*%
G36*
G01*
X98464828Y-91447856D02*
X98464828Y-90547854D01*
G75*
G02*
X98714827Y-90297855I249999J0D01*
G01*
X99414829Y-90297855D01*
G75*
G02*
X99664828Y-90547854I0J-249999D01*
G01*
X99664828Y-91447856D01*
G75*
G02*
X99414829Y-91697855I-249999J0D01*
G01*
X98714827Y-91697855D01*
G75*
G02*
X98464828Y-91447856I0J249999D01*
G01*
G37*
%TD.AperFunction*%
%TO.P,R27,1*%
%TO.N,Net-(D5-Pad1)*%
%TA.AperFunction,SMDPad,CuDef*%
G36*
G01*
X96464828Y-91447856D02*
X96464828Y-90547854D01*
G75*
G02*
X96714827Y-90297855I249999J0D01*
G01*
X97414829Y-90297855D01*
G75*
G02*
X97664828Y-90547854I0J-249999D01*
G01*
X97664828Y-91447856D01*
G75*
G02*
X97414829Y-91697855I-249999J0D01*
G01*
X96714827Y-91697855D01*
G75*
G02*
X96464828Y-91447856I0J249999D01*
G01*
G37*
%TD.AperFunction*%
%TD*%
%TO.P,R23,2*%
%TO.N,GND_T*%
%TA.AperFunction,SMDPad,CuDef*%
G36*
G01*
X91400000Y-62450001D02*
X91400000Y-61549999D01*
G75*
G02*
X91649999Y-61300000I249999J0D01*
G01*
X92350001Y-61300000D01*
G75*
G02*
X92600000Y-61549999I0J-249999D01*
G01*
X92600000Y-62450001D01*
G75*
G02*
X92350001Y-62700000I-249999J0D01*
G01*
X91649999Y-62700000D01*
G75*
G02*
X91400000Y-62450001I0J249999D01*
G01*
G37*
%TD.AperFunction*%
%TO.P,R23,1*%
%TO.N,Net-(D7-Pad1)*%
%TA.AperFunction,SMDPad,CuDef*%
G36*
G01*
X89400000Y-62450001D02*
X89400000Y-61549999D01*
G75*
G02*
X89649999Y-61300000I249999J0D01*
G01*
X90350001Y-61300000D01*
G75*
G02*
X90600000Y-61549999I0J-249999D01*
G01*
X90600000Y-62450001D01*
G75*
G02*
X90350001Y-62700000I-249999J0D01*
G01*
X89649999Y-62700000D01*
G75*
G02*
X89400000Y-62450001I0J249999D01*
G01*
G37*
%TD.AperFunction*%
%TD*%
%TO.P,R22,2*%
%TO.N,OUT0*%
%TA.AperFunction,SMDPad,CuDef*%
G36*
G01*
X120505246Y-40393988D02*
X121405248Y-40393988D01*
G75*
G02*
X121655247Y-40643987I0J-249999D01*
G01*
X121655247Y-41343989D01*
G75*
G02*
X121405248Y-41593988I-249999J0D01*
G01*
X120505246Y-41593988D01*
G75*
G02*
X120255247Y-41343989I0J249999D01*
G01*
X120255247Y-40643987D01*
G75*
G02*
X120505246Y-40393988I249999J0D01*
G01*
G37*
%TD.AperFunction*%
%TO.P,R22,1*%
%TO.N,Net-(Q3-Pad2)*%
%TA.AperFunction,SMDPad,CuDef*%
G36*
G01*
X120505246Y-38393988D02*
X121405248Y-38393988D01*
G75*
G02*
X121655247Y-38643987I0J-249999D01*
G01*
X121655247Y-39343989D01*
G75*
G02*
X121405248Y-39593988I-249999J0D01*
G01*
X120505246Y-39593988D01*
G75*
G02*
X120255247Y-39343989I0J249999D01*
G01*
X120255247Y-38643987D01*
G75*
G02*
X120505246Y-38393988I249999J0D01*
G01*
G37*
%TD.AperFunction*%
%TD*%
%TO.P,R21,2*%
%TO.N,OUT0*%
%TA.AperFunction,SMDPad,CuDef*%
G36*
G01*
X120009748Y-119434488D02*
X119109746Y-119434488D01*
G75*
G02*
X118859747Y-119184489I0J249999D01*
G01*
X118859747Y-118484487D01*
G75*
G02*
X119109746Y-118234488I249999J0D01*
G01*
X120009748Y-118234488D01*
G75*
G02*
X120259747Y-118484487I0J-249999D01*
G01*
X120259747Y-119184489D01*
G75*
G02*
X120009748Y-119434488I-249999J0D01*
G01*
G37*
%TD.AperFunction*%
%TO.P,R21,1*%
%TO.N,OUT0_B*%
%TA.AperFunction,SMDPad,CuDef*%
G36*
G01*
X120009748Y-121434488D02*
X119109746Y-121434488D01*
G75*
G02*
X118859747Y-121184489I0J249999D01*
G01*
X118859747Y-120484487D01*
G75*
G02*
X119109746Y-120234488I249999J0D01*
G01*
X120009748Y-120234488D01*
G75*
G02*
X120259747Y-120484487I0J-249999D01*
G01*
X120259747Y-121184489D01*
G75*
G02*
X120009748Y-121434488I-249999J0D01*
G01*
G37*
%TD.AperFunction*%
%TD*%
D19*
%TO.P,Q1,3*%
%TO.N,VCC_B*%
X125957247Y-96212488D03*
%TO.P,Q1,2*%
%TO.N,Net-(Q1-Pad2)*%
X126907247Y-98212488D03*
%TO.P,Q1,1*%
%TO.N,RESET*%
X125007247Y-98212488D03*
%TD*%
D17*
%TO.P,RV1,1*%
%TO.N,GND_T*%
X95895890Y-66500000D03*
%TO.P,RV1,2*%
%TO.N,POT1_T*%
X98395890Y-66500000D03*
%TO.P,RV1,3*%
%TO.N,VCC_T*%
X100895890Y-66500000D03*
D18*
%TO.P,RV1,*%
%TO.N,*%
X93595890Y-59000000D03*
X103195890Y-59000000D03*
%TD*%
D24*
%TO.N,Net-(D3-Pad1)*%
X107000000Y-67000000D03*
%TO.N,Net-(D8-Pad1)*%
X92000000Y-67000000D03*
%TO.N,LED0*%
X118780237Y-61993988D03*
X113913354Y-104288400D03*
X118942594Y-55006641D03*
X118942594Y-53006641D03*
%TO.N,LED1*%
X110955247Y-54993988D03*
X113955247Y-116993988D03*
%TO.N,LED2*%
X112955247Y-54993988D03*
X116793247Y-113367988D03*
X117942594Y-97981335D03*
X116003070Y-94669834D03*
%TO.N,PB0*%
X118955247Y-113367988D03*
%TO.N,PD7*%
X117787387Y-113476113D03*
X118780237Y-97043142D03*
X116955247Y-94993988D03*
%TO.N,RXI*%
X112157245Y-98443989D03*
%TO.N,TXO*%
X110860247Y-99561988D03*
%TO.N,Net-(Q1-Pad2)*%
X120230247Y-73128289D03*
X120955247Y-82993988D03*
%TO.N,Net-(Q2-Pad2)*%
X116955247Y-57993988D03*
X117230237Y-83993988D03*
%TO.N,OUT1*%
X122955247Y-55993988D03*
X116955247Y-117993988D03*
%TO.N,OUT0*%
X119955247Y-113367988D03*
X118955247Y-40993988D03*
X110955247Y-51818978D03*
X110942594Y-60981335D03*
X110942594Y-72006641D03*
X113955247Y-73993988D03*
X114816009Y-84993988D03*
X112955247Y-93993988D03*
X115004401Y-93944834D03*
X115130257Y-96993988D03*
%TO.N,IN2*%
X125955247Y-61993988D03*
X119955247Y-109517988D03*
X125565747Y-120139316D03*
X122942594Y-96006641D03*
%TO.N,IN0*%
X120955247Y-109042989D03*
X119667870Y-99306670D03*
X117955247Y-94718988D03*
X117955247Y-64993988D03*
%TO.N,IN1*%
X122844338Y-93104897D03*
X120666257Y-61917345D03*
X122942594Y-73981335D03*
X122017889Y-77889402D03*
%TO.N,OUT_LED2_B*%
X124955247Y-99993988D03*
%TO.N,CLOCK_LED_B*%
X114787094Y-105162141D03*
X110955247Y-94993988D03*
X113955247Y-94993988D03*
%TO.N,RESET_LED_B*%
X112955247Y-104001989D03*
X112955247Y-96993988D03*
%TO.N,LED2_A_B*%
X116568249Y-52993988D03*
%TO.N,POT0_B*%
X120557187Y-66485734D03*
X120230247Y-85281852D03*
%TO.N,POT1_B*%
X110030257Y-56892896D03*
X115955247Y-93281740D03*
%TO.N,POT2_B*%
X119955247Y-95993988D03*
X120967900Y-87981335D03*
%TO.N,OUT2_B*%
X126376195Y-94171128D03*
X125955247Y-102405990D03*
%TO.N,OUT1_B*%
X126480227Y-105993988D03*
%TO.N,OUT0_B*%
X122223384Y-85262125D03*
X125967900Y-115981335D03*
%TO.N,RESET_B*%
X114955247Y-81993988D03*
%TO.N,GND_B*%
X112954558Y-114698988D03*
X120955247Y-130993988D03*
X110955247Y-111773987D03*
X113955247Y-61993988D03*
X113955247Y-58993988D03*
X120955247Y-119993988D03*
X115955247Y-53993988D03*
X122955247Y-62993988D03*
X121932994Y-51844579D03*
X110832094Y-82870835D03*
X111505246Y-84993988D03*
X113955247Y-125993988D03*
%TO.N,VCC_B*%
X125955247Y-56993988D03*
X112955247Y-72993988D03*
X121193247Y-112642988D03*
X122955247Y-124052518D03*
X123698078Y-81736819D03*
X123831736Y-91993988D03*
X119808126Y-58034701D03*
X119967900Y-53981335D03*
X124680247Y-101993988D03*
X125955247Y-106993988D03*
X125955247Y-113993988D03*
X120130257Y-110993988D03*
X112955247Y-99993988D03*
X111955247Y-110993988D03*
X111955247Y-110993988D03*
%TO.N,GND_T*%
X103000000Y-95000000D03*
X95000000Y-84000000D03*
%TD*%
D25*
%TO.N,Net-(C1-Pad1)*%
X114987747Y-140836988D02*
X115241747Y-140582988D01*
X112257247Y-140836988D02*
X114987747Y-140836988D01*
X112257247Y-140836988D02*
X112257247Y-140295988D01*
X110955247Y-138993988D02*
X110955247Y-134993988D01*
X112257247Y-140295988D02*
X110955247Y-138993988D01*
X116291247Y-140582988D02*
X120880247Y-135993988D01*
X115241747Y-140582988D02*
X116291247Y-140582988D01*
X116740747Y-131854488D02*
X116740747Y-129293988D01*
X120880247Y-135993988D02*
X116740747Y-131854488D01*
X110955247Y-134993988D02*
X110955247Y-133993988D01*
%TO.N,RST*%
X118393247Y-104093988D02*
X119242247Y-103244988D01*
X118393247Y-107192988D02*
X118393247Y-104093988D01*
X117868747Y-104093988D02*
X116956247Y-103181488D01*
X118393247Y-104093988D02*
X117868747Y-104093988D01*
%TO.N,Net-(C5-Pad1)*%
X115791248Y-97718989D02*
X119242247Y-101169988D01*
X111557248Y-97718989D02*
X115791248Y-97718989D01*
X110860247Y-97021988D02*
X111557248Y-97718989D01*
%TO.N,Net-(D2-Pad1)*%
X105471158Y-61528842D02*
X105000000Y-62000000D01*
X105471158Y-53957029D02*
X105471158Y-61528842D01*
X104520891Y-53006762D02*
X105471158Y-53957029D01*
X104520891Y-40708995D02*
X104520891Y-53006762D01*
X104188923Y-40377027D02*
X104520891Y-40708995D01*
%TO.N,Net-(D3-Pad1)*%
X107000000Y-67000000D02*
X107000000Y-65000000D01*
%TO.N,Net-(D4-Pad1)*%
X103213382Y-87478116D02*
X103213382Y-88560253D01*
X105425889Y-85265609D02*
X103213382Y-87478116D01*
X105425889Y-82329386D02*
X105425889Y-85265609D01*
X107283063Y-80472212D02*
X105425889Y-82329386D01*
X104221460Y-69680369D02*
X104933061Y-68968768D01*
X104932361Y-70391270D02*
X104221460Y-69680369D01*
X104997361Y-74948953D02*
X104932361Y-74883953D01*
X104932361Y-74883953D02*
X104932361Y-70391270D01*
X106481365Y-74948953D02*
X104997361Y-74948953D01*
X107283063Y-75750651D02*
X106481365Y-74948953D01*
X107283063Y-80472212D02*
X107283063Y-75750651D01*
%TO.N,Net-(D5-Pad1)*%
X95538692Y-85759692D02*
X92710000Y-82931000D01*
X95538692Y-89533692D02*
X95538692Y-85759692D01*
X97000000Y-90995000D02*
X95538692Y-89533692D01*
%TO.N,Net-(D6-Pad1)*%
X104110890Y-82917387D02*
X103082613Y-82917387D01*
X102288372Y-91162139D02*
X101213382Y-92237129D01*
X102288372Y-83711628D02*
X102288372Y-91162139D01*
X103082613Y-82917387D02*
X102288372Y-83711628D01*
%TO.N,Net-(D7-Pad1)*%
X93000000Y-40763855D02*
X92637039Y-40400894D01*
X92270889Y-43363999D02*
X93000000Y-42634888D01*
X92270889Y-49226113D02*
X92270889Y-43363999D01*
X93000000Y-42634888D02*
X93000000Y-40763855D01*
X90000000Y-62000000D02*
X91343653Y-60656347D01*
X91343653Y-52656347D02*
X91343653Y-60656347D01*
X92270889Y-51729111D02*
X91343653Y-52656347D01*
X92270889Y-49226113D02*
X92270889Y-51729111D01*
%TO.N,Net-(D8-Pad1)*%
X92000000Y-65000000D02*
X92000000Y-67000000D01*
%TO.N,Net-(D9-Pad1)*%
X99000000Y-86300000D02*
X99000000Y-87000000D01*
X92270889Y-79570889D02*
X99000000Y-86300000D01*
X92270889Y-70022653D02*
X92270889Y-79570889D01*
X92579574Y-69713968D02*
X92270889Y-70022653D01*
%TO.N,Net-(F1-Pad2)*%
X110207247Y-145962488D02*
X110796747Y-146551988D01*
X110796747Y-144011988D02*
X110796747Y-146551988D01*
X110796747Y-141426488D02*
X110207247Y-140836988D01*
X110796747Y-144011988D02*
X110796747Y-141426488D01*
%TO.N,Net-(F2-Pad2)*%
X116829247Y-50993988D02*
X114060747Y-53762488D01*
%TO.N,LED0*%
X113955247Y-104246507D02*
X113913354Y-104288400D01*
X113955247Y-108291988D02*
X113955247Y-104246507D01*
X114306247Y-108642988D02*
X113955247Y-108291988D01*
X114543247Y-108642988D02*
X114306247Y-108642988D01*
X119652257Y-62866008D02*
X118780237Y-61993988D01*
X120955247Y-62866008D02*
X119652257Y-62866008D01*
X121391257Y-58725730D02*
X121391257Y-62429998D01*
X120506865Y-57841338D02*
X121391257Y-58725730D01*
X121391257Y-62429998D02*
X120955247Y-62866008D01*
X120020055Y-55476825D02*
X120506865Y-55963635D01*
X119438084Y-55476825D02*
X120020055Y-55476825D01*
X118955247Y-54993988D02*
X119438084Y-55476825D01*
X120506865Y-55963635D02*
X120506865Y-57841338D01*
X118942594Y-55006641D02*
X118955247Y-54993988D01*
X114289247Y-41327988D02*
X114289247Y-40833988D01*
X114988408Y-40834329D02*
X114351998Y-40834329D01*
X116163409Y-42009330D02*
X114988408Y-40834329D01*
X117266001Y-42009330D02*
X116163409Y-42009330D01*
X117281343Y-41993988D02*
X117266001Y-42009330D01*
X118955247Y-41993988D02*
X117281343Y-41993988D01*
X118955247Y-53066990D02*
X118955247Y-41993988D01*
%TO.N,LED1*%
X113114246Y-44548989D02*
X113114246Y-48834989D01*
X114289247Y-43373988D02*
X113114246Y-44548989D01*
X115993247Y-115692988D02*
X115256247Y-115692988D01*
X115256247Y-115692988D02*
X113955247Y-116993988D01*
X110955247Y-53124298D02*
X111342067Y-52737478D01*
X110955247Y-54993988D02*
X110955247Y-53124298D01*
X111342067Y-52737478D02*
X112355247Y-52737478D01*
X112355247Y-49593988D02*
X113114246Y-48834989D01*
X112355247Y-52737478D02*
X112355247Y-49593988D01*
%TO.N,LED2*%
X115654246Y-47278987D02*
X115654246Y-49563989D01*
X114289247Y-45913988D02*
X115654246Y-47278987D01*
X112805257Y-50192976D02*
X112805257Y-54843998D01*
X112805257Y-54843998D02*
X112955247Y-54993988D01*
X116856237Y-113304998D02*
X116793247Y-113367988D01*
X116856237Y-113092998D02*
X116856237Y-113304998D01*
X116793247Y-113155988D02*
X116856237Y-113092998D01*
X116793247Y-115692988D02*
X116793247Y-113155988D01*
X117942594Y-97175043D02*
X117942594Y-97981335D01*
X116003070Y-95235519D02*
X117942594Y-97175043D01*
X116003070Y-94669834D02*
X116003070Y-95235519D01*
X113228173Y-49770060D02*
X112805257Y-50192976D01*
X115179175Y-49770060D02*
X113228173Y-49770060D01*
X115385246Y-49563989D02*
X115179175Y-49770060D01*
X115654246Y-49563989D02*
X115385246Y-49563989D01*
%TO.N,PB0*%
X118593246Y-113355989D02*
X118856237Y-113092998D01*
X118593246Y-115355989D02*
X118593246Y-113355989D01*
X118393247Y-115555988D02*
X118593246Y-115355989D01*
X118393247Y-115692988D02*
X118393247Y-115555988D01*
X118856237Y-113268978D02*
X118955247Y-113367988D01*
X118856237Y-113092998D02*
X118856237Y-113268978D01*
%TO.N,PD7*%
X114289247Y-48453988D02*
X114289247Y-48659988D01*
X117593247Y-115692988D02*
X117593247Y-113454998D01*
X117614362Y-113476113D02*
X117787387Y-113476113D01*
X117593247Y-113454998D02*
X117614362Y-113476113D01*
X118780237Y-97043142D02*
X117731083Y-95993988D01*
X117731083Y-95769824D02*
X116955247Y-94993988D01*
X117731083Y-95993988D02*
X117731083Y-95769824D01*
%TO.N,RXI*%
X113519755Y-101631498D02*
X112157245Y-100268988D01*
X115039237Y-102101988D02*
X115039237Y-102077978D01*
X115907227Y-102969978D02*
X115039237Y-102101988D01*
X115931237Y-102969978D02*
X115907227Y-102969978D01*
X115039237Y-102077978D02*
X114592757Y-101631498D01*
X115931237Y-103969978D02*
X115931237Y-102969978D01*
X114592757Y-101631498D02*
X113519755Y-101631498D01*
X116067757Y-104106498D02*
X115931237Y-103969978D01*
X117067757Y-104106498D02*
X116067757Y-104106498D01*
X112157245Y-100268988D02*
X112157245Y-98443989D01*
X117593247Y-104631988D02*
X117067757Y-104106498D01*
X117593247Y-107192988D02*
X117593247Y-104631988D01*
X112157245Y-98195986D02*
X112130258Y-98168999D01*
X112157245Y-98443989D02*
X112157245Y-98195986D01*
%TO.N,TXO*%
X111577246Y-100278987D02*
X110860247Y-99561988D01*
X111577246Y-100926987D02*
X111577246Y-100278987D01*
X116793247Y-106142988D02*
X111577246Y-100926987D01*
X116793247Y-107192988D02*
X116793247Y-106142988D01*
%TO.N,Net-(J_POWER0-Pad10)*%
X120956747Y-146551988D02*
X120956747Y-144011988D01*
%TO.N,Net-(Q1-Pad2)*%
X124938248Y-90204987D02*
X123923248Y-89189987D01*
X124938248Y-93758487D02*
X124938248Y-90204987D01*
X126907247Y-95727486D02*
X124938248Y-93758487D01*
X126907247Y-98212488D02*
X126907247Y-95727486D01*
X123923248Y-89189987D02*
X121151246Y-89189987D01*
X120170422Y-87315086D02*
X120170422Y-88209163D01*
X120170422Y-88209163D02*
X121151246Y-89189987D01*
X113955247Y-65890988D02*
X113955247Y-68256488D01*
X111717668Y-70046997D02*
X113664659Y-71993988D01*
X111717668Y-69794067D02*
X111717668Y-70046997D01*
X113255247Y-68256488D02*
X111717668Y-69794067D01*
X113955247Y-68256488D02*
X113255247Y-68256488D01*
X113664659Y-71993988D02*
X115405257Y-73734586D01*
X115405257Y-73734586D02*
X115405257Y-75443998D01*
X115405257Y-75443998D02*
X115697792Y-75736533D01*
X115697792Y-75736533D02*
X118212702Y-75736533D01*
X120230247Y-73718988D02*
X120230247Y-73128289D01*
X118212702Y-75736533D02*
X120230247Y-73718988D01*
X120634149Y-87315086D02*
X121773374Y-86175861D01*
X120170422Y-87315086D02*
X120634149Y-87315086D01*
X121498383Y-85900870D02*
X121498383Y-83450852D01*
X121773374Y-86175861D02*
X121498383Y-85900870D01*
X121041519Y-82993988D02*
X120955247Y-82993988D01*
X121498383Y-83450852D02*
X121041519Y-82993988D01*
%TO.N,RESET*%
X121718747Y-115818488D02*
X121593247Y-115692988D01*
X121718747Y-118802488D02*
X121718747Y-115818488D01*
X123380067Y-119727498D02*
X121593247Y-117940678D01*
X125007247Y-98212488D02*
X123405257Y-99814478D01*
X125093257Y-119390668D02*
X124756427Y-119727498D01*
X123405257Y-99814478D02*
X123405257Y-104162487D01*
X125230246Y-107730885D02*
X125565747Y-108066386D01*
X121593247Y-117940678D02*
X121593247Y-115692988D01*
X123405257Y-104162487D02*
X124786748Y-104162487D01*
X124756427Y-119727498D02*
X123380067Y-119727498D01*
X124786748Y-104162487D02*
X124818246Y-104130989D01*
X125573736Y-104130989D02*
X125230246Y-104474479D01*
X125230246Y-104474479D02*
X125230246Y-107730885D01*
X124818246Y-104130989D02*
X125573736Y-104130989D01*
X125306949Y-113665696D02*
X125306949Y-111863286D01*
X125306949Y-111863286D02*
X125565747Y-111604488D01*
X125565747Y-108066386D02*
X125565747Y-111604488D01*
X125093257Y-117855978D02*
X125093257Y-117131998D01*
X125093257Y-117855978D02*
X125093257Y-119390668D01*
X125093257Y-117131998D02*
X123955247Y-115993988D01*
X123955247Y-115017398D02*
X125306949Y-113665696D01*
X123955247Y-115993988D02*
X123955247Y-115017398D01*
%TO.N,Net-(Q2-Pad2)*%
X116955247Y-59747488D02*
X116955247Y-57993988D01*
X119584226Y-90556740D02*
X119146978Y-90993988D01*
X119584226Y-90556740D02*
X119421977Y-90718989D01*
X119584226Y-89365009D02*
X119955247Y-88993988D01*
X119584226Y-90556740D02*
X119584226Y-89365009D01*
X116955247Y-83993988D02*
X117230237Y-83993988D01*
X120955247Y-83993988D02*
X116955247Y-83993988D01*
X120955247Y-85893851D02*
X120955247Y-83993988D01*
X119720412Y-87128686D02*
X120955247Y-85893851D01*
X119720412Y-88395563D02*
X119720412Y-87128686D01*
X119955247Y-88630398D02*
X119720412Y-88395563D01*
X119955247Y-88993988D02*
X119955247Y-88630398D01*
X120322039Y-90556740D02*
X119584226Y-90556740D01*
X121628510Y-91863211D02*
X120322039Y-90556740D01*
%TO.N,CLOCK*%
X124068247Y-118802488D02*
X124068247Y-117849988D01*
X124068247Y-117849988D02*
X123043247Y-116824988D01*
X123043247Y-116824988D02*
X123043247Y-114242988D01*
X124093247Y-114242988D02*
X123043247Y-114242988D01*
X124856939Y-107993988D02*
X124856939Y-113479296D01*
X123138450Y-106810785D02*
X123673736Y-106810785D01*
X123955247Y-94846898D02*
X123955247Y-94993988D01*
X122403511Y-90738212D02*
X122403511Y-91638765D01*
X121628510Y-89963211D02*
X122403511Y-90738212D01*
X122403511Y-91638765D02*
X123713237Y-92948491D01*
X122955247Y-98993988D02*
X122955247Y-106627582D01*
X123713237Y-92948491D02*
X123713237Y-94604888D01*
X124955247Y-95993988D02*
X124955247Y-96829486D01*
X124856939Y-113479296D02*
X124093247Y-114242988D01*
X123673736Y-98110997D02*
X123673736Y-98275499D01*
X123713237Y-94604888D02*
X123955247Y-94846898D01*
X123955247Y-94993988D02*
X124955247Y-95993988D01*
X124955247Y-96829486D02*
X123673736Y-98110997D01*
X122955247Y-106627582D02*
X123138450Y-106810785D01*
X123673736Y-106810785D02*
X124856939Y-107993988D01*
X123673736Y-98275499D02*
X122955247Y-98993988D01*
%TO.N,Net-(Q3-Pad2)*%
X120955247Y-38993988D02*
X124055247Y-38993988D01*
%TO.N,Net-(Q4-Pad2)*%
X123242747Y-50229184D02*
X123528510Y-49943421D01*
X123242747Y-52317988D02*
X123242747Y-50229184D01*
%TO.N,Net-(Q5-Pad2)*%
X127655237Y-111302446D02*
X127655237Y-104262478D01*
X127640777Y-111316906D02*
X127655237Y-111302446D01*
X127655237Y-104262478D02*
X126748747Y-103355988D01*
X127640777Y-114564518D02*
X127640777Y-111316906D01*
X127655237Y-121588948D02*
X127655237Y-114578978D01*
X127655237Y-114578978D02*
X127640777Y-114564518D01*
X125916667Y-123327518D02*
X127655237Y-121588948D01*
X115194777Y-123327518D02*
X125916667Y-123327518D01*
X112638247Y-120770988D02*
X115194777Y-123327518D01*
%TO.N,Net-(R4-Pad1)*%
X125221237Y-66352978D02*
X125221237Y-60392478D01*
X125221237Y-60392478D02*
X124576247Y-59747488D01*
X126862247Y-67993988D02*
X125221237Y-66352978D01*
%TO.N,Net-(R5-Pad1)*%
X122036247Y-57106207D02*
X121431875Y-56501835D01*
X122036247Y-59747488D02*
X122036247Y-57106207D01*
%TO.N,Net-(R6-Pad1)*%
X122036247Y-66912988D02*
X122036247Y-64697488D01*
X120955247Y-67993988D02*
X122036247Y-66912988D01*
%TO.N,OUT2*%
X119193247Y-116742988D02*
X118721247Y-117214988D01*
X119193247Y-115692988D02*
X119193247Y-116742988D01*
X118721247Y-117214988D02*
X116019747Y-117214988D01*
X112685747Y-118818488D02*
X112638247Y-118770988D01*
X114797247Y-118818488D02*
X112685747Y-118818488D01*
X116019747Y-117595988D02*
X114797247Y-118818488D01*
X116019747Y-117214988D02*
X116019747Y-117595988D01*
%TO.N,OUT1*%
X119993247Y-116742988D02*
X118949747Y-117786488D01*
X119993247Y-115692988D02*
X119993247Y-116742988D01*
X117972247Y-117786488D02*
X117019747Y-118738988D01*
X118949747Y-117786488D02*
X117972247Y-117786488D01*
X123242747Y-55706488D02*
X122955247Y-55993988D01*
X123242747Y-54317988D02*
X123242747Y-55706488D01*
X117210247Y-118248988D02*
X116955247Y-117993988D01*
X117210247Y-118818488D02*
X117210247Y-118248988D01*
%TO.N,OUT0*%
X120793247Y-116742988D02*
X120257747Y-117278488D01*
X120793247Y-115692988D02*
X120793247Y-116742988D01*
X120257747Y-118136488D02*
X119559747Y-118834488D01*
X120257747Y-117278488D02*
X120257747Y-118136488D01*
X120955247Y-115530988D02*
X120793247Y-115692988D01*
X120955247Y-113993988D02*
X120955247Y-115530988D01*
X120955247Y-113993988D02*
X120054257Y-113092998D01*
X120054257Y-113268978D02*
X119955247Y-113367988D01*
X120054257Y-113092998D02*
X120054257Y-113268978D01*
X120955247Y-40993988D02*
X118955247Y-40993988D01*
X110230246Y-55341989D02*
X111882245Y-56993988D01*
X110230246Y-52543979D02*
X110230246Y-55341989D01*
X110955247Y-51818978D02*
X110230246Y-52543979D01*
X111882245Y-56993988D02*
X111882245Y-60430580D01*
X111882245Y-60430580D02*
X110637042Y-61675783D01*
X110942594Y-61370231D02*
X110942594Y-60981335D01*
X110637042Y-61675783D02*
X110942594Y-61370231D01*
X112929941Y-73993988D02*
X113955247Y-73993988D01*
X115278069Y-96846176D02*
X115130257Y-96993988D01*
X115278069Y-94218502D02*
X115278069Y-96846176D01*
X115004401Y-93944834D02*
X115278069Y-94218502D01*
X114060006Y-84993988D02*
X114816009Y-84993988D01*
X112599587Y-91443997D02*
X112955247Y-91088337D01*
X112955247Y-86098747D02*
X114060006Y-84993988D01*
X112505238Y-91443997D02*
X112599587Y-91443997D01*
X112505238Y-93543979D02*
X112505238Y-91443997D01*
X112955247Y-91088337D02*
X112955247Y-86098747D01*
X112955247Y-93993988D02*
X112505238Y-93543979D01*
X111261118Y-72006641D02*
X110942594Y-72006641D01*
X112230246Y-72975769D02*
X111261118Y-72006641D01*
X112230246Y-73294293D02*
X112230246Y-72975769D01*
X112929941Y-73993988D02*
X112230246Y-73294293D01*
%TO.N,IN2*%
X125846247Y-59747488D02*
X127116247Y-59747488D01*
X127116247Y-60832988D02*
X125955247Y-61993988D01*
X127116247Y-59747488D02*
X127116247Y-60832988D01*
X120318247Y-109517988D02*
X119955247Y-109517988D01*
X121593247Y-107192988D02*
X121593247Y-108242988D01*
X121955247Y-97557396D02*
X122332255Y-97180388D01*
X121955247Y-106830988D02*
X121955247Y-97557396D01*
X121593247Y-107192988D02*
X121955247Y-106830988D01*
X122332255Y-96616980D02*
X122942594Y-96006641D01*
X122332255Y-97180388D02*
X122332255Y-96616980D01*
X119955247Y-109517988D02*
X119955247Y-108317989D01*
X121518246Y-108317989D02*
X121593247Y-108242988D01*
X119955247Y-108317989D02*
X121518246Y-108317989D01*
%TO.N,IN0*%
X123043247Y-108642988D02*
X123242247Y-108642988D01*
X119496247Y-64697488D02*
X120766247Y-64697488D01*
X121593246Y-109042989D02*
X120955247Y-109042989D01*
X121993247Y-108642988D02*
X121593246Y-109042989D01*
X123043247Y-108642988D02*
X121993247Y-108642988D01*
X119667870Y-96857773D02*
X117955247Y-95145150D01*
X119667870Y-99306670D02*
X119667870Y-96857773D01*
X117955247Y-95145150D02*
X117955247Y-94993988D01*
X117955247Y-94993988D02*
X117955247Y-94718988D01*
X119199747Y-64993988D02*
X119496247Y-64697488D01*
X117955247Y-64993988D02*
X119199747Y-64993988D01*
%TO.N,IN1*%
X119496247Y-59747488D02*
X120766247Y-59747488D01*
X122938236Y-93010999D02*
X122844338Y-93104897D01*
X124093247Y-109442988D02*
X124193237Y-109342998D01*
X123043247Y-109442988D02*
X124093247Y-109442988D01*
X124193237Y-109342998D02*
X124168248Y-109318009D01*
X124193237Y-108132976D02*
X124193237Y-109342998D01*
X122955247Y-92993988D02*
X122844338Y-93104897D01*
X122844338Y-93104897D02*
X122844338Y-94372399D01*
X122844338Y-94372399D02*
X123263228Y-94791289D01*
X123263228Y-94791289D02*
X123263228Y-95301969D01*
X123263228Y-95301969D02*
X123955247Y-95993988D01*
X123955247Y-95993988D02*
X123955247Y-96993988D01*
X123955247Y-96993988D02*
X122955247Y-97993988D01*
X120766247Y-59804988D02*
X120941247Y-59979988D01*
X120766247Y-59747488D02*
X120766247Y-59804988D01*
X120941247Y-59979988D02*
X120941247Y-60282978D01*
X120766247Y-61817355D02*
X120666257Y-61917345D01*
X120766247Y-59747488D02*
X120766247Y-61817355D01*
X122942594Y-76964697D02*
X122017889Y-77889402D01*
X122942594Y-73981335D02*
X122942594Y-76964697D01*
X122955247Y-97993988D02*
X122405257Y-97993988D01*
X122405257Y-97993988D02*
X122405257Y-107443998D01*
X123504259Y-107443998D02*
X124193237Y-108132976D01*
X122405257Y-107443998D02*
X123504259Y-107443998D01*
%TO.N,Net-(U1-Pad8)*%
X113362247Y-115423988D02*
X114543247Y-114242988D01*
X110923747Y-115423988D02*
X113362247Y-115423988D01*
%TO.N,Net-(U1-Pad7)*%
X114543247Y-113442988D02*
X112993747Y-113442988D01*
X112993747Y-113442988D02*
X112574747Y-113023988D01*
X112574747Y-113023988D02*
X110923747Y-113023988D01*
%TO.N,Net-(U2-Pad13)*%
X125846247Y-64697488D02*
X127116247Y-64697488D01*
%TO.N,OUT_LED0_B*%
X125955247Y-43760652D02*
X126208282Y-44013687D01*
X125955247Y-38993988D02*
X125955247Y-43760652D01*
%TO.N,OUT_LED1_B*%
X122255548Y-49093687D02*
X126208282Y-49093687D01*
X121628510Y-49943421D02*
X121628510Y-49320725D01*
X121855548Y-49093687D02*
X122255548Y-49093687D01*
X121628510Y-49320725D02*
X121855548Y-49093687D01*
%TO.N,OUT_LED2_B*%
X124198747Y-103355988D02*
X123955247Y-103599488D01*
X124848747Y-103355988D02*
X124198747Y-103355988D01*
X123955247Y-103599488D02*
X123955247Y-99993988D01*
X123955247Y-99993988D02*
X124955247Y-99993988D01*
%TO.N,CLOCK_LED_B*%
X115993247Y-107192988D02*
X115993247Y-107031988D01*
X110733247Y-79073988D02*
X110875247Y-79073988D01*
X115993247Y-107192988D02*
X115993247Y-106368294D01*
X110955247Y-94993988D02*
X113955247Y-94993988D01*
X115993247Y-106368294D02*
X114787094Y-105162141D01*
%TO.N,RESET_LED_B*%
X112955247Y-108904988D02*
X112955247Y-104001989D01*
X113493247Y-109442988D02*
X112955247Y-108904988D01*
X114543247Y-109442988D02*
X113493247Y-109442988D01*
X113520932Y-96993988D02*
X112955247Y-96993988D01*
X114680248Y-95834672D02*
X113520932Y-96993988D01*
X114680248Y-94645987D02*
X114680248Y-95834672D01*
X126193710Y-79064412D02*
X126193710Y-80266493D01*
X126193710Y-80266493D02*
X123884478Y-82575725D01*
X123884478Y-82575725D02*
X123511678Y-82575725D01*
X123511678Y-82575725D02*
X122955247Y-82019294D01*
X122955247Y-82019294D02*
X122955247Y-79993988D01*
X119955247Y-79993988D02*
X116457637Y-83491598D01*
X116457637Y-90002566D02*
X115670225Y-90789978D01*
X115670225Y-90789978D02*
X113890016Y-90789978D01*
X113890016Y-90789978D02*
X112955247Y-91724747D01*
X116457637Y-83491598D02*
X116457637Y-90002566D01*
X112955247Y-91724747D02*
X112955247Y-92920986D01*
X122955247Y-79993988D02*
X119955247Y-79993988D01*
X112955247Y-92920986D02*
X114680248Y-94645987D01*
%TO.N,LED0_A_B*%
X113774173Y-39610060D02*
X110733247Y-42650986D01*
X115605319Y-39610060D02*
X113774173Y-39610060D01*
X110733247Y-42650986D02*
X110733247Y-43993988D01*
X116829247Y-40833988D02*
X115605319Y-39610060D01*
%TO.N,LED1_A_B*%
X111946693Y-44002542D02*
X111946693Y-48311199D01*
X111946693Y-48311199D02*
X110771692Y-49486200D01*
X115716997Y-42199328D02*
X116891998Y-43374329D01*
X115667729Y-42150060D02*
X115716997Y-42199328D01*
X113799175Y-42150060D02*
X115667729Y-42150060D01*
X111946693Y-44002542D02*
X113799175Y-42150060D01*
%TO.N,LED2_A_B*%
X118066999Y-47089330D02*
X116891998Y-45914329D01*
X116568249Y-52993988D02*
X117955247Y-52993988D01*
X117955247Y-52993988D02*
X117955247Y-52543978D01*
X117955247Y-52543978D02*
X118505237Y-51993988D01*
X118505237Y-51993988D02*
X118505237Y-47543978D01*
X118066999Y-47105740D02*
X118066999Y-47089330D01*
X118505237Y-47543978D02*
X118066999Y-47105740D01*
%TO.N,POT0_B*%
X118922014Y-86590085D02*
X120230247Y-85281852D01*
X117359150Y-86590085D02*
X118922014Y-86590085D01*
X116955247Y-86993988D02*
X117359150Y-86590085D01*
X118592989Y-91631730D02*
X116955247Y-89993988D01*
X120793247Y-106306578D02*
X121505237Y-105594588D01*
X121505237Y-105594588D02*
X121505237Y-98443998D01*
X121882245Y-93066990D02*
X121397287Y-93066990D01*
X121505237Y-98443998D02*
X121405257Y-98443998D01*
X116955247Y-89993988D02*
X116955247Y-86993988D01*
X121397287Y-93066990D02*
X120609236Y-92278939D01*
X121292889Y-98331630D02*
X121292889Y-97583344D01*
X121292889Y-97583344D02*
X121882245Y-96993988D01*
X121405257Y-98443998D02*
X121292889Y-98331630D01*
X121882245Y-96993988D02*
X121882245Y-93066990D01*
X120609236Y-92278939D02*
X120609236Y-91968560D01*
X120609236Y-91968560D02*
X120272406Y-91631730D01*
X120793247Y-107192988D02*
X120793247Y-106306578D01*
X120272406Y-91631730D02*
X118592989Y-91631730D01*
X127383283Y-48087074D02*
X126195950Y-46899741D01*
X122681237Y-62194996D02*
X122681237Y-58725730D01*
X127383283Y-54023684D02*
X127383283Y-48087074D01*
X121391257Y-63484976D02*
X122681237Y-62194996D01*
X121391257Y-65719246D02*
X121391257Y-63484976D01*
X120624769Y-66485734D02*
X121391257Y-65719246D01*
X122681237Y-58725730D02*
X127383283Y-54023684D01*
X120557187Y-66485734D02*
X120624769Y-66485734D01*
%TO.N,POT1_B*%
X119993247Y-106142988D02*
X120955247Y-105180988D01*
X119993247Y-107192988D02*
X119993247Y-106142988D01*
X120955247Y-105180988D02*
X120955247Y-99993988D01*
X120955247Y-98630398D02*
X120842879Y-98518030D01*
X120955247Y-99993988D02*
X120955247Y-98630398D01*
X120842879Y-98518030D02*
X120842879Y-97993988D01*
X119955247Y-94920986D02*
X119955247Y-93993988D01*
X120842879Y-95808618D02*
X119955247Y-94920986D01*
X120842879Y-97993988D02*
X120842879Y-95808618D01*
X109558246Y-47708989D02*
X110733247Y-46533988D01*
X109558246Y-56596987D02*
X109558246Y-47708989D01*
X109854155Y-56892896D02*
X109558246Y-56596987D01*
X110030257Y-56892896D02*
X109854155Y-56892896D01*
X118906093Y-93944834D02*
X118955247Y-93993988D01*
X118955247Y-93993988D02*
X116955247Y-93993988D01*
X119955247Y-93993988D02*
X118955247Y-93993988D01*
X116667495Y-93993988D02*
X115955247Y-93281740D01*
X116955247Y-93993988D02*
X116667495Y-93993988D01*
%TO.N,POT2_B*%
X119193247Y-106042969D02*
X119193247Y-107192988D01*
X120292257Y-104943959D02*
X119193247Y-106042969D01*
X120292257Y-103656978D02*
X120292257Y-104943959D01*
X120505237Y-103443998D02*
X120292257Y-103656978D01*
X120505237Y-100993988D02*
X120505237Y-103443998D01*
X120392870Y-100881621D02*
X120505237Y-100993988D01*
X120392870Y-96431611D02*
X120392870Y-100881621D01*
X119955247Y-95993988D02*
X120392870Y-96431611D01*
X127368711Y-77699413D02*
X126193710Y-76524412D01*
X127291748Y-88138750D02*
X127368711Y-88061787D01*
X122608497Y-88138750D02*
X127291748Y-88138750D01*
X127368711Y-88061787D02*
X127368711Y-77699413D01*
X122463735Y-87993988D02*
X122608497Y-88138750D01*
X120980553Y-87993988D02*
X120967900Y-87981335D01*
X122463735Y-87993988D02*
X120980553Y-87993988D01*
%TO.N,OUT2_B*%
X126472745Y-104514988D02*
X126023746Y-104065989D01*
X127205227Y-104514988D02*
X126472745Y-104514988D01*
X127205227Y-111116046D02*
X127205227Y-104514988D01*
X127190767Y-111130506D02*
X127205227Y-111116046D01*
X127190767Y-121417008D02*
X127190767Y-111130506D01*
X125730267Y-122877508D02*
X127190767Y-121417008D01*
X116856267Y-122877508D02*
X125730267Y-122877508D01*
X114797247Y-120818488D02*
X116856267Y-122877508D01*
X126023746Y-104065989D02*
X126023746Y-102925489D01*
X126023746Y-102645987D02*
X126088746Y-102580987D01*
X126023746Y-102925489D02*
X126023746Y-102645987D01*
X126181747Y-92043749D02*
X126181747Y-94365576D01*
X126181747Y-94365576D02*
X126376195Y-94171128D01*
%TO.N,OUT1_B*%
X117210247Y-120818488D02*
X117210247Y-121151988D01*
X117210247Y-121151988D02*
X118485757Y-122427498D01*
X126740757Y-109462478D02*
X126755217Y-109448018D01*
X126740757Y-121211388D02*
X126740757Y-109462478D01*
X125524647Y-122427498D02*
X126740757Y-121211388D01*
X118485757Y-122427498D02*
X125524647Y-122427498D01*
X126755216Y-106268977D02*
X126480227Y-105993988D01*
X126755216Y-109448019D02*
X126755216Y-106268977D01*
X126740757Y-109462478D02*
X126755216Y-109448019D01*
%TO.N,OUT0_B*%
X119559747Y-120834488D02*
X119559747Y-121977488D01*
X119559747Y-121977488D02*
X125338247Y-121977488D01*
X125338247Y-121977488D02*
X126290747Y-121024988D01*
X122535486Y-86963749D02*
X126181747Y-86963749D01*
X122223384Y-86914015D02*
X122223384Y-85262125D01*
X122273118Y-86963749D02*
X122223384Y-86914015D01*
X122535486Y-86963749D02*
X122273118Y-86963749D01*
X126290747Y-116304182D02*
X125967900Y-115981335D01*
X126290747Y-121024988D02*
X126290747Y-116304182D01*
%TO.N,CLOCK_B*%
X114604008Y-91814988D02*
X114366008Y-92052988D01*
X114869760Y-92556740D02*
X114366008Y-92052988D01*
X119584226Y-92556740D02*
X114869760Y-92556740D01*
%TO.N,RESET_B*%
X121980257Y-74968978D02*
X114955247Y-81993988D01*
X121980257Y-69405808D02*
X121980257Y-74968978D01*
X121643427Y-69068978D02*
X121980257Y-69405808D01*
X120267067Y-69068978D02*
X119930237Y-69405808D01*
X121643427Y-69068978D02*
X120267067Y-69068978D01*
X113955247Y-70357578D02*
X113955247Y-70256488D01*
X114805927Y-69405808D02*
X113955247Y-70256488D01*
X119930237Y-69405808D02*
X114805927Y-69405808D01*
%TO.N,IN0_B*%
X113844747Y-81104488D02*
X121530247Y-73418988D01*
X121530247Y-70568988D02*
X120955247Y-69993988D01*
X121530247Y-73418988D02*
X121530247Y-70568988D01*
X110754167Y-83974068D02*
X113844747Y-80883488D01*
X110754167Y-86972988D02*
X110754167Y-83974068D01*
X113844747Y-78225988D02*
X113844747Y-80883488D01*
X113844747Y-81104488D02*
X113844747Y-80883488D01*
%TO.N,IN1_B*%
X117101186Y-56501835D02*
X117073105Y-56529916D01*
X119431875Y-56501835D02*
X117101186Y-56501835D01*
X109558246Y-88317067D02*
X109558246Y-63390989D01*
X110754167Y-89512988D02*
X109558246Y-88317067D01*
X116030237Y-57572784D02*
X117073105Y-56529916D01*
X115543427Y-60772498D02*
X116030237Y-60285688D01*
X116030237Y-60285688D02*
X116030237Y-57572784D01*
X112176737Y-60772498D02*
X115543427Y-60772498D01*
X109558246Y-63390989D02*
X112176737Y-60772498D01*
%TO.N,IN2_B*%
X123955247Y-69993988D02*
X126862247Y-69993988D01*
X123955247Y-77993988D02*
X123955247Y-69993988D01*
X123334833Y-78614402D02*
X123955247Y-77993988D01*
X119803182Y-78614402D02*
X123334833Y-78614402D01*
X112505237Y-85912348D02*
X119803182Y-78614402D01*
X112505237Y-90301918D02*
X112505237Y-85912348D01*
X110754167Y-92052988D02*
X112505237Y-90301918D01*
%TO.N,GND_B*%
X114543247Y-110242988D02*
X113493247Y-110242988D01*
X113493247Y-110242988D02*
X112972247Y-109721988D01*
X112972247Y-109721988D02*
X110860247Y-109721988D01*
X110860247Y-107181988D02*
X110860247Y-109721988D01*
X121718747Y-120802488D02*
X124068247Y-120802488D01*
X124576247Y-64697488D02*
X123306247Y-64697488D01*
X123955247Y-67993988D02*
X123955247Y-66809968D01*
X124576247Y-66188968D02*
X124576247Y-64697488D01*
X123955247Y-66809968D02*
X124576247Y-66188968D01*
X121319247Y-140582988D02*
X120641747Y-140582988D01*
X118416747Y-142807988D02*
X120641747Y-140582988D01*
X118416747Y-144011988D02*
X118416747Y-142807988D01*
X124195247Y-129062988D02*
X124785247Y-128472988D01*
X115403249Y-110242988D02*
X114543247Y-110242988D01*
X115668248Y-110507987D02*
X115403249Y-110242988D01*
X115668248Y-111767987D02*
X115668248Y-110507987D01*
X115593247Y-111842988D02*
X115668248Y-111767987D01*
X114543247Y-111842988D02*
X115593247Y-111842988D01*
X121993247Y-111042988D02*
X123043247Y-111042988D01*
X121193247Y-110242988D02*
X121993247Y-111042988D01*
X114543247Y-110242988D02*
X121193247Y-110242988D01*
X112479558Y-114223988D02*
X112954558Y-114698988D01*
X110923747Y-114223988D02*
X112479558Y-114223988D01*
X111041247Y-76225988D02*
X110733247Y-76533988D01*
X113844747Y-76225988D02*
X111041247Y-76225988D01*
X115073105Y-59629630D02*
X114955247Y-59747488D01*
X115073105Y-56529916D02*
X115073105Y-59629630D01*
X111905247Y-55016990D02*
X111905247Y-53762488D01*
X113418173Y-56529916D02*
X111905247Y-55016990D01*
X115073105Y-56529916D02*
X113418173Y-56529916D01*
X122264247Y-130993988D02*
X120955247Y-130993988D01*
X124785247Y-128472988D02*
X122264247Y-130993988D01*
X114392247Y-111993988D02*
X114543247Y-111842988D01*
X111955247Y-111993988D02*
X114392247Y-111993988D01*
X111735246Y-111773987D02*
X111955247Y-111993988D01*
X110955247Y-111773987D02*
X111735246Y-111773987D01*
X114708747Y-59747488D02*
X113955247Y-58993988D01*
X114955247Y-59747488D02*
X114708747Y-59747488D01*
X121718747Y-120802488D02*
X121718747Y-120757488D01*
X121718747Y-120757488D02*
X120955247Y-119993988D01*
X115955247Y-53993988D02*
X118955247Y-53993988D01*
X123306247Y-63344988D02*
X122955247Y-62993988D01*
X123306247Y-64697488D02*
X123306247Y-63344988D01*
X121303248Y-54718989D02*
X119680248Y-54718989D01*
X121932994Y-54089243D02*
X121303248Y-54718989D01*
X121932994Y-51844579D02*
X121932994Y-54089243D01*
X119680248Y-54718989D02*
X118955247Y-53993988D01*
X113336747Y-144011988D02*
X118416747Y-144011988D01*
X113336747Y-146551988D02*
X118416747Y-146551988D01*
X113336747Y-144011988D02*
X113336747Y-146551988D01*
X113955247Y-61993988D02*
X113955247Y-63890988D01*
X114955247Y-75993988D02*
X114723247Y-76225988D01*
X114955247Y-73920986D02*
X114955247Y-75993988D01*
X114723247Y-76225988D02*
X113844747Y-76225988D01*
X111267658Y-70233397D02*
X114955247Y-73920986D01*
X111267658Y-64100399D02*
X111267658Y-70233397D01*
X111058247Y-63890988D02*
X111267658Y-64100399D01*
X113955247Y-63890988D02*
X111058247Y-63890988D01*
X112819737Y-77250998D02*
X112819737Y-81129498D01*
X113844747Y-76225988D02*
X112819737Y-77250998D01*
X112819737Y-81129498D02*
X110955247Y-82993988D01*
X110955247Y-82993988D02*
X110832094Y-82870835D01*
X109305257Y-99343998D02*
X109305257Y-98993988D01*
X109305257Y-91891816D02*
X109305257Y-99343998D01*
X109305257Y-91643978D02*
X109305257Y-91891816D01*
X111292758Y-90877987D02*
X110071248Y-90877987D01*
X111955247Y-90215498D02*
X111292758Y-90877987D01*
X110071248Y-90877987D02*
X109305257Y-91643978D01*
X111955247Y-85443989D02*
X111955247Y-90215498D01*
X111505246Y-84993988D02*
X111955247Y-85443989D01*
X109685246Y-104723987D02*
X109305257Y-104343998D01*
X109685246Y-106006987D02*
X109685246Y-104723987D01*
X110860247Y-107181988D02*
X109685246Y-106006987D01*
X109305257Y-104343998D02*
X109305257Y-99343998D01*
X120641747Y-138307488D02*
X122955247Y-135993988D01*
X120641747Y-140582988D02*
X120641747Y-138307488D01*
X122955247Y-133068988D02*
X123030247Y-132993988D01*
X122955247Y-135993988D02*
X122955247Y-133068988D01*
X123030247Y-131759988D02*
X122264247Y-130993988D01*
X123030247Y-132993988D02*
X123030247Y-131759988D01*
X115355247Y-128379488D02*
X116740747Y-126993988D01*
X114955247Y-126993988D02*
X113955247Y-125993988D01*
X116740747Y-126993988D02*
X114955247Y-126993988D01*
X115355247Y-133993988D02*
X115355247Y-128379488D01*
%TO.N,OUT_LED0_T*%
X106108500Y-40997450D02*
X106728923Y-40377027D01*
X106108500Y-44000000D02*
X106108500Y-40997450D01*
%TO.N,OUT_LED1_T*%
X106786157Y-49757657D02*
X106108500Y-49080000D01*
X106786157Y-55117030D02*
X106786157Y-49757657D01*
%TO.N,OUT_LED2_T*%
X106761460Y-73337026D02*
X106108062Y-73990424D01*
X106761460Y-69680369D02*
X106761460Y-73337026D01*
%TO.N,CLOCK_LED_T*%
X90724223Y-82376777D02*
X90170000Y-82931000D01*
X90724223Y-79080000D02*
X90724223Y-82376777D01*
%TO.N,RESET_LED_T*%
X106650890Y-82917387D02*
X106917387Y-82917387D01*
%TO.N,LED0_A_T*%
X90097039Y-43419039D02*
X90678000Y-44000000D01*
X90097039Y-40400894D02*
X90097039Y-43419039D01*
%TO.N,LED1_A_T*%
X90678000Y-54460919D02*
X90118652Y-55020267D01*
X90678000Y-49080000D02*
X90678000Y-54460919D01*
%TO.N,LED2_A_T*%
X90039574Y-73315351D02*
X90724223Y-74000000D01*
X90039574Y-69713968D02*
X90039574Y-73315351D01*
%TO.N,POT1_T*%
X90678000Y-46540000D02*
X90678000Y-46678000D01*
%TO.N,POT2_T*%
X103365466Y-76530424D02*
X98395890Y-81500000D01*
X106108062Y-76530424D02*
X103365466Y-76530424D01*
%TO.N,IN2_T*%
X90741500Y-143921500D02*
X90741500Y-92138500D01*
X93980000Y-147160000D02*
X90741500Y-143921500D01*
%TO.N,RESET_T*%
X94363691Y-89971881D02*
X94363691Y-89602793D01*
X101367190Y-96975380D02*
X94363691Y-89971881D01*
X102906116Y-96975380D02*
X101367190Y-96975380D01*
%TO.N,IN0_T*%
X92366511Y-117865775D02*
X94016116Y-119515380D01*
X91841500Y-87058500D02*
X92366511Y-87583511D01*
X92366511Y-87583511D02*
X92366511Y-117865775D01*
X90741500Y-87058500D02*
X91841500Y-87058500D01*
%TO.N,IN1_T*%
X91916501Y-122556501D02*
X93980000Y-124620000D01*
X91916501Y-90773501D02*
X91916501Y-122556501D01*
X90741500Y-89598500D02*
X91916501Y-90773501D01*
%TO.N,OUT1_T*%
X104742999Y-90773501D02*
X105918000Y-89598500D01*
X104742999Y-122747001D02*
X104742999Y-90773501D01*
X102870000Y-124620000D02*
X104742999Y-122747001D01*
%TO.N,OUT0_T*%
X104292989Y-118128507D02*
X102906116Y-119515380D01*
X104292989Y-88683511D02*
X104292989Y-118128507D01*
X105918000Y-87058500D02*
X104292989Y-88683511D01*
%TO.N,CLOCK_T*%
X94363691Y-92142793D02*
X94142793Y-92142793D01*
X94016116Y-92269470D02*
X94016116Y-96975380D01*
X94142793Y-92142793D02*
X94016116Y-92269470D01*
%TO.N,OUT2_T*%
X102870000Y-147160000D02*
X106840000Y-147160000D01*
X106840000Y-147160000D02*
X107000000Y-147000000D01*
X107000000Y-93220500D02*
X105918000Y-92138500D01*
X107000000Y-147000000D02*
X107000000Y-93220500D01*
%TO.N,VCC_B*%
X124093247Y-111842988D02*
X123043247Y-111842988D01*
X124168248Y-111917989D02*
X124093247Y-111842988D01*
X124168248Y-113177989D02*
X124168248Y-111917989D01*
X123903249Y-113442988D02*
X124168248Y-113177989D01*
X123043247Y-113442988D02*
X123903249Y-113442988D01*
X125798747Y-101355988D02*
X125798747Y-101150488D01*
X125957247Y-100991988D02*
X125957247Y-96212488D01*
X125798747Y-101150488D02*
X125957247Y-100991988D01*
X125957247Y-96212488D02*
X124163247Y-94418488D01*
X121193247Y-112642988D02*
X114543247Y-112642988D01*
X121993247Y-113442988D02*
X121193247Y-112642988D01*
X123043247Y-113442988D02*
X121993247Y-113442988D01*
X123306247Y-58772488D02*
X125084747Y-56993988D01*
X123306247Y-59747488D02*
X123306247Y-58772488D01*
X125084747Y-56993988D02*
X125955247Y-56993988D01*
X122993634Y-111892601D02*
X123043247Y-111842988D01*
X121877174Y-111892601D02*
X122993634Y-111892601D01*
X121877174Y-111892601D02*
X121853860Y-111892601D01*
X114162246Y-112498987D02*
X109460246Y-112498987D01*
X114306247Y-112642988D02*
X114162246Y-112498987D01*
X109460246Y-112498987D02*
X109460246Y-111498987D01*
X114543247Y-112642988D02*
X114306247Y-112642988D01*
X121193247Y-112642988D02*
X121193247Y-112755988D01*
X122955247Y-123993988D02*
X122955247Y-124052518D01*
X123698078Y-82125715D02*
X123698078Y-81736819D01*
X119967900Y-49981335D02*
X119967900Y-53981335D01*
X114366008Y-86972988D02*
X116007627Y-85331369D01*
X116007627Y-85331369D02*
X116007627Y-83046368D01*
X116007627Y-83046368D02*
X119989582Y-79064412D01*
X123521233Y-79064412D02*
X123591657Y-78993988D01*
X119989582Y-79064412D02*
X123521233Y-79064412D01*
X123591657Y-81630398D02*
X123698078Y-81736819D01*
X123591657Y-78993988D02*
X123591657Y-81630398D01*
X125318247Y-101355988D02*
X124680247Y-101993988D01*
X125798747Y-101355988D02*
X125318247Y-101355988D01*
X125955247Y-107819476D02*
X126015757Y-107879986D01*
X125955247Y-106993988D02*
X125955247Y-107819476D01*
X126015757Y-107879986D02*
X126015757Y-112933478D01*
X126015757Y-113933478D02*
X125955247Y-113993988D01*
X126015757Y-112933478D02*
X126015757Y-113933478D01*
X120978561Y-110993988D02*
X121877174Y-111892601D01*
X120130257Y-110993988D02*
X120978561Y-110993988D01*
X117955247Y-60360678D02*
X117955247Y-57993988D01*
X117046938Y-61268987D02*
X117955247Y-60360678D01*
X112680248Y-61268987D02*
X117046938Y-61268987D01*
X110008256Y-63940979D02*
X112680248Y-61268987D01*
X117955247Y-57993988D02*
X119767413Y-57993988D01*
X110008256Y-70046997D02*
X110008256Y-63940979D01*
X110955247Y-70993988D02*
X110882245Y-70993988D01*
X119767413Y-57993988D02*
X119808126Y-58034701D01*
X112955247Y-72993988D02*
X110955247Y-70993988D01*
X110008256Y-70046997D02*
X110008256Y-70993988D01*
X110008256Y-70993988D02*
X110955247Y-70993988D01*
X114142747Y-101181488D02*
X116956247Y-101181488D01*
X112955247Y-99993988D02*
X114142747Y-101181488D01*
X112906247Y-111042988D02*
X112004247Y-111042988D01*
X114543247Y-111042988D02*
X112906247Y-111042988D01*
X112906247Y-111042988D02*
X110442245Y-111042988D01*
X111955247Y-110993988D02*
X112004247Y-111042988D01*
X109986246Y-111498987D02*
X110442245Y-111042988D01*
X109460246Y-111498987D02*
X109986246Y-111498987D01*
X122313777Y-124693988D02*
X122955247Y-124052518D01*
X116740747Y-124693988D02*
X122313777Y-124693988D01*
X120385247Y-126622518D02*
X122955247Y-124052518D01*
X120385247Y-128472988D02*
X120385247Y-126622518D01*
X119585247Y-129272988D02*
X120385247Y-128472988D01*
X119585247Y-131623988D02*
X119585247Y-129272988D01*
X120955247Y-132993988D02*
X119585247Y-131623988D01*
X122005814Y-47943421D02*
X122578510Y-47943421D01*
X119967900Y-49981335D02*
X122005814Y-47943421D01*
X124163247Y-92325499D02*
X123831736Y-91993988D01*
X124163247Y-94418488D02*
X124163247Y-92325499D01*
X123628510Y-91790762D02*
X123831736Y-91993988D01*
X123628510Y-90913211D02*
X123628510Y-91790762D01*
X122578510Y-43420725D02*
X125005247Y-40993988D01*
X122578510Y-47943421D02*
X122578510Y-43420725D01*
%TO.N,GND_T*%
X107000000Y-63000000D02*
X105000000Y-65000000D01*
X107000000Y-62000000D02*
X107000000Y-63000000D01*
X95000000Y-65000000D02*
X92000000Y-62000000D01*
X105000000Y-65000000D02*
X95000000Y-65000000D01*
X90000000Y-64000000D02*
X92000000Y-62000000D01*
X90000000Y-65000000D02*
X90000000Y-64000000D01*
X95000000Y-65604110D02*
X95895890Y-66500000D01*
X95000000Y-65000000D02*
X95000000Y-65604110D01*
X95895890Y-66500000D02*
X95895890Y-81500000D01*
X101213382Y-88781618D02*
X99000000Y-90995000D01*
X101213382Y-88560253D02*
X101213382Y-88781618D01*
X99000000Y-89000000D02*
X97000000Y-87000000D01*
X99000000Y-90995000D02*
X99000000Y-89000000D01*
X102188372Y-93262139D02*
X103213382Y-92237129D01*
X99829875Y-93262139D02*
X102188372Y-93262139D01*
X99000000Y-92432264D02*
X99829875Y-93262139D01*
X99000000Y-90995000D02*
X99000000Y-92432264D01*
X94240000Y-136020000D02*
X93980000Y-135760000D01*
X102870000Y-136020000D02*
X94240000Y-136020000D01*
X94276116Y-108375380D02*
X94016116Y-108115380D01*
X102906116Y-108375380D02*
X94276116Y-108375380D01*
X102906116Y-108115380D02*
X102906116Y-108375380D01*
X103000000Y-92450511D02*
X103213382Y-92237129D01*
X103000000Y-95000000D02*
X103000000Y-92450511D01*
X97000000Y-87000000D02*
X97000000Y-86000000D01*
X97000000Y-86000000D02*
X95000000Y-84000000D01*
X95895890Y-58704110D02*
X95895890Y-51500000D01*
X92600000Y-62000000D02*
X95895890Y-58704110D01*
X92000000Y-62000000D02*
X92600000Y-62000000D01*
%TO.N,VCC_T*%
X100895890Y-51500000D02*
X100895890Y-51895890D01*
X94363691Y-87062793D02*
X94062793Y-87062793D01*
%TD*%
M02*
