%TF.GenerationSoftware,KiCad,Pcbnew,5.1.8*%
%TF.CreationDate,2020-11-17T21:54:47+01:00*%
%TF.ProjectId,kompas,6b6f6d70-6173-42e6-9b69-6361645f7063,rev?*%
%TF.SameCoordinates,Original*%
%TF.FileFunction,Soldermask,Bot*%
%TF.FilePolarity,Negative*%
%FSLAX46Y46*%
G04 Gerber Fmt 4.6, Leading zero omitted, Abs format (unit mm)*
G04 Created by KiCad (PCBNEW 5.1.8) date 2020-11-17 21:54:47*
%MOMM*%
%LPD*%
G01*
G04 APERTURE LIST*
%ADD10C,1.800000*%
%ADD11O,1.700000X1.700000*%
%ADD12R,1.700000X1.700000*%
%ADD13R,1.800000X1.800000*%
%ADD14C,1.300000*%
%ADD15C,2.000000*%
G04 APERTURE END LIST*
D10*
%TO.C,J_OUT0*%
X102906116Y-119515380D03*
X102906116Y-111215380D03*
%TD*%
%TO.C,J_IN0*%
X94016116Y-119515380D03*
X94016116Y-111215380D03*
%TD*%
%TO.C,J_IN2*%
X93980000Y-147160000D03*
X93980000Y-138860000D03*
%TD*%
%TO.C,J_OUT2*%
X102870000Y-147160000D03*
X102870000Y-138860000D03*
%TD*%
D11*
%TO.C,J6*%
X110771692Y-49486200D03*
X110771692Y-46946200D03*
D12*
X110771692Y-44406200D03*
%TD*%
%TO.C,J20*%
X94363691Y-87062793D03*
D11*
X94363691Y-89602793D03*
X94363691Y-92142793D03*
%TD*%
%TO.C,J12*%
X114366008Y-92052988D03*
X114366008Y-89512988D03*
D12*
X114366008Y-86972988D03*
%TD*%
D11*
%TO.C,J19*%
X90720271Y-78853952D03*
X90720271Y-76313952D03*
D12*
X90720271Y-73773952D03*
%TD*%
D11*
%TO.C,J18*%
X105918000Y-92138500D03*
X105918000Y-89598500D03*
D12*
X105918000Y-87058500D03*
%TD*%
D11*
%TO.C,J16*%
X90741500Y-92138500D03*
X90741500Y-89598500D03*
D12*
X90741500Y-87058500D03*
%TD*%
D11*
%TO.C,J15*%
X106107362Y-78853952D03*
X106107362Y-76313952D03*
D12*
X106107362Y-73773952D03*
%TD*%
D11*
%TO.C,J14*%
X106104316Y-49515441D03*
X106104316Y-46975441D03*
D12*
X106104316Y-44435441D03*
%TD*%
D11*
%TO.C,J13*%
X90703287Y-49538670D03*
X90703287Y-46998670D03*
D12*
X90703287Y-44458670D03*
%TD*%
D11*
%TO.C,J11*%
X110745537Y-78856062D03*
X110745537Y-76316062D03*
D12*
X110745537Y-73776062D03*
%TD*%
D11*
%TO.C,J10*%
X126181747Y-92043749D03*
X126181747Y-89503749D03*
D12*
X126181747Y-86963749D03*
%TD*%
D11*
%TO.C,J9*%
X110754167Y-92052988D03*
X110754167Y-89512988D03*
D12*
X110754167Y-86972988D03*
%TD*%
D11*
%TO.C,J8*%
X126167215Y-78856062D03*
X126167215Y-76316062D03*
D12*
X126167215Y-73776062D03*
%TD*%
D11*
%TO.C,J7*%
X126195950Y-49439741D03*
X126195950Y-46899741D03*
D12*
X126195950Y-44359741D03*
%TD*%
D10*
%TO.C,D2*%
X106728923Y-40377027D03*
D13*
X104188923Y-40377027D03*
%TD*%
D10*
%TO.C,D3*%
X106786157Y-55117030D03*
D13*
X104246157Y-55117030D03*
%TD*%
D11*
%TO.C,J4*%
X116889899Y-40785061D03*
X114349899Y-40785061D03*
X116889899Y-43325061D03*
X114349899Y-43325061D03*
X116889899Y-45865061D03*
X114349899Y-45865061D03*
X116889899Y-48405061D03*
X114349899Y-48405061D03*
X116889899Y-50945061D03*
D12*
X114349899Y-50945061D03*
%TD*%
D11*
%TO.C,J5*%
X110860247Y-109721988D03*
X110860247Y-107181988D03*
X110860247Y-104641988D03*
X110860247Y-102101988D03*
X110860247Y-99561988D03*
D12*
X110860247Y-97021988D03*
%TD*%
D10*
%TO.C,D4*%
X106761460Y-69680369D03*
D13*
X104221460Y-69680369D03*
%TD*%
D14*
%TO.C,RV2*%
X95895890Y-81500000D03*
X98395890Y-81500000D03*
X100895890Y-81500000D03*
D15*
X93595890Y-74000000D03*
X103195890Y-74000000D03*
%TD*%
D10*
%TO.C,J_OUT1*%
X102870000Y-124620000D03*
X102870000Y-136020000D03*
X102870000Y-132920000D03*
%TD*%
%TO.C,J_IN1*%
X93980000Y-124620000D03*
X93980000Y-136020000D03*
X93980000Y-132920000D03*
%TD*%
%TO.C,D9*%
X90039574Y-69713968D03*
D13*
X92579574Y-69713968D03*
%TD*%
D10*
%TO.C,D8*%
X90118652Y-55020267D03*
D13*
X92658652Y-55020267D03*
%TD*%
D10*
%TO.C,J_CLOCK0*%
X94016116Y-96975380D03*
X94016116Y-108375380D03*
X94016116Y-105275380D03*
%TD*%
%TO.C,D5*%
X90170000Y-82931000D03*
D13*
X92710000Y-82931000D03*
%TD*%
D10*
%TO.C,D6*%
X106650890Y-82917387D03*
D13*
X104110890Y-82917387D03*
%TD*%
D12*
%TO.C,J_POWER0*%
X110796747Y-144011988D03*
D11*
X110796747Y-146551988D03*
X113336747Y-144011988D03*
X113336747Y-146551988D03*
X115876747Y-144011988D03*
X115876747Y-146551988D03*
X118416747Y-144011988D03*
X118416747Y-146551988D03*
X120956747Y-144011988D03*
X120956747Y-146551988D03*
%TD*%
D10*
%TO.C,J_RESET0*%
X102906116Y-96975380D03*
X102906116Y-108375380D03*
X102906116Y-105275380D03*
%TD*%
%TO.C,D7*%
X90097039Y-40400894D03*
D13*
X92637039Y-40400894D03*
%TD*%
D14*
%TO.C,RV0*%
X95895890Y-51500000D03*
X98395890Y-51500000D03*
X100895890Y-51500000D03*
D15*
X93595890Y-44000000D03*
X103195890Y-44000000D03*
%TD*%
D14*
%TO.C,RV1*%
X95895890Y-66500000D03*
X98395890Y-66500000D03*
X100895890Y-66500000D03*
D15*
X93595890Y-59000000D03*
X103195890Y-59000000D03*
%TD*%
M02*
