%TF.GenerationSoftware,KiCad,Pcbnew,5.1.8*%
%TF.CreationDate,2020-11-17T21:54:47+01:00*%
%TF.ProjectId,kompas,6b6f6d70-6173-42e6-9b69-6361645f7063,rev?*%
%TF.SameCoordinates,Original*%
%TF.FileFunction,Legend,Bot*%
%TF.FilePolarity,Positive*%
%FSLAX46Y46*%
G04 Gerber Fmt 4.6, Leading zero omitted, Abs format (unit mm)*
G04 Created by KiCad (PCBNEW 5.1.8) date 2020-11-17 21:54:47*
%MOMM*%
%LPD*%
G01*
G04 APERTURE LIST*
%ADD10C,0.150000*%
%ADD11C,0.400000*%
%ADD12C,0.010000*%
G04 APERTURE END LIST*
D10*
X86153047Y-152614380D02*
X86153047Y-153328666D01*
X86200666Y-153471523D01*
X86295904Y-153566761D01*
X86438761Y-153614380D01*
X86534000Y-153614380D01*
X85200666Y-153614380D02*
X85676857Y-153614380D01*
X85676857Y-152614380D01*
X84295904Y-153519142D02*
X84343523Y-153566761D01*
X84486380Y-153614380D01*
X84581619Y-153614380D01*
X84724476Y-153566761D01*
X84819714Y-153471523D01*
X84867333Y-153376285D01*
X84914952Y-153185809D01*
X84914952Y-153042952D01*
X84867333Y-152852476D01*
X84819714Y-152757238D01*
X84724476Y-152662000D01*
X84581619Y-152614380D01*
X84486380Y-152614380D01*
X84343523Y-152662000D01*
X84295904Y-152709619D01*
X83581619Y-152614380D02*
X83581619Y-153328666D01*
X83629238Y-153471523D01*
X83724476Y-153566761D01*
X83867333Y-153614380D01*
X83962571Y-153614380D01*
X82629238Y-153614380D02*
X83105428Y-153614380D01*
X83105428Y-152614380D01*
X81724476Y-153519142D02*
X81772095Y-153566761D01*
X81914952Y-153614380D01*
X82010190Y-153614380D01*
X82153047Y-153566761D01*
X82248285Y-153471523D01*
X82295904Y-153376285D01*
X82343523Y-153185809D01*
X82343523Y-153042952D01*
X82295904Y-152852476D01*
X82248285Y-152757238D01*
X82153047Y-152662000D01*
X82010190Y-152614380D01*
X81914952Y-152614380D01*
X81772095Y-152662000D01*
X81724476Y-152709619D01*
X81010190Y-152614380D02*
X81010190Y-153328666D01*
X81057809Y-153471523D01*
X81153047Y-153566761D01*
X81295904Y-153614380D01*
X81391142Y-153614380D01*
X80057809Y-153614380D02*
X80534000Y-153614380D01*
X80534000Y-152614380D01*
X79153047Y-153519142D02*
X79200666Y-153566761D01*
X79343523Y-153614380D01*
X79438761Y-153614380D01*
X79581619Y-153566761D01*
X79676857Y-153471523D01*
X79724476Y-153376285D01*
X79772095Y-153185809D01*
X79772095Y-153042952D01*
X79724476Y-152852476D01*
X79676857Y-152757238D01*
X79581619Y-152662000D01*
X79438761Y-152614380D01*
X79343523Y-152614380D01*
X79200666Y-152662000D01*
X79153047Y-152709619D01*
X78438761Y-152614380D02*
X78438761Y-153328666D01*
X78486380Y-153471523D01*
X78581619Y-153566761D01*
X78724476Y-153614380D01*
X78819714Y-153614380D01*
X77486380Y-153614380D02*
X77962571Y-153614380D01*
X77962571Y-152614380D01*
X76581619Y-153519142D02*
X76629238Y-153566761D01*
X76772095Y-153614380D01*
X76867333Y-153614380D01*
X77010190Y-153566761D01*
X77105428Y-153471523D01*
X77153047Y-153376285D01*
X77200666Y-153185809D01*
X77200666Y-153042952D01*
X77153047Y-152852476D01*
X77105428Y-152757238D01*
X77010190Y-152662000D01*
X76867333Y-152614380D01*
X76772095Y-152614380D01*
X76629238Y-152662000D01*
X76581619Y-152709619D01*
X121217151Y-132071368D02*
X121217151Y-131071368D01*
X120645723Y-132071368D02*
X121074294Y-131499940D01*
X120645723Y-131071368D02*
X121217151Y-131642797D01*
X120026675Y-131071368D02*
X119836199Y-131071368D01*
X119740961Y-131118988D01*
X119645723Y-131214226D01*
X119598104Y-131404702D01*
X119598104Y-131738035D01*
X119645723Y-131928511D01*
X119740961Y-132023749D01*
X119836199Y-132071368D01*
X120026675Y-132071368D01*
X120121913Y-132023749D01*
X120217151Y-131928511D01*
X120264770Y-131738035D01*
X120264770Y-131404702D01*
X120217151Y-131214226D01*
X120121913Y-131118988D01*
X120026675Y-131071368D01*
X119169532Y-132071368D02*
X119169532Y-131071368D01*
X118836199Y-131785654D01*
X118502866Y-131071368D01*
X118502866Y-132071368D01*
X118026675Y-132071368D02*
X118026675Y-131071368D01*
X117645723Y-131071368D01*
X117550485Y-131118988D01*
X117502866Y-131166607D01*
X117455247Y-131261845D01*
X117455247Y-131404702D01*
X117502866Y-131499940D01*
X117550485Y-131547559D01*
X117645723Y-131595178D01*
X118026675Y-131595178D01*
X117074294Y-131785654D02*
X116598104Y-131785654D01*
X117169532Y-132071368D02*
X116836199Y-131071368D01*
X116502866Y-132071368D01*
X116217151Y-132023749D02*
X116074294Y-132071368D01*
X115836199Y-132071368D01*
X115740961Y-132023749D01*
X115693342Y-131976130D01*
X115645723Y-131880892D01*
X115645723Y-131785654D01*
X115693342Y-131690416D01*
X115740961Y-131642797D01*
X115836199Y-131595178D01*
X116026675Y-131547559D01*
X116121913Y-131499940D01*
X116169532Y-131452321D01*
X116217151Y-131357083D01*
X116217151Y-131261845D01*
X116169532Y-131166607D01*
X116121913Y-131118988D01*
X116026675Y-131071368D01*
X115788580Y-131071368D01*
X115645723Y-131118988D01*
X125288580Y-133673749D02*
X125145723Y-133721368D01*
X124907627Y-133721368D01*
X124812389Y-133673749D01*
X124764770Y-133626130D01*
X124717151Y-133530892D01*
X124717151Y-133435654D01*
X124764770Y-133340416D01*
X124812389Y-133292797D01*
X124907627Y-133245178D01*
X125098104Y-133197559D01*
X125193342Y-133149940D01*
X125240961Y-133102321D01*
X125288580Y-133007083D01*
X125288580Y-132911845D01*
X125240961Y-132816607D01*
X125193342Y-132768988D01*
X125098104Y-132721368D01*
X124860008Y-132721368D01*
X124717151Y-132768988D01*
X124431437Y-132721368D02*
X123860008Y-132721368D01*
X124145723Y-133721368D02*
X124145723Y-132721368D01*
X123621913Y-132721368D02*
X122955247Y-132721368D01*
X123621913Y-133721368D01*
X122955247Y-133721368D01*
X122574294Y-133721368D02*
X122574294Y-132721368D01*
X121907627Y-132721368D02*
X121717151Y-132721368D01*
X121621913Y-132768988D01*
X121526675Y-132864226D01*
X121479056Y-133054702D01*
X121479056Y-133388035D01*
X121526675Y-133578511D01*
X121621913Y-133673749D01*
X121717151Y-133721368D01*
X121907627Y-133721368D01*
X122002866Y-133673749D01*
X122098104Y-133578511D01*
X122145723Y-133388035D01*
X122145723Y-133054702D01*
X122098104Y-132864226D01*
X122002866Y-132768988D01*
X121907627Y-132721368D01*
X121050485Y-133721368D02*
X121050485Y-132721368D01*
X120669532Y-132721368D01*
X120574294Y-132768988D01*
X120526675Y-132816607D01*
X120479056Y-132911845D01*
X120479056Y-133054702D01*
X120526675Y-133149940D01*
X120574294Y-133197559D01*
X120669532Y-133245178D01*
X121050485Y-133245178D01*
X120098104Y-133435654D02*
X119621913Y-133435654D01*
X120193342Y-133721368D02*
X119860008Y-132721368D01*
X119526675Y-133721368D01*
X117717151Y-132673749D02*
X118574294Y-133959464D01*
X116669532Y-132673749D02*
X117526675Y-133959464D01*
X115240961Y-133197559D02*
X115098104Y-133245178D01*
X115050485Y-133292797D01*
X115002866Y-133388035D01*
X115002866Y-133530892D01*
X115050485Y-133626130D01*
X115098104Y-133673749D01*
X115193342Y-133721368D01*
X115574294Y-133721368D01*
X115574294Y-132721368D01*
X115240961Y-132721368D01*
X115145723Y-132768988D01*
X115098104Y-132816607D01*
X115050485Y-132911845D01*
X115050485Y-133007083D01*
X115098104Y-133102321D01*
X115145723Y-133149940D01*
X115240961Y-133197559D01*
X115574294Y-133197559D01*
X114621913Y-133435654D02*
X114145723Y-133435654D01*
X114717151Y-133721368D02*
X114383818Y-132721368D01*
X114050485Y-133721368D01*
X113764770Y-133673749D02*
X113621913Y-133721368D01*
X113383818Y-133721368D01*
X113288580Y-133673749D01*
X113240961Y-133626130D01*
X113193342Y-133530892D01*
X113193342Y-133435654D01*
X113240961Y-133340416D01*
X113288580Y-133292797D01*
X113383818Y-133245178D01*
X113574294Y-133197559D01*
X113669532Y-133149940D01*
X113717151Y-133102321D01*
X113764770Y-133007083D01*
X113764770Y-132911845D01*
X113717151Y-132816607D01*
X113669532Y-132768988D01*
X113574294Y-132721368D01*
X113336199Y-132721368D01*
X113193342Y-132768988D01*
X112907627Y-132721368D02*
X112336199Y-132721368D01*
X112621913Y-133721368D02*
X112621913Y-132721368D01*
X111526675Y-133721368D02*
X112002866Y-133721368D01*
X112002866Y-132721368D01*
X125693342Y-135466607D02*
X124931437Y-135466607D01*
X124931437Y-135466607D02*
X124169532Y-135466607D01*
X124169532Y-135466607D02*
X123407627Y-135466607D01*
X123407627Y-135466607D02*
X122645723Y-135466607D01*
X122645723Y-135466607D02*
X121883818Y-135466607D01*
X121883818Y-135466607D02*
X121121913Y-135466607D01*
X121121913Y-135466607D02*
X120360008Y-135466607D01*
X120360008Y-135466607D02*
X119598104Y-135466607D01*
X119598104Y-135466607D02*
X118836199Y-135466607D01*
X118836199Y-135466607D02*
X118074294Y-135466607D01*
X118074294Y-135466607D02*
X117312389Y-135466607D01*
X117312389Y-135466607D02*
X116550485Y-135466607D01*
X116550485Y-135466607D02*
X115788580Y-135466607D01*
X115788580Y-135466607D02*
X115026675Y-135466607D01*
X115026675Y-135466607D02*
X114264770Y-135466607D01*
X114264770Y-135466607D02*
X113502866Y-135466607D01*
X113502866Y-135466607D02*
X112740961Y-135466607D01*
X112740961Y-135466607D02*
X111979056Y-135466607D01*
X111979056Y-135466607D02*
X111217151Y-135466607D01*
X127312389Y-139004702D02*
X127312389Y-137576130D01*
X125883818Y-138623749D02*
X125788580Y-138671368D01*
X125598104Y-138671368D01*
X125502866Y-138623749D01*
X125455247Y-138528511D01*
X125455247Y-138480892D01*
X125502866Y-138385654D01*
X125598104Y-138338035D01*
X125740961Y-138338035D01*
X125836199Y-138290416D01*
X125883818Y-138195178D01*
X125883818Y-138147559D01*
X125836199Y-138052321D01*
X125740961Y-138004702D01*
X125598104Y-138004702D01*
X125502866Y-138052321D01*
X125026675Y-138671368D02*
X125026675Y-138004702D01*
X125026675Y-138099940D02*
X124979056Y-138052321D01*
X124883818Y-138004702D01*
X124740961Y-138004702D01*
X124645723Y-138052321D01*
X124598104Y-138147559D01*
X124598104Y-138671368D01*
X124598104Y-138147559D02*
X124550485Y-138052321D01*
X124455247Y-138004702D01*
X124312389Y-138004702D01*
X124217151Y-138052321D01*
X124169532Y-138147559D01*
X124169532Y-138671368D01*
X123264770Y-138671368D02*
X123264770Y-137671368D01*
X123264770Y-138623749D02*
X123360008Y-138671368D01*
X123550485Y-138671368D01*
X123645723Y-138623749D01*
X123693342Y-138576130D01*
X123740961Y-138480892D01*
X123740961Y-138195178D01*
X123693342Y-138099940D01*
X123645723Y-138052321D01*
X123550485Y-138004702D01*
X123360008Y-138004702D01*
X123264770Y-138052321D01*
X122026675Y-138671368D02*
X122026675Y-137671368D01*
X122026675Y-138052321D02*
X121931437Y-138004702D01*
X121740961Y-138004702D01*
X121645723Y-138052321D01*
X121598104Y-138099940D01*
X121550485Y-138195178D01*
X121550485Y-138480892D01*
X121598104Y-138576130D01*
X121645723Y-138623749D01*
X121740961Y-138671368D01*
X121931437Y-138671368D01*
X122026675Y-138623749D01*
X121217151Y-138004702D02*
X120979056Y-138671368D01*
X120740961Y-138004702D02*
X120979056Y-138671368D01*
X121074294Y-138909464D01*
X121121913Y-138957083D01*
X121217151Y-139004702D01*
X119598104Y-138671368D02*
X119598104Y-137671368D01*
X119217151Y-137671368D01*
X119121913Y-137718988D01*
X119074294Y-137766607D01*
X119026675Y-137861845D01*
X119026675Y-138004702D01*
X119074294Y-138099940D01*
X119121913Y-138147559D01*
X119217151Y-138195178D01*
X119598104Y-138195178D01*
X118598104Y-138671368D02*
X118598104Y-137671368D01*
X118598104Y-138147559D02*
X118026675Y-138147559D01*
X118026675Y-138671368D02*
X118026675Y-137671368D01*
X117550485Y-138671368D02*
X117550485Y-137671368D01*
X116598104Y-138671368D02*
X117074294Y-138671368D01*
X117074294Y-137671368D01*
X116074294Y-137671368D02*
X115883818Y-137671368D01*
X115788580Y-137718988D01*
X115693342Y-137814226D01*
X115645723Y-138004702D01*
X115645723Y-138338035D01*
X115693342Y-138528511D01*
X115788580Y-138623749D01*
X115883818Y-138671368D01*
X116074294Y-138671368D01*
X116169532Y-138623749D01*
X116264770Y-138528511D01*
X116312389Y-138338035D01*
X116312389Y-138004702D01*
X116264770Y-137814226D01*
X116169532Y-137718988D01*
X116074294Y-137671368D01*
X115217151Y-138671368D02*
X115217151Y-137671368D01*
X114883818Y-138385654D01*
X114550485Y-137671368D01*
X114550485Y-138671368D01*
X114121913Y-138385654D02*
X113645723Y-138385654D01*
X114217151Y-138671368D02*
X113883818Y-137671368D01*
X113550485Y-138671368D01*
X113360008Y-137671368D02*
X112788580Y-137671368D01*
X113074294Y-138671368D02*
X113074294Y-137671368D01*
X112455247Y-138147559D02*
X112121913Y-138147559D01*
X111979056Y-138671368D02*
X112455247Y-138671368D01*
X112455247Y-137671368D01*
X111979056Y-137671368D01*
X111598104Y-138623749D02*
X111455247Y-138671368D01*
X111217151Y-138671368D01*
X111121913Y-138623749D01*
X111074294Y-138576130D01*
X111026675Y-138480892D01*
X111026675Y-138385654D01*
X111074294Y-138290416D01*
X111121913Y-138242797D01*
X111217151Y-138195178D01*
X111407627Y-138147559D01*
X111502866Y-138099940D01*
X111550485Y-138052321D01*
X111598104Y-137957083D01*
X111598104Y-137861845D01*
X111550485Y-137766607D01*
X111502866Y-137718988D01*
X111407627Y-137671368D01*
X111169532Y-137671368D01*
X111026675Y-137718988D01*
X109598104Y-139004702D02*
X109598104Y-137576130D01*
X127312389Y-140654702D02*
X127312389Y-139226130D01*
X123550485Y-140321368D02*
X123550485Y-139321368D01*
X123550485Y-139702321D02*
X123455247Y-139654702D01*
X123264770Y-139654702D01*
X123169532Y-139702321D01*
X123121913Y-139749940D01*
X123074294Y-139845178D01*
X123074294Y-140130892D01*
X123121913Y-140226130D01*
X123169532Y-140273749D01*
X123264770Y-140321368D01*
X123455247Y-140321368D01*
X123550485Y-140273749D01*
X122502866Y-140321368D02*
X122598104Y-140273749D01*
X122645723Y-140226130D01*
X122693342Y-140130892D01*
X122693342Y-139845178D01*
X122645723Y-139749940D01*
X122598104Y-139702321D01*
X122502866Y-139654702D01*
X122360008Y-139654702D01*
X122264770Y-139702321D01*
X122217151Y-139749940D01*
X122169532Y-139845178D01*
X122169532Y-140130892D01*
X122217151Y-140226130D01*
X122264770Y-140273749D01*
X122360008Y-140321368D01*
X122502866Y-140321368D01*
X121883818Y-139654702D02*
X121502866Y-139654702D01*
X121740961Y-139321368D02*
X121740961Y-140178511D01*
X121693342Y-140273749D01*
X121598104Y-140321368D01*
X121502866Y-140321368D01*
X121312389Y-139654702D02*
X120931437Y-139654702D01*
X121169532Y-139321368D02*
X121169532Y-140178511D01*
X121121913Y-140273749D01*
X121026675Y-140321368D01*
X120931437Y-140321368D01*
X120455247Y-140321368D02*
X120550485Y-140273749D01*
X120598104Y-140226130D01*
X120645723Y-140130892D01*
X120645723Y-139845178D01*
X120598104Y-139749940D01*
X120550485Y-139702321D01*
X120455247Y-139654702D01*
X120312389Y-139654702D01*
X120217151Y-139702321D01*
X120169532Y-139749940D01*
X120121913Y-139845178D01*
X120121913Y-140130892D01*
X120169532Y-140226130D01*
X120217151Y-140273749D01*
X120312389Y-140321368D01*
X120455247Y-140321368D01*
X119693342Y-140321368D02*
X119693342Y-139654702D01*
X119693342Y-139749940D02*
X119645723Y-139702321D01*
X119550485Y-139654702D01*
X119407627Y-139654702D01*
X119312389Y-139702321D01*
X119264770Y-139797559D01*
X119264770Y-140321368D01*
X119264770Y-139797559D02*
X119217151Y-139702321D01*
X119121913Y-139654702D01*
X118979056Y-139654702D01*
X118883818Y-139702321D01*
X118836199Y-139797559D01*
X118836199Y-140321368D01*
X118598104Y-140416607D02*
X117836199Y-140416607D01*
X117836199Y-140416607D02*
X117074294Y-140416607D01*
X116836199Y-140321368D02*
X116836199Y-139654702D01*
X116836199Y-139845178D02*
X116788580Y-139749940D01*
X116740961Y-139702321D01*
X116645723Y-139654702D01*
X116550485Y-139654702D01*
X115836199Y-140273749D02*
X115931437Y-140321368D01*
X116121913Y-140321368D01*
X116217151Y-140273749D01*
X116264770Y-140178511D01*
X116264770Y-139797559D01*
X116217151Y-139702321D01*
X116121913Y-139654702D01*
X115931437Y-139654702D01*
X115836199Y-139702321D01*
X115788580Y-139797559D01*
X115788580Y-139892797D01*
X116264770Y-139988035D01*
X115455247Y-139654702D02*
X115217151Y-140321368D01*
X114979056Y-139654702D01*
X113312389Y-140321368D02*
X113883818Y-140321368D01*
X113598104Y-140321368D02*
X113598104Y-139321368D01*
X113693342Y-139464226D01*
X113788580Y-139559464D01*
X113883818Y-139607083D01*
X109598104Y-140654702D02*
X109598104Y-139226130D01*
X122102866Y-97055773D02*
X122055247Y-97103392D01*
X122007627Y-97198630D01*
X122007627Y-97436726D01*
X122055247Y-97531964D01*
X122102866Y-97579583D01*
X122198104Y-97627202D01*
X122293342Y-97627202D01*
X122436199Y-97579583D01*
X123007627Y-97008154D01*
X123007627Y-97627202D01*
X122007627Y-98531964D02*
X122007627Y-98055773D01*
X122483818Y-98008154D01*
X122436199Y-98055773D01*
X122388580Y-98151011D01*
X122388580Y-98389107D01*
X122436199Y-98484345D01*
X122483818Y-98531964D01*
X122579056Y-98579583D01*
X122817151Y-98579583D01*
X122912389Y-98531964D01*
X122960008Y-98484345D01*
X123007627Y-98389107D01*
X123007627Y-98151011D01*
X122960008Y-98055773D01*
X122912389Y-98008154D01*
X122007627Y-99151011D02*
X122055247Y-99055773D01*
X122150485Y-99008154D01*
X122245723Y-99055773D01*
X122293342Y-99151011D01*
X122245723Y-99246249D01*
X122150485Y-99293868D01*
X122055247Y-99246249D01*
X122007627Y-99151011D01*
X122007627Y-100722440D02*
X122007627Y-100817678D01*
X122055247Y-100912916D01*
X122102866Y-100960535D01*
X122198104Y-101008154D01*
X122388580Y-101055773D01*
X122626675Y-101055773D01*
X122817151Y-101008154D01*
X122912389Y-100960535D01*
X122960008Y-100912916D01*
X123007627Y-100817678D01*
X123007627Y-100722440D01*
X122960008Y-100627202D01*
X122912389Y-100579583D01*
X122817151Y-100531964D01*
X122626675Y-100484345D01*
X122388580Y-100484345D01*
X122198104Y-100531964D01*
X122102866Y-100579583D01*
X122055247Y-100627202D01*
X122007627Y-100722440D01*
X122007627Y-101674821D02*
X122007627Y-101770059D01*
X122055247Y-101865297D01*
X122102866Y-101912916D01*
X122198104Y-101960535D01*
X122388580Y-102008154D01*
X122626675Y-102008154D01*
X122817151Y-101960535D01*
X122912389Y-101912916D01*
X122960008Y-101865297D01*
X123007627Y-101770059D01*
X123007627Y-101674821D01*
X122960008Y-101579583D01*
X122912389Y-101531964D01*
X122817151Y-101484345D01*
X122626675Y-101436726D01*
X122388580Y-101436726D01*
X122198104Y-101484345D01*
X122102866Y-101531964D01*
X122055247Y-101579583D01*
X122007627Y-101674821D01*
X122007627Y-102484345D02*
X122198104Y-102389107D01*
X122007627Y-103865297D02*
X122007627Y-103960535D01*
X122055247Y-104055773D01*
X122102866Y-104103392D01*
X122198104Y-104151011D01*
X122388580Y-104198630D01*
X122626675Y-104198630D01*
X122817151Y-104151011D01*
X122912389Y-104103392D01*
X122960008Y-104055773D01*
X123007627Y-103960535D01*
X123007627Y-103865297D01*
X122960008Y-103770059D01*
X122912389Y-103722440D01*
X122817151Y-103674821D01*
X122626675Y-103627202D01*
X122388580Y-103627202D01*
X122198104Y-103674821D01*
X122102866Y-103722440D01*
X122055247Y-103770059D01*
X122007627Y-103865297D01*
X122912389Y-104627202D02*
X122960008Y-104674821D01*
X123007627Y-104627202D01*
X122960008Y-104579583D01*
X122912389Y-104627202D01*
X123007627Y-104627202D01*
X122007627Y-105293868D02*
X122007627Y-105389107D01*
X122055247Y-105484345D01*
X122102866Y-105531964D01*
X122198104Y-105579583D01*
X122388580Y-105627202D01*
X122626675Y-105627202D01*
X122817151Y-105579583D01*
X122912389Y-105531964D01*
X122960008Y-105484345D01*
X123007627Y-105389107D01*
X123007627Y-105293868D01*
X122960008Y-105198630D01*
X122912389Y-105151011D01*
X122817151Y-105103392D01*
X122626675Y-105055773D01*
X122388580Y-105055773D01*
X122198104Y-105103392D01*
X122102866Y-105151011D01*
X122055247Y-105198630D01*
X122007627Y-105293868D01*
X122007627Y-106246249D02*
X122007627Y-106341488D01*
X122055247Y-106436726D01*
X122102866Y-106484345D01*
X122198104Y-106531964D01*
X122388580Y-106579583D01*
X122626675Y-106579583D01*
X122817151Y-106531964D01*
X122912389Y-106484345D01*
X122960008Y-106436726D01*
X123007627Y-106341488D01*
X123007627Y-106246249D01*
X122960008Y-106151011D01*
X122912389Y-106103392D01*
X122817151Y-106055773D01*
X122626675Y-106008154D01*
X122388580Y-106008154D01*
X122198104Y-106055773D01*
X122102866Y-106103392D01*
X122055247Y-106151011D01*
X122007627Y-106246249D01*
X122007627Y-106960535D02*
X122198104Y-106960535D01*
X122007627Y-107341488D02*
X122198104Y-107341488D01*
X123007627Y-108531964D02*
X122007627Y-108531964D01*
X123007627Y-109103392D01*
X122007627Y-109103392D01*
X124276675Y-95579583D02*
X124276675Y-96341488D01*
X123657627Y-96722440D02*
X123657627Y-97389107D01*
X124657627Y-96960535D01*
X124657627Y-98293868D02*
X124657627Y-97722440D01*
X124657627Y-98008154D02*
X123657627Y-98008154D01*
X123800485Y-97912916D01*
X123895723Y-97817678D01*
X123943342Y-97722440D01*
X123657627Y-98865297D02*
X123705247Y-98770059D01*
X123800485Y-98722440D01*
X123895723Y-98770059D01*
X123943342Y-98865297D01*
X123895723Y-98960535D01*
X123800485Y-99008154D01*
X123705247Y-98960535D01*
X123657627Y-98865297D01*
X123657627Y-100436726D02*
X123657627Y-100531964D01*
X123705247Y-100627202D01*
X123752866Y-100674821D01*
X123848104Y-100722440D01*
X124038580Y-100770059D01*
X124276675Y-100770059D01*
X124467151Y-100722440D01*
X124562389Y-100674821D01*
X124610008Y-100627202D01*
X124657627Y-100531964D01*
X124657627Y-100436726D01*
X124610008Y-100341488D01*
X124562389Y-100293868D01*
X124467151Y-100246249D01*
X124276675Y-100198630D01*
X124038580Y-100198630D01*
X123848104Y-100246249D01*
X123752866Y-100293868D01*
X123705247Y-100341488D01*
X123657627Y-100436726D01*
X123657627Y-101389107D02*
X123657627Y-101484345D01*
X123705247Y-101579583D01*
X123752866Y-101627202D01*
X123848104Y-101674821D01*
X124038580Y-101722440D01*
X124276675Y-101722440D01*
X124467151Y-101674821D01*
X124562389Y-101627202D01*
X124610008Y-101579583D01*
X124657627Y-101484345D01*
X124657627Y-101389107D01*
X124610008Y-101293868D01*
X124562389Y-101246249D01*
X124467151Y-101198630D01*
X124276675Y-101151011D01*
X124038580Y-101151011D01*
X123848104Y-101198630D01*
X123752866Y-101246249D01*
X123705247Y-101293868D01*
X123657627Y-101389107D01*
X123657627Y-102198630D02*
X123848104Y-102103392D01*
X123657627Y-103579583D02*
X123657627Y-103674821D01*
X123705247Y-103770059D01*
X123752866Y-103817678D01*
X123848104Y-103865297D01*
X124038580Y-103912916D01*
X124276675Y-103912916D01*
X124467151Y-103865297D01*
X124562389Y-103817678D01*
X124610008Y-103770059D01*
X124657627Y-103674821D01*
X124657627Y-103579583D01*
X124610008Y-103484345D01*
X124562389Y-103436726D01*
X124467151Y-103389107D01*
X124276675Y-103341488D01*
X124038580Y-103341488D01*
X123848104Y-103389107D01*
X123752866Y-103436726D01*
X123705247Y-103484345D01*
X123657627Y-103579583D01*
X124562389Y-104341488D02*
X124610008Y-104389107D01*
X124657627Y-104341488D01*
X124610008Y-104293868D01*
X124562389Y-104341488D01*
X124657627Y-104341488D01*
X123657627Y-105008154D02*
X123657627Y-105103392D01*
X123705247Y-105198630D01*
X123752866Y-105246249D01*
X123848104Y-105293868D01*
X124038580Y-105341488D01*
X124276675Y-105341488D01*
X124467151Y-105293868D01*
X124562389Y-105246249D01*
X124610008Y-105198630D01*
X124657627Y-105103392D01*
X124657627Y-105008154D01*
X124610008Y-104912916D01*
X124562389Y-104865297D01*
X124467151Y-104817678D01*
X124276675Y-104770059D01*
X124038580Y-104770059D01*
X123848104Y-104817678D01*
X123752866Y-104865297D01*
X123705247Y-104912916D01*
X123657627Y-105008154D01*
X123657627Y-105960535D02*
X123657627Y-106055773D01*
X123705247Y-106151011D01*
X123752866Y-106198630D01*
X123848104Y-106246249D01*
X124038580Y-106293868D01*
X124276675Y-106293868D01*
X124467151Y-106246249D01*
X124562389Y-106198630D01*
X124610008Y-106151011D01*
X124657627Y-106055773D01*
X124657627Y-105960535D01*
X124610008Y-105865297D01*
X124562389Y-105817678D01*
X124467151Y-105770059D01*
X124276675Y-105722440D01*
X124038580Y-105722440D01*
X123848104Y-105770059D01*
X123752866Y-105817678D01*
X123705247Y-105865297D01*
X123657627Y-105960535D01*
X123657627Y-106674821D02*
X123848104Y-106674821D01*
X123657627Y-107055773D02*
X123848104Y-107055773D01*
X123657627Y-108151011D02*
X124657627Y-108389107D01*
X123943342Y-108579583D01*
X124657627Y-108770059D01*
X123657627Y-109008154D01*
X125307627Y-97293868D02*
X125307627Y-97389107D01*
X125355247Y-97484345D01*
X125402866Y-97531964D01*
X125498104Y-97579583D01*
X125688580Y-97627202D01*
X125926675Y-97627202D01*
X126117151Y-97579583D01*
X126212389Y-97531964D01*
X126260008Y-97484345D01*
X126307627Y-97389107D01*
X126307627Y-97293868D01*
X126260008Y-97198630D01*
X126212389Y-97151011D01*
X126117151Y-97103392D01*
X125926675Y-97055773D01*
X125688580Y-97055773D01*
X125498104Y-97103392D01*
X125402866Y-97151011D01*
X125355247Y-97198630D01*
X125307627Y-97293868D01*
X126212389Y-98055773D02*
X126260008Y-98103392D01*
X126307627Y-98055773D01*
X126260008Y-98008154D01*
X126212389Y-98055773D01*
X126307627Y-98055773D01*
X125307627Y-98722440D02*
X125307627Y-98817678D01*
X125355247Y-98912916D01*
X125402866Y-98960535D01*
X125498104Y-99008154D01*
X125688580Y-99055773D01*
X125926675Y-99055773D01*
X126117151Y-99008154D01*
X126212389Y-98960535D01*
X126260008Y-98912916D01*
X126307627Y-98817678D01*
X126307627Y-98722440D01*
X126260008Y-98627202D01*
X126212389Y-98579583D01*
X126117151Y-98531964D01*
X125926675Y-98484345D01*
X125688580Y-98484345D01*
X125498104Y-98531964D01*
X125402866Y-98579583D01*
X125355247Y-98627202D01*
X125307627Y-98722440D01*
X125307627Y-99674821D02*
X125307627Y-99770059D01*
X125355247Y-99865297D01*
X125402866Y-99912916D01*
X125498104Y-99960535D01*
X125688580Y-100008154D01*
X125926675Y-100008154D01*
X126117151Y-99960535D01*
X126212389Y-99912916D01*
X126260008Y-99865297D01*
X126307627Y-99770059D01*
X126307627Y-99674821D01*
X126260008Y-99579583D01*
X126212389Y-99531964D01*
X126117151Y-99484345D01*
X125926675Y-99436726D01*
X125688580Y-99436726D01*
X125498104Y-99484345D01*
X125402866Y-99531964D01*
X125355247Y-99579583D01*
X125307627Y-99674821D01*
X126307627Y-101198630D02*
X125307627Y-101198630D01*
X126021913Y-101531964D01*
X125307627Y-101865297D01*
X126307627Y-101865297D01*
X90960714Y-130654761D02*
X89532142Y-130654761D01*
X90579761Y-131321428D02*
X90627380Y-131416666D01*
X90627380Y-131607142D01*
X90579761Y-131702380D01*
X90484523Y-131750000D01*
X90436904Y-131750000D01*
X90341666Y-131702380D01*
X90294047Y-131607142D01*
X90294047Y-131464285D01*
X90246428Y-131369047D01*
X90151190Y-131321428D01*
X90103571Y-131321428D01*
X90008333Y-131369047D01*
X89960714Y-131464285D01*
X89960714Y-131607142D01*
X90008333Y-131702380D01*
X90627380Y-132178571D02*
X89960714Y-132178571D01*
X90055952Y-132178571D02*
X90008333Y-132226190D01*
X89960714Y-132321428D01*
X89960714Y-132464285D01*
X90008333Y-132559523D01*
X90103571Y-132607142D01*
X90627380Y-132607142D01*
X90103571Y-132607142D02*
X90008333Y-132654761D01*
X89960714Y-132750000D01*
X89960714Y-132892857D01*
X90008333Y-132988095D01*
X90103571Y-133035714D01*
X90627380Y-133035714D01*
X90627380Y-133940476D02*
X89627380Y-133940476D01*
X90579761Y-133940476D02*
X90627380Y-133845238D01*
X90627380Y-133654761D01*
X90579761Y-133559523D01*
X90532142Y-133511904D01*
X90436904Y-133464285D01*
X90151190Y-133464285D01*
X90055952Y-133511904D01*
X90008333Y-133559523D01*
X89960714Y-133654761D01*
X89960714Y-133845238D01*
X90008333Y-133940476D01*
X90627380Y-135178571D02*
X89627380Y-135178571D01*
X90008333Y-135178571D02*
X89960714Y-135273809D01*
X89960714Y-135464285D01*
X90008333Y-135559523D01*
X90055952Y-135607142D01*
X90151190Y-135654761D01*
X90436904Y-135654761D01*
X90532142Y-135607142D01*
X90579761Y-135559523D01*
X90627380Y-135464285D01*
X90627380Y-135273809D01*
X90579761Y-135178571D01*
X89960714Y-135988095D02*
X90627380Y-136226190D01*
X89960714Y-136464285D02*
X90627380Y-136226190D01*
X90865476Y-136130952D01*
X90913095Y-136083333D01*
X90960714Y-135988095D01*
X90627380Y-137607142D02*
X89627380Y-137607142D01*
X89627380Y-137988095D01*
X89675000Y-138083333D01*
X89722619Y-138130952D01*
X89817857Y-138178571D01*
X89960714Y-138178571D01*
X90055952Y-138130952D01*
X90103571Y-138083333D01*
X90151190Y-137988095D01*
X90151190Y-137607142D01*
X90627380Y-138607142D02*
X89627380Y-138607142D01*
X90103571Y-138607142D02*
X90103571Y-139178571D01*
X90627380Y-139178571D02*
X89627380Y-139178571D01*
X90627380Y-139654761D02*
X89627380Y-139654761D01*
X90627380Y-140607142D02*
X90627380Y-140130952D01*
X89627380Y-140130952D01*
X89627380Y-141130952D02*
X89627380Y-141321428D01*
X89675000Y-141416666D01*
X89770238Y-141511904D01*
X89960714Y-141559523D01*
X90294047Y-141559523D01*
X90484523Y-141511904D01*
X90579761Y-141416666D01*
X90627380Y-141321428D01*
X90627380Y-141130952D01*
X90579761Y-141035714D01*
X90484523Y-140940476D01*
X90294047Y-140892857D01*
X89960714Y-140892857D01*
X89770238Y-140940476D01*
X89675000Y-141035714D01*
X89627380Y-141130952D01*
X90627380Y-141988095D02*
X89627380Y-141988095D01*
X90341666Y-142321428D01*
X89627380Y-142654761D01*
X90627380Y-142654761D01*
X90341666Y-143083333D02*
X90341666Y-143559523D01*
X90627380Y-142988095D02*
X89627380Y-143321428D01*
X90627380Y-143654761D01*
X89627380Y-143845238D02*
X89627380Y-144416666D01*
X90627380Y-144130952D02*
X89627380Y-144130952D01*
X90103571Y-144750000D02*
X90103571Y-145083333D01*
X90627380Y-145226190D02*
X90627380Y-144750000D01*
X89627380Y-144750000D01*
X89627380Y-145226190D01*
X90579761Y-145607142D02*
X90627380Y-145750000D01*
X90627380Y-145988095D01*
X90579761Y-146083333D01*
X90532142Y-146130952D01*
X90436904Y-146178571D01*
X90341666Y-146178571D01*
X90246428Y-146130952D01*
X90198809Y-146083333D01*
X90151190Y-145988095D01*
X90103571Y-145797619D01*
X90055952Y-145702380D01*
X90008333Y-145654761D01*
X89913095Y-145607142D01*
X89817857Y-145607142D01*
X89722619Y-145654761D01*
X89675000Y-145702380D01*
X89627380Y-145797619D01*
X89627380Y-146035714D01*
X89675000Y-146178571D01*
X90960714Y-146845238D02*
X89532142Y-146845238D01*
X91610714Y-135297619D02*
X91610714Y-135678571D01*
X91277380Y-135440476D02*
X92134523Y-135440476D01*
X92229761Y-135488095D01*
X92277380Y-135583333D01*
X92277380Y-135678571D01*
X92277380Y-136154761D02*
X92229761Y-136059523D01*
X92182142Y-136011904D01*
X92086904Y-135964285D01*
X91801190Y-135964285D01*
X91705952Y-136011904D01*
X91658333Y-136059523D01*
X91610714Y-136154761D01*
X91610714Y-136297619D01*
X91658333Y-136392857D01*
X91705952Y-136440476D01*
X91801190Y-136488095D01*
X92086904Y-136488095D01*
X92182142Y-136440476D01*
X92229761Y-136392857D01*
X92277380Y-136297619D01*
X92277380Y-136154761D01*
X91610714Y-136916666D02*
X92610714Y-136916666D01*
X91658333Y-136916666D02*
X91610714Y-137011904D01*
X91610714Y-137202380D01*
X91658333Y-137297619D01*
X91705952Y-137345238D01*
X91801190Y-137392857D01*
X92086904Y-137392857D01*
X92182142Y-137345238D01*
X92229761Y-137297619D01*
X92277380Y-137202380D01*
X92277380Y-137011904D01*
X92229761Y-136916666D01*
X92372619Y-137583333D02*
X92372619Y-138345238D01*
X92372619Y-138345238D02*
X92372619Y-139107142D01*
X92277380Y-139345238D02*
X91610714Y-139345238D01*
X91801190Y-139345238D02*
X91705952Y-139392857D01*
X91658333Y-139440476D01*
X91610714Y-139535714D01*
X91610714Y-139630952D01*
X92229761Y-140345238D02*
X92277380Y-140250000D01*
X92277380Y-140059523D01*
X92229761Y-139964285D01*
X92134523Y-139916666D01*
X91753571Y-139916666D01*
X91658333Y-139964285D01*
X91610714Y-140059523D01*
X91610714Y-140250000D01*
X91658333Y-140345238D01*
X91753571Y-140392857D01*
X91848809Y-140392857D01*
X91944047Y-139916666D01*
X91610714Y-140726190D02*
X92277380Y-140964285D01*
X91610714Y-141202380D01*
X92277380Y-142107142D02*
X92277380Y-141535714D01*
X92277380Y-141821428D02*
X91277380Y-141821428D01*
X91420238Y-141726190D01*
X91515476Y-141630952D01*
X91563095Y-141535714D01*
X90377380Y-113988095D02*
X89377380Y-113988095D01*
X90377380Y-114559523D02*
X89805952Y-114130952D01*
X89377380Y-114559523D02*
X89948809Y-113988095D01*
X89377380Y-115178571D02*
X89377380Y-115369047D01*
X89425000Y-115464285D01*
X89520238Y-115559523D01*
X89710714Y-115607142D01*
X90044047Y-115607142D01*
X90234523Y-115559523D01*
X90329761Y-115464285D01*
X90377380Y-115369047D01*
X90377380Y-115178571D01*
X90329761Y-115083333D01*
X90234523Y-114988095D01*
X90044047Y-114940476D01*
X89710714Y-114940476D01*
X89520238Y-114988095D01*
X89425000Y-115083333D01*
X89377380Y-115178571D01*
X90377380Y-116035714D02*
X89377380Y-116035714D01*
X90091666Y-116369047D01*
X89377380Y-116702380D01*
X90377380Y-116702380D01*
X90377380Y-117178571D02*
X89377380Y-117178571D01*
X89377380Y-117559523D01*
X89425000Y-117654761D01*
X89472619Y-117702380D01*
X89567857Y-117750000D01*
X89710714Y-117750000D01*
X89805952Y-117702380D01*
X89853571Y-117654761D01*
X89901190Y-117559523D01*
X89901190Y-117178571D01*
X90091666Y-118130952D02*
X90091666Y-118607142D01*
X90377380Y-118035714D02*
X89377380Y-118369047D01*
X90377380Y-118702380D01*
X90329761Y-118988095D02*
X90377380Y-119130952D01*
X90377380Y-119369047D01*
X90329761Y-119464285D01*
X90282142Y-119511904D01*
X90186904Y-119559523D01*
X90091666Y-119559523D01*
X89996428Y-119511904D01*
X89948809Y-119464285D01*
X89901190Y-119369047D01*
X89853571Y-119178571D01*
X89805952Y-119083333D01*
X89758333Y-119035714D01*
X89663095Y-118988095D01*
X89567857Y-118988095D01*
X89472619Y-119035714D01*
X89425000Y-119083333D01*
X89377380Y-119178571D01*
X89377380Y-119416666D01*
X89425000Y-119559523D01*
X91979761Y-109916666D02*
X92027380Y-110059523D01*
X92027380Y-110297619D01*
X91979761Y-110392857D01*
X91932142Y-110440476D01*
X91836904Y-110488095D01*
X91741666Y-110488095D01*
X91646428Y-110440476D01*
X91598809Y-110392857D01*
X91551190Y-110297619D01*
X91503571Y-110107142D01*
X91455952Y-110011904D01*
X91408333Y-109964285D01*
X91313095Y-109916666D01*
X91217857Y-109916666D01*
X91122619Y-109964285D01*
X91075000Y-110011904D01*
X91027380Y-110107142D01*
X91027380Y-110345238D01*
X91075000Y-110488095D01*
X91027380Y-110773809D02*
X91027380Y-111345238D01*
X92027380Y-111059523D02*
X91027380Y-111059523D01*
X91027380Y-111583333D02*
X91027380Y-112250000D01*
X92027380Y-111583333D01*
X92027380Y-112250000D01*
X92027380Y-112630952D02*
X91027380Y-112630952D01*
X91027380Y-113297619D02*
X91027380Y-113488095D01*
X91075000Y-113583333D01*
X91170238Y-113678571D01*
X91360714Y-113726190D01*
X91694047Y-113726190D01*
X91884523Y-113678571D01*
X91979761Y-113583333D01*
X92027380Y-113488095D01*
X92027380Y-113297619D01*
X91979761Y-113202380D01*
X91884523Y-113107142D01*
X91694047Y-113059523D01*
X91360714Y-113059523D01*
X91170238Y-113107142D01*
X91075000Y-113202380D01*
X91027380Y-113297619D01*
X92027380Y-114154761D02*
X91027380Y-114154761D01*
X91027380Y-114535714D01*
X91075000Y-114630952D01*
X91122619Y-114678571D01*
X91217857Y-114726190D01*
X91360714Y-114726190D01*
X91455952Y-114678571D01*
X91503571Y-114630952D01*
X91551190Y-114535714D01*
X91551190Y-114154761D01*
X91741666Y-115107142D02*
X91741666Y-115583333D01*
X92027380Y-115011904D02*
X91027380Y-115345238D01*
X92027380Y-115678571D01*
X90979761Y-117488095D02*
X92265476Y-116630952D01*
X90979761Y-118535714D02*
X92265476Y-117678571D01*
X91503571Y-119964285D02*
X91551190Y-120107142D01*
X91598809Y-120154761D01*
X91694047Y-120202380D01*
X91836904Y-120202380D01*
X91932142Y-120154761D01*
X91979761Y-120107142D01*
X92027380Y-120011904D01*
X92027380Y-119630952D01*
X91027380Y-119630952D01*
X91027380Y-119964285D01*
X91075000Y-120059523D01*
X91122619Y-120107142D01*
X91217857Y-120154761D01*
X91313095Y-120154761D01*
X91408333Y-120107142D01*
X91455952Y-120059523D01*
X91503571Y-119964285D01*
X91503571Y-119630952D01*
X91741666Y-120583333D02*
X91741666Y-121059523D01*
X92027380Y-120488095D02*
X91027380Y-120821428D01*
X92027380Y-121154761D01*
X91979761Y-121440476D02*
X92027380Y-121583333D01*
X92027380Y-121821428D01*
X91979761Y-121916666D01*
X91932142Y-121964285D01*
X91836904Y-122011904D01*
X91741666Y-122011904D01*
X91646428Y-121964285D01*
X91598809Y-121916666D01*
X91551190Y-121821428D01*
X91503571Y-121630952D01*
X91455952Y-121535714D01*
X91408333Y-121488095D01*
X91313095Y-121440476D01*
X91217857Y-121440476D01*
X91122619Y-121488095D01*
X91075000Y-121535714D01*
X91027380Y-121630952D01*
X91027380Y-121869047D01*
X91075000Y-122011904D01*
X91027380Y-122297619D02*
X91027380Y-122869047D01*
X92027380Y-122583333D02*
X91027380Y-122583333D01*
X92027380Y-123678571D02*
X92027380Y-123202380D01*
X91027380Y-123202380D01*
X114407627Y-104196368D02*
X114074294Y-105196368D01*
X113740961Y-104196368D01*
X113407627Y-104815416D02*
X112645723Y-104815416D01*
X113026675Y-105196368D02*
X113026675Y-104434464D01*
X114252866Y-97696368D02*
X114586199Y-97220178D01*
X114824294Y-97696368D02*
X114824294Y-96696368D01*
X114443342Y-96696368D01*
X114348104Y-96743988D01*
X114300485Y-96791607D01*
X114252866Y-96886845D01*
X114252866Y-97029702D01*
X114300485Y-97124940D01*
X114348104Y-97172559D01*
X114443342Y-97220178D01*
X114824294Y-97220178D01*
X113871913Y-97648749D02*
X113729056Y-97696368D01*
X113490961Y-97696368D01*
X113395723Y-97648749D01*
X113348104Y-97601130D01*
X113300485Y-97505892D01*
X113300485Y-97410654D01*
X113348104Y-97315416D01*
X113395723Y-97267797D01*
X113490961Y-97220178D01*
X113681437Y-97172559D01*
X113776675Y-97124940D01*
X113824294Y-97077321D01*
X113871913Y-96982083D01*
X113871913Y-96886845D01*
X113824294Y-96791607D01*
X113776675Y-96743988D01*
X113681437Y-96696368D01*
X113443342Y-96696368D01*
X113300485Y-96743988D01*
X113014770Y-96696368D02*
X112443342Y-96696368D01*
X112729056Y-97696368D02*
X112729056Y-96696368D01*
X114467151Y-108993988D02*
X114562389Y-108946368D01*
X114705247Y-108946368D01*
X114848104Y-108993988D01*
X114943342Y-109089226D01*
X114990961Y-109184464D01*
X115038580Y-109374940D01*
X115038580Y-109517797D01*
X114990961Y-109708273D01*
X114943342Y-109803511D01*
X114848104Y-109898749D01*
X114705247Y-109946368D01*
X114610008Y-109946368D01*
X114467151Y-109898749D01*
X114419532Y-109851130D01*
X114419532Y-109517797D01*
X114610008Y-109517797D01*
X113990961Y-109946368D02*
X113990961Y-108946368D01*
X113419532Y-109946368D01*
X113419532Y-108946368D01*
X112943342Y-109946368D02*
X112943342Y-108946368D01*
X112705247Y-108946368D01*
X112562389Y-108993988D01*
X112467151Y-109089226D01*
X112419532Y-109184464D01*
X112371913Y-109374940D01*
X112371913Y-109517797D01*
X112419532Y-109708273D01*
X112467151Y-109803511D01*
X112562389Y-109898749D01*
X112705247Y-109946368D01*
X112943342Y-109946368D01*
X112002866Y-49732083D02*
X113002866Y-49732083D01*
X113002866Y-49351130D01*
X112955247Y-49255892D01*
X112907627Y-49208273D01*
X112812389Y-49160654D01*
X112669532Y-49160654D01*
X112574294Y-49208273D01*
X112526675Y-49255892D01*
X112479056Y-49351130D01*
X112479056Y-49732083D01*
X112002866Y-48732083D02*
X113002866Y-48732083D01*
X113002866Y-48493988D01*
X112955247Y-48351130D01*
X112860008Y-48255892D01*
X112764770Y-48208273D01*
X112574294Y-48160654D01*
X112431437Y-48160654D01*
X112240961Y-48208273D01*
X112145723Y-48255892D01*
X112050485Y-48351130D01*
X112002866Y-48493988D01*
X112002866Y-48732083D01*
X113002866Y-47827321D02*
X113002866Y-47160654D01*
X112002866Y-47589226D01*
X121074294Y-46196368D02*
X121550485Y-46196368D01*
X121550485Y-45196368D01*
X120740961Y-45672559D02*
X120407627Y-45672559D01*
X120264770Y-46196368D02*
X120740961Y-46196368D01*
X120740961Y-45196368D01*
X120264770Y-45196368D01*
X119836199Y-46196368D02*
X119836199Y-45196368D01*
X119598104Y-45196368D01*
X119455247Y-45243988D01*
X119360008Y-45339226D01*
X119312389Y-45434464D01*
X119264770Y-45624940D01*
X119264770Y-45767797D01*
X119312389Y-45958273D01*
X119360008Y-46053511D01*
X119455247Y-46148749D01*
X119598104Y-46196368D01*
X119836199Y-46196368D01*
X118883818Y-45291607D02*
X118836199Y-45243988D01*
X118740961Y-45196368D01*
X118502866Y-45196368D01*
X118407627Y-45243988D01*
X118360008Y-45291607D01*
X118312389Y-45386845D01*
X118312389Y-45482083D01*
X118360008Y-45624940D01*
X118931437Y-46196368D01*
X118312389Y-46196368D01*
X121074294Y-43696368D02*
X121550485Y-43696368D01*
X121550485Y-42696368D01*
X120740961Y-43172559D02*
X120407627Y-43172559D01*
X120264770Y-43696368D02*
X120740961Y-43696368D01*
X120740961Y-42696368D01*
X120264770Y-42696368D01*
X119836199Y-43696368D02*
X119836199Y-42696368D01*
X119598104Y-42696368D01*
X119455247Y-42743988D01*
X119360008Y-42839226D01*
X119312389Y-42934464D01*
X119264770Y-43124940D01*
X119264770Y-43267797D01*
X119312389Y-43458273D01*
X119360008Y-43553511D01*
X119455247Y-43648749D01*
X119598104Y-43696368D01*
X119836199Y-43696368D01*
X118312389Y-43696368D02*
X118883818Y-43696368D01*
X118598104Y-43696368D02*
X118598104Y-42696368D01*
X118693342Y-42839226D01*
X118788580Y-42934464D01*
X118883818Y-42982083D01*
X121074294Y-41196368D02*
X121550485Y-41196368D01*
X121550485Y-40196368D01*
X120740961Y-40672559D02*
X120407627Y-40672559D01*
X120264770Y-41196368D02*
X120740961Y-41196368D01*
X120740961Y-40196368D01*
X120264770Y-40196368D01*
X119836199Y-41196368D02*
X119836199Y-40196368D01*
X119598104Y-40196368D01*
X119455247Y-40243988D01*
X119360008Y-40339226D01*
X119312389Y-40434464D01*
X119264770Y-40624940D01*
X119264770Y-40767797D01*
X119312389Y-40958273D01*
X119360008Y-41053511D01*
X119455247Y-41148749D01*
X119598104Y-41196368D01*
X119836199Y-41196368D01*
X118645723Y-40196368D02*
X118550485Y-40196368D01*
X118455247Y-40243988D01*
X118407627Y-40291607D01*
X118360008Y-40386845D01*
X118312389Y-40577321D01*
X118312389Y-40815416D01*
X118360008Y-41005892D01*
X118407627Y-41101130D01*
X118455247Y-41148749D01*
X118550485Y-41196368D01*
X118645723Y-41196368D01*
X118740961Y-41148749D01*
X118788580Y-41101130D01*
X118836199Y-41005892D01*
X118883818Y-40815416D01*
X118883818Y-40577321D01*
X118836199Y-40386845D01*
X118788580Y-40291607D01*
X118740961Y-40243988D01*
X118645723Y-40196368D01*
X120943342Y-48946368D02*
X120943342Y-47946368D01*
X120562389Y-47946368D01*
X120467151Y-47993988D01*
X120419532Y-48041607D01*
X120371913Y-48136845D01*
X120371913Y-48279702D01*
X120419532Y-48374940D01*
X120467151Y-48422559D01*
X120562389Y-48470178D01*
X120943342Y-48470178D01*
X119610008Y-48422559D02*
X119467151Y-48470178D01*
X119419532Y-48517797D01*
X119371913Y-48613035D01*
X119371913Y-48755892D01*
X119419532Y-48851130D01*
X119467151Y-48898749D01*
X119562389Y-48946368D01*
X119943342Y-48946368D01*
X119943342Y-47946368D01*
X119610008Y-47946368D01*
X119514770Y-47993988D01*
X119467151Y-48041607D01*
X119419532Y-48136845D01*
X119419532Y-48232083D01*
X119467151Y-48327321D01*
X119514770Y-48374940D01*
X119610008Y-48422559D01*
X119943342Y-48422559D01*
X118752866Y-47946368D02*
X118657627Y-47946368D01*
X118562389Y-47993988D01*
X118514770Y-48041607D01*
X118467151Y-48136845D01*
X118419532Y-48327321D01*
X118419532Y-48565416D01*
X118467151Y-48755892D01*
X118514770Y-48851130D01*
X118562389Y-48898749D01*
X118657627Y-48946368D01*
X118752866Y-48946368D01*
X118848104Y-48898749D01*
X118895723Y-48851130D01*
X118943342Y-48755892D01*
X118990961Y-48565416D01*
X118990961Y-48327321D01*
X118943342Y-48136845D01*
X118895723Y-48041607D01*
X118848104Y-47993988D01*
X118752866Y-47946368D01*
X120717151Y-50743988D02*
X120812389Y-50696368D01*
X120955247Y-50696368D01*
X121098104Y-50743988D01*
X121193342Y-50839226D01*
X121240961Y-50934464D01*
X121288580Y-51124940D01*
X121288580Y-51267797D01*
X121240961Y-51458273D01*
X121193342Y-51553511D01*
X121098104Y-51648749D01*
X120955247Y-51696368D01*
X120860008Y-51696368D01*
X120717151Y-51648749D01*
X120669532Y-51601130D01*
X120669532Y-51267797D01*
X120860008Y-51267797D01*
X120240961Y-51696368D02*
X120240961Y-50696368D01*
X119669532Y-51696368D01*
X119669532Y-50696368D01*
X119193342Y-51696368D02*
X119193342Y-50696368D01*
X118955247Y-50696368D01*
X118812389Y-50743988D01*
X118717151Y-50839226D01*
X118669532Y-50934464D01*
X118621913Y-51124940D01*
X118621913Y-51267797D01*
X118669532Y-51458273D01*
X118717151Y-51553511D01*
X118812389Y-51648749D01*
X118955247Y-51696368D01*
X119193342Y-51696368D01*
X112407627Y-50696368D02*
X112074294Y-51696368D01*
X111740961Y-50696368D01*
X111407627Y-51315416D02*
X110645723Y-51315416D01*
X111026675Y-51696368D02*
X111026675Y-50934464D01*
X114467151Y-106743988D02*
X114562389Y-106696368D01*
X114705247Y-106696368D01*
X114848104Y-106743988D01*
X114943342Y-106839226D01*
X114990961Y-106934464D01*
X115038580Y-107124940D01*
X115038580Y-107267797D01*
X114990961Y-107458273D01*
X114943342Y-107553511D01*
X114848104Y-107648749D01*
X114705247Y-107696368D01*
X114610008Y-107696368D01*
X114467151Y-107648749D01*
X114419532Y-107601130D01*
X114419532Y-107267797D01*
X114610008Y-107267797D01*
X113990961Y-107696368D02*
X113990961Y-106696368D01*
X113419532Y-107696368D01*
X113419532Y-106696368D01*
X112943342Y-107696368D02*
X112943342Y-106696368D01*
X112705247Y-106696368D01*
X112562389Y-106743988D01*
X112467151Y-106839226D01*
X112419532Y-106934464D01*
X112371913Y-107124940D01*
X112371913Y-107267797D01*
X112419532Y-107458273D01*
X112467151Y-107553511D01*
X112562389Y-107648749D01*
X112705247Y-107696368D01*
X112943342Y-107696368D01*
X113371913Y-102696368D02*
X113705247Y-102220178D01*
X113943342Y-102696368D02*
X113943342Y-101696368D01*
X113562389Y-101696368D01*
X113467151Y-101743988D01*
X113419532Y-101791607D01*
X113371913Y-101886845D01*
X113371913Y-102029702D01*
X113419532Y-102124940D01*
X113467151Y-102172559D01*
X113562389Y-102220178D01*
X113943342Y-102220178D01*
X113038580Y-101696368D02*
X112371913Y-102696368D01*
X112371913Y-101696368D02*
X113038580Y-102696368D01*
X113967151Y-99196368D02*
X113395723Y-99196368D01*
X113681437Y-100196368D02*
X113681437Y-99196368D01*
X113157627Y-99196368D02*
X112490961Y-100196368D01*
X112490961Y-99196368D02*
X113157627Y-100196368D01*
X124582627Y-144351130D02*
X124106437Y-144017797D01*
X124582627Y-143779702D02*
X123582627Y-143779702D01*
X123582627Y-144160654D01*
X123630247Y-144255892D01*
X123677866Y-144303511D01*
X123773104Y-144351130D01*
X123915961Y-144351130D01*
X124011199Y-144303511D01*
X124058818Y-144255892D01*
X124106437Y-144160654D01*
X124106437Y-143779702D01*
X124058818Y-144779702D02*
X124058818Y-145113035D01*
X124582627Y-145255892D02*
X124582627Y-144779702D01*
X123582627Y-144779702D01*
X123582627Y-145255892D01*
X124582627Y-145684464D02*
X123582627Y-145684464D01*
X123582627Y-145922559D01*
X123630247Y-146065416D01*
X123725485Y-146160654D01*
X123820723Y-146208273D01*
X124011199Y-146255892D01*
X124154056Y-146255892D01*
X124344532Y-146208273D01*
X124439770Y-146160654D01*
X124535008Y-146065416D01*
X124582627Y-145922559D01*
X124582627Y-145684464D01*
X126185008Y-142636845D02*
X126232627Y-142779702D01*
X126232627Y-143017797D01*
X126185008Y-143113035D01*
X126137389Y-143160654D01*
X126042151Y-143208273D01*
X125946913Y-143208273D01*
X125851675Y-143160654D01*
X125804056Y-143113035D01*
X125756437Y-143017797D01*
X125708818Y-142827321D01*
X125661199Y-142732083D01*
X125613580Y-142684464D01*
X125518342Y-142636845D01*
X125423104Y-142636845D01*
X125327866Y-142684464D01*
X125280247Y-142732083D01*
X125232627Y-142827321D01*
X125232627Y-143065416D01*
X125280247Y-143208273D01*
X125232627Y-143493988D02*
X125232627Y-144065416D01*
X126232627Y-143779702D02*
X125232627Y-143779702D01*
X126232627Y-144970178D02*
X125756437Y-144636845D01*
X126232627Y-144398749D02*
X125232627Y-144398749D01*
X125232627Y-144779702D01*
X125280247Y-144874940D01*
X125327866Y-144922559D01*
X125423104Y-144970178D01*
X125565961Y-144970178D01*
X125661199Y-144922559D01*
X125708818Y-144874940D01*
X125756437Y-144779702D01*
X125756437Y-144398749D01*
X126232627Y-145398749D02*
X125232627Y-145398749D01*
X126232627Y-145874940D02*
X125232627Y-145874940D01*
X125232627Y-146255892D01*
X125280247Y-146351130D01*
X125327866Y-146398749D01*
X125423104Y-146446368D01*
X125565961Y-146446368D01*
X125661199Y-146398749D01*
X125708818Y-146351130D01*
X125756437Y-146255892D01*
X125756437Y-145874940D01*
X125708818Y-146874940D02*
X125708818Y-147208273D01*
X126232627Y-147351130D02*
X126232627Y-146874940D01*
X125232627Y-146874940D01*
X125232627Y-147351130D01*
D11*
X123090751Y-147493988D02*
X123090751Y-142493988D01*
D12*
%TO.C,G\u002A\u002A\u002A*%
G36*
X111267018Y-113351832D02*
G01*
X111242627Y-113549881D01*
X111227943Y-113897349D01*
X111222760Y-114374616D01*
X111226867Y-114962058D01*
X111240058Y-115640053D01*
X111262125Y-116388979D01*
X111292858Y-117189212D01*
X111312301Y-117621333D01*
X111339443Y-118255135D01*
X111366767Y-118999435D01*
X111392395Y-119795408D01*
X111414448Y-120584233D01*
X111431048Y-121307085D01*
X111432630Y-121389000D01*
X111446345Y-122055472D01*
X111462747Y-122754094D01*
X111480592Y-123437821D01*
X111498632Y-124059608D01*
X111515624Y-124572412D01*
X111520060Y-124691000D01*
X111537670Y-125231434D01*
X111550657Y-125800478D01*
X111557911Y-126335313D01*
X111558325Y-126773120D01*
X111557738Y-126825831D01*
X111554307Y-127215697D01*
X111560823Y-127468306D01*
X111583814Y-127615700D01*
X111629814Y-127689920D01*
X111705352Y-127723007D01*
X111742297Y-127731282D01*
X111935051Y-127752671D01*
X112278292Y-127770677D01*
X112753209Y-127785212D01*
X113340987Y-127796183D01*
X114022814Y-127803501D01*
X114779876Y-127807075D01*
X115593361Y-127806814D01*
X116444455Y-127802629D01*
X117314344Y-127794428D01*
X118184216Y-127782121D01*
X119008000Y-127766223D01*
X119919855Y-127746197D01*
X120683868Y-127729909D01*
X121321484Y-127717202D01*
X121854152Y-127707918D01*
X122303316Y-127701902D01*
X122690423Y-127698995D01*
X123036920Y-127699040D01*
X123364253Y-127701882D01*
X123693868Y-127707361D01*
X124047211Y-127715322D01*
X124445729Y-127725608D01*
X124469000Y-127726227D01*
X124905634Y-127735092D01*
X125284854Y-127737590D01*
X125572848Y-127733884D01*
X125735807Y-127724141D01*
X125755543Y-127719960D01*
X125783084Y-127626742D01*
X125788483Y-127569667D01*
X111726666Y-127569667D01*
X111684333Y-127612000D01*
X111642000Y-127569667D01*
X111684333Y-127527333D01*
X111726666Y-127569667D01*
X125788483Y-127569667D01*
X125804503Y-127400333D01*
X123410666Y-127400333D01*
X123368333Y-127442667D01*
X123349421Y-127423754D01*
X123236009Y-127423754D01*
X123159750Y-127441083D01*
X123140497Y-127441370D01*
X122987410Y-127398227D01*
X122945000Y-127358000D01*
X122938168Y-127283208D01*
X123039125Y-127295638D01*
X123156666Y-127358000D01*
X123236009Y-127423754D01*
X123349421Y-127423754D01*
X123326000Y-127400333D01*
X123368333Y-127358000D01*
X123410666Y-127400333D01*
X125804503Y-127400333D01*
X125806489Y-127379341D01*
X125814649Y-127216889D01*
X116947778Y-127216889D01*
X116936155Y-127267223D01*
X116891333Y-127273333D01*
X116821643Y-127242355D01*
X116834889Y-127216889D01*
X116935368Y-127206756D01*
X116947778Y-127216889D01*
X125814649Y-127216889D01*
X125818902Y-127132222D01*
X121435111Y-127132222D01*
X121423489Y-127182556D01*
X121378666Y-127188667D01*
X121308976Y-127157688D01*
X121322222Y-127132222D01*
X121422702Y-127122089D01*
X121435111Y-127132222D01*
X125818902Y-127132222D01*
X125824572Y-127019333D01*
X111882631Y-127019333D01*
X111869326Y-127139529D01*
X111839927Y-127125167D01*
X111828744Y-126951824D01*
X111839927Y-126913500D01*
X111870829Y-126902864D01*
X111882631Y-127019333D01*
X125824572Y-127019333D01*
X125825903Y-126992851D01*
X125831764Y-126800611D01*
X123149982Y-126800611D01*
X123134416Y-126910425D01*
X123105514Y-126911736D01*
X123102054Y-126892333D01*
X121548000Y-126892333D01*
X121505666Y-126934667D01*
X121463333Y-126892333D01*
X121505666Y-126850000D01*
X121548000Y-126892333D01*
X123102054Y-126892333D01*
X123086952Y-126807667D01*
X121886666Y-126807667D01*
X121844333Y-126850000D01*
X121802000Y-126807667D01*
X121844333Y-126765333D01*
X121886666Y-126807667D01*
X123086952Y-126807667D01*
X123085302Y-126798419D01*
X123098830Y-126749458D01*
X123136424Y-126717388D01*
X123149982Y-126800611D01*
X125831764Y-126800611D01*
X125841467Y-126482368D01*
X125853327Y-125862989D01*
X125858067Y-125455603D01*
X112073027Y-125455603D01*
X111996544Y-125615875D01*
X111885633Y-125664667D01*
X111838168Y-125589866D01*
X111813614Y-125404394D01*
X111812630Y-125347167D01*
X111824028Y-125154616D01*
X111860458Y-125115073D01*
X111896000Y-125156667D01*
X111963423Y-125240974D01*
X111986083Y-125177279D01*
X111987810Y-125156667D01*
X112013401Y-125129472D01*
X112060328Y-125241333D01*
X112073027Y-125455603D01*
X125858067Y-125455603D01*
X125861135Y-125191944D01*
X124843316Y-125191944D01*
X124827749Y-125301758D01*
X124798847Y-125303069D01*
X124784652Y-125223478D01*
X121294000Y-125223478D01*
X121283920Y-125313578D01*
X121241650Y-125285514D01*
X121240597Y-125283667D01*
X119600666Y-125283667D01*
X119558333Y-125326000D01*
X119516000Y-125283667D01*
X119558333Y-125241333D01*
X119600666Y-125283667D01*
X121240597Y-125283667D01*
X121192293Y-125199000D01*
X120278000Y-125199000D01*
X120235666Y-125241333D01*
X120193333Y-125199000D01*
X120235666Y-125156667D01*
X120278000Y-125199000D01*
X121192293Y-125199000D01*
X121149144Y-125123369D01*
X121122273Y-125072000D01*
X121095195Y-125015555D01*
X120165111Y-125015555D01*
X120153489Y-125065890D01*
X120108666Y-125072000D01*
X120038976Y-125041022D01*
X120052222Y-125015555D01*
X120152702Y-125005422D01*
X120165111Y-125015555D01*
X121095195Y-125015555D01*
X121054506Y-124930742D01*
X121075782Y-124916774D01*
X121153138Y-124976533D01*
X121268667Y-125128005D01*
X121294000Y-125223478D01*
X124784652Y-125223478D01*
X124778636Y-125189752D01*
X124792163Y-125140792D01*
X124823179Y-125114333D01*
X124596000Y-125114333D01*
X124553666Y-125156667D01*
X124511333Y-125114333D01*
X124553666Y-125072000D01*
X124596000Y-125114333D01*
X124823179Y-125114333D01*
X124829758Y-125108721D01*
X124843316Y-125191944D01*
X125861135Y-125191944D01*
X125861626Y-125149808D01*
X125863670Y-124818000D01*
X124511333Y-124818000D01*
X124480355Y-124887690D01*
X124454889Y-124874444D01*
X124452129Y-124847073D01*
X124224028Y-124847073D01*
X124208717Y-124930842D01*
X124140777Y-125058576D01*
X124100083Y-125020038D01*
X124088000Y-124843400D01*
X124108515Y-124692382D01*
X124172710Y-124699560D01*
X124175442Y-124702242D01*
X124224028Y-124847073D01*
X124452129Y-124847073D01*
X124444756Y-124773965D01*
X124454889Y-124761555D01*
X124505223Y-124773178D01*
X124511333Y-124818000D01*
X125863670Y-124818000D01*
X125865757Y-124479333D01*
X124497965Y-124479333D01*
X124484659Y-124599529D01*
X124455260Y-124585167D01*
X124444077Y-124411824D01*
X124455260Y-124373500D01*
X124486163Y-124362864D01*
X124497965Y-124479333D01*
X125865757Y-124479333D01*
X125866506Y-124357921D01*
X125868111Y-123502423D01*
X125866586Y-122598411D01*
X125862073Y-121660979D01*
X125862042Y-121656926D01*
X124220124Y-121656926D01*
X124173171Y-121727059D01*
X123986272Y-121882527D01*
X123769538Y-121971206D01*
X123587617Y-121970283D01*
X123547797Y-121947741D01*
X123414365Y-121745636D01*
X123319179Y-121412905D01*
X123268365Y-120985178D01*
X123268053Y-120498088D01*
X123276604Y-120370980D01*
X123301305Y-120016844D01*
X123301705Y-119788359D01*
X123272209Y-119642879D01*
X123207222Y-119537757D01*
X123160752Y-119488085D01*
X122943710Y-119332316D01*
X122770683Y-119336178D01*
X122646870Y-119494479D01*
X122577471Y-119802026D01*
X122564000Y-120084115D01*
X122532735Y-120299068D01*
X122452646Y-120588629D01*
X122386920Y-120772032D01*
X122284393Y-121088408D01*
X122250710Y-121382049D01*
X122291029Y-121695255D01*
X122410509Y-122070327D01*
X122599748Y-122517416D01*
X122745762Y-122845824D01*
X122829174Y-123064164D01*
X122857353Y-123216567D01*
X122837670Y-123347164D01*
X122777493Y-123500088D01*
X122767618Y-123522681D01*
X122655004Y-123921626D01*
X122665578Y-124290830D01*
X122732671Y-124478097D01*
X122741181Y-124647598D01*
X122613323Y-124806628D01*
X122380058Y-124918734D01*
X122352333Y-124925911D01*
X122155413Y-124951623D01*
X122013124Y-124890010D01*
X121857331Y-124711123D01*
X121854226Y-124706970D01*
X121684482Y-124479617D01*
X121967104Y-123895408D01*
X122086208Y-123632667D01*
X121209333Y-123632667D01*
X121178355Y-123702357D01*
X121152889Y-123689111D01*
X121142756Y-123588631D01*
X121152889Y-123576222D01*
X121203223Y-123587844D01*
X121209333Y-123632667D01*
X122086208Y-123632667D01*
X122116441Y-123565975D01*
X122193130Y-123326512D01*
X122210600Y-123121167D01*
X122192953Y-122956164D01*
X122100853Y-122591838D01*
X121958009Y-122263146D01*
X121788450Y-122014905D01*
X121623516Y-121894096D01*
X121475065Y-121878585D01*
X121374444Y-121961900D01*
X121304747Y-122169325D01*
X121260509Y-122437008D01*
X121153546Y-122856227D01*
X120940724Y-123192814D01*
X120593415Y-123488736D01*
X120502129Y-123548744D01*
X120187388Y-123796003D01*
X120010712Y-124074173D01*
X119942849Y-124436535D01*
X119939333Y-124573936D01*
X119939333Y-124911516D01*
X119494833Y-124885924D01*
X119050333Y-124860333D01*
X119024420Y-124502993D01*
X119057567Y-124161997D01*
X119216320Y-123827521D01*
X119513332Y-123479859D01*
X119890193Y-123154352D01*
X120209709Y-122878641D01*
X120424349Y-122615461D01*
X120558394Y-122315886D01*
X120636127Y-121930986D01*
X120670180Y-121582680D01*
X120728285Y-121108068D01*
X120820459Y-120722327D01*
X120887213Y-120555317D01*
X121023421Y-120188707D01*
X121050864Y-119865517D01*
X120966596Y-119625059D01*
X120957767Y-119613933D01*
X120773968Y-119498701D01*
X120560314Y-119525285D01*
X120345941Y-119676774D01*
X120159983Y-119936256D01*
X120078464Y-120124300D01*
X119934202Y-120415334D01*
X119733444Y-120690556D01*
X119694408Y-120731900D01*
X119524534Y-120929718D01*
X119461949Y-121108060D01*
X119470389Y-121304946D01*
X119470665Y-121556054D01*
X119370294Y-121747947D01*
X119296467Y-121827896D01*
X119148048Y-121964425D01*
X119050863Y-121988766D01*
X118939035Y-121911036D01*
X118912189Y-121886915D01*
X118787129Y-121693267D01*
X118783118Y-121560698D01*
X118858992Y-121347272D01*
X118165489Y-121347272D01*
X118107951Y-121554179D01*
X117960118Y-121712309D01*
X117753213Y-121770000D01*
X117643983Y-121690397D01*
X117534833Y-121471324D01*
X117435235Y-121142383D01*
X117354665Y-120733175D01*
X117312593Y-120393225D01*
X117253781Y-119926067D01*
X117176171Y-119603204D01*
X117077862Y-119405277D01*
X116906933Y-119220017D01*
X116784514Y-119191923D01*
X116707067Y-119323506D01*
X116671051Y-119617277D01*
X116668509Y-119695667D01*
X116646420Y-120016788D01*
X116601397Y-120304416D01*
X116562676Y-120442012D01*
X116518986Y-120624351D01*
X116488341Y-120889171D01*
X116471724Y-121189929D01*
X116470117Y-121480080D01*
X116484503Y-121713082D01*
X116515864Y-121842392D01*
X116532857Y-121854667D01*
X116624501Y-121923721D01*
X116758240Y-122099181D01*
X116905669Y-122333491D01*
X117038385Y-122579095D01*
X117127985Y-122788439D01*
X117149836Y-122887672D01*
X117135299Y-123078220D01*
X117094414Y-123359719D01*
X117057334Y-123562298D01*
X117008203Y-123864988D01*
X117012130Y-124078386D01*
X117073567Y-124275406D01*
X117105090Y-124344779D01*
X117201086Y-124620180D01*
X117165264Y-124804877D01*
X116983333Y-124930070D01*
X116811380Y-124986064D01*
X116463835Y-125027757D01*
X116220746Y-124936860D01*
X116082375Y-124718762D01*
X116077022Y-124557799D01*
X116197151Y-124410978D01*
X116256427Y-124365330D01*
X116532722Y-124068343D01*
X116682021Y-123698806D01*
X116696119Y-123302266D01*
X116566809Y-122924272D01*
X116527397Y-122861315D01*
X116388157Y-122640823D01*
X116289279Y-122457500D01*
X116277023Y-122428689D01*
X116158980Y-122301135D01*
X115991674Y-122225426D01*
X115786560Y-122216566D01*
X115625221Y-122337436D01*
X115607048Y-122359282D01*
X115492272Y-122550308D01*
X115452000Y-122700346D01*
X115390899Y-122882420D01*
X115335203Y-122946865D01*
X115232995Y-123098162D01*
X115169758Y-123287045D01*
X115059027Y-123511964D01*
X114825974Y-123768185D01*
X114736221Y-123845678D01*
X114491765Y-124065905D01*
X114379046Y-124243503D01*
X114386555Y-124426142D01*
X114502780Y-124661493D01*
X114528900Y-124704322D01*
X114631483Y-124917617D01*
X114664367Y-125088251D01*
X114658557Y-125116482D01*
X114546863Y-125208408D01*
X114362306Y-125239749D01*
X114192590Y-125203714D01*
X114139666Y-125156667D01*
X114019845Y-125084695D01*
X113928709Y-125072000D01*
X113755220Y-125015016D01*
X113703588Y-124848237D01*
X113722049Y-124775667D01*
X112065333Y-124775667D01*
X112023000Y-124818000D01*
X111980666Y-124775667D01*
X112023000Y-124733333D01*
X112065333Y-124775667D01*
X113722049Y-124775667D01*
X113772357Y-124577920D01*
X113960076Y-124210323D01*
X114033710Y-124098333D01*
X112742666Y-124098333D01*
X112700333Y-124140667D01*
X112658000Y-124098333D01*
X112700333Y-124056000D01*
X112742666Y-124098333D01*
X114033710Y-124098333D01*
X114221277Y-123813065D01*
X114488550Y-123411437D01*
X114588222Y-123217952D01*
X113051283Y-123217952D01*
X113022328Y-123345382D01*
X112970369Y-123457160D01*
X112941203Y-123411864D01*
X112928184Y-123350873D01*
X112925225Y-123196296D01*
X112946849Y-123146262D01*
X113024715Y-123123839D01*
X113051283Y-123217952D01*
X114588222Y-123217952D01*
X114657190Y-123084071D01*
X114746166Y-122783391D01*
X114774446Y-122461824D01*
X114774666Y-122425107D01*
X114817874Y-122009252D01*
X114932667Y-121644213D01*
X114936599Y-121635978D01*
X115030890Y-121369200D01*
X115091456Y-121012507D01*
X115124426Y-120528484D01*
X115126211Y-120478539D01*
X115135738Y-120091291D01*
X115129119Y-119834292D01*
X115100546Y-119668773D01*
X115044209Y-119555965D01*
X114976402Y-119478772D01*
X114798913Y-119301283D01*
X114502040Y-119710141D01*
X114277063Y-120028176D01*
X114127881Y-120278155D01*
X114039616Y-120510491D01*
X113997388Y-120775595D01*
X113986319Y-121123880D01*
X113989195Y-121447775D01*
X113991307Y-121864065D01*
X113979970Y-122149026D01*
X113949885Y-122340465D01*
X113895752Y-122476189D01*
X113831923Y-122569608D01*
X113659564Y-122722034D01*
X113482999Y-122785996D01*
X113481988Y-122786000D01*
X113318494Y-122731688D01*
X113118587Y-122599582D01*
X112938665Y-122435932D01*
X112835126Y-122286984D01*
X112827333Y-122249174D01*
X112881828Y-122151869D01*
X113025627Y-121970747D01*
X113229206Y-121742629D01*
X113258595Y-121711366D01*
X113689857Y-121255370D01*
X113621583Y-120729518D01*
X113571905Y-120270954D01*
X113566074Y-119941040D01*
X113610492Y-119703290D01*
X113711558Y-119521212D01*
X113859738Y-119371790D01*
X114244135Y-119034579D01*
X114504340Y-118771559D01*
X114649806Y-118552938D01*
X114689984Y-118348922D01*
X114687973Y-118341000D01*
X112319333Y-118341000D01*
X112277000Y-118383333D01*
X112234666Y-118341000D01*
X112277000Y-118298667D01*
X112319333Y-118341000D01*
X114687973Y-118341000D01*
X114634328Y-118129717D01*
X114492290Y-117865532D01*
X114389157Y-117703145D01*
X114223794Y-117432508D01*
X114141474Y-117233817D01*
X114126217Y-117071000D01*
X112319333Y-117071000D01*
X112277000Y-117113333D01*
X112234666Y-117071000D01*
X112277000Y-117028667D01*
X112319333Y-117071000D01*
X114126217Y-117071000D01*
X114123644Y-117043547D01*
X114138306Y-116901667D01*
X112319333Y-116901667D01*
X112277000Y-116944000D01*
X112234666Y-116901667D01*
X112277000Y-116859333D01*
X112319333Y-116901667D01*
X114138306Y-116901667D01*
X114142681Y-116859333D01*
X114203574Y-116607492D01*
X114222714Y-116563000D01*
X112302828Y-116563000D01*
X112293676Y-116707596D01*
X112267171Y-116720326D01*
X112263797Y-116712778D01*
X112247048Y-116544699D01*
X112260660Y-116458778D01*
X112287611Y-116424251D01*
X112302269Y-116536707D01*
X112302828Y-116563000D01*
X114222714Y-116563000D01*
X114297941Y-116388137D01*
X114402149Y-116242845D01*
X114492561Y-116213188D01*
X114504720Y-116222498D01*
X114579906Y-116199338D01*
X114646248Y-116127288D01*
X114799790Y-116029911D01*
X115070377Y-115962102D01*
X115170195Y-115949804D01*
X115432774Y-115934663D01*
X115594006Y-115968017D01*
X115719720Y-116071410D01*
X115786082Y-116151367D01*
X115893128Y-116309162D01*
X115940567Y-116469244D01*
X115939291Y-116693701D01*
X115917720Y-116901667D01*
X115872461Y-117327719D01*
X115859496Y-117623031D01*
X115883750Y-117823965D01*
X115950146Y-117966888D01*
X116063609Y-118088165D01*
X116080368Y-118102772D01*
X116317895Y-118243038D01*
X116560107Y-118298666D01*
X117000330Y-118369164D01*
X117344651Y-118569160D01*
X117581668Y-118881405D01*
X117699974Y-119288653D01*
X117688165Y-119773656D01*
X117652923Y-119951378D01*
X117599272Y-120391215D01*
X117673298Y-120725659D01*
X117873907Y-120950931D01*
X117955389Y-120995202D01*
X118119160Y-121143607D01*
X118165489Y-121347272D01*
X118858992Y-121347272D01*
X119016795Y-120903396D01*
X119369162Y-120361437D01*
X119474272Y-120246000D01*
X119787337Y-119874205D01*
X119964004Y-119529755D01*
X120023696Y-119173707D01*
X120024000Y-119143805D01*
X120059920Y-118876335D01*
X120122257Y-118683650D01*
X120200396Y-118555807D01*
X120318244Y-118491408D01*
X120528587Y-118469538D01*
X120666542Y-118468000D01*
X121026942Y-118430639D01*
X121254381Y-118312388D01*
X121340261Y-118129333D01*
X119431333Y-118129333D01*
X119400355Y-118199023D01*
X119374889Y-118185778D01*
X119364756Y-118085298D01*
X119374889Y-118072889D01*
X119425223Y-118084511D01*
X119431333Y-118129333D01*
X121340261Y-118129333D01*
X121352148Y-118103996D01*
X121323528Y-117796208D01*
X121171807Y-117379772D01*
X121104319Y-117235442D01*
X121068090Y-117155667D01*
X119854666Y-117155667D01*
X119812333Y-117198000D01*
X119770000Y-117155667D01*
X119812333Y-117113333D01*
X119854666Y-117155667D01*
X121068090Y-117155667D01*
X121000302Y-117006406D01*
X120969714Y-116850140D01*
X121009778Y-116688195D01*
X121079270Y-116527459D01*
X121250401Y-116212423D01*
X121445845Y-116023099D01*
X121718475Y-115918291D01*
X121905137Y-115883981D01*
X122160731Y-115857776D01*
X122328042Y-115890897D01*
X122484231Y-116006585D01*
X122561304Y-116081611D01*
X122768800Y-116369236D01*
X122818000Y-116586186D01*
X122772373Y-116943618D01*
X122649233Y-117232434D01*
X122469193Y-117405561D01*
X122456656Y-117411407D01*
X122287588Y-117562453D01*
X122243831Y-117777528D01*
X122328886Y-118003033D01*
X122411983Y-118095291D01*
X122611005Y-118234089D01*
X122881149Y-118379259D01*
X122987333Y-118426874D01*
X123333400Y-118583985D01*
X123556969Y-118725581D01*
X123697587Y-118885295D01*
X123794799Y-119096759D01*
X123803213Y-119120762D01*
X123856088Y-119287294D01*
X123880630Y-119432428D01*
X123873144Y-119597358D01*
X123829938Y-119823282D01*
X123747316Y-120151393D01*
X123692219Y-120358604D01*
X123537666Y-120936875D01*
X123915691Y-121259343D01*
X124124055Y-121445852D01*
X124218730Y-121566024D01*
X124220124Y-121656926D01*
X125862042Y-121656926D01*
X125856142Y-120890536D01*
X124990229Y-120890536D01*
X124977000Y-120923333D01*
X124900918Y-121004104D01*
X124887336Y-121008000D01*
X124850971Y-120942494D01*
X124850000Y-120923333D01*
X124915088Y-120841920D01*
X124939663Y-120838667D01*
X124990229Y-120890536D01*
X125856142Y-120890536D01*
X125854715Y-120705224D01*
X125844657Y-119746240D01*
X125832041Y-118799124D01*
X125817011Y-117878970D01*
X125799711Y-117000875D01*
X125791186Y-116640611D01*
X124843316Y-116640611D01*
X124827749Y-116750425D01*
X124798847Y-116751736D01*
X124778636Y-116638419D01*
X124792163Y-116589458D01*
X124829758Y-116557388D01*
X124843316Y-116640611D01*
X125791186Y-116640611D01*
X125780284Y-116179934D01*
X125760761Y-115497242D01*
X125055621Y-115497242D01*
X125052057Y-115709793D01*
X125010026Y-116028894D01*
X124969902Y-116245500D01*
X124904465Y-116394220D01*
X124837479Y-116436000D01*
X124785169Y-116365086D01*
X124785018Y-116146169D01*
X124801838Y-115996364D01*
X124850386Y-115683726D01*
X124887066Y-115554229D01*
X120006070Y-115554229D01*
X119992547Y-115713645D01*
X119989750Y-115726908D01*
X119958356Y-115950378D01*
X119934782Y-116258572D01*
X119927226Y-116457167D01*
X119909881Y-116747342D01*
X119867569Y-116899458D01*
X119791739Y-116943995D01*
X119790613Y-116944000D01*
X119704428Y-116992575D01*
X119706599Y-117158872D01*
X119710003Y-117176833D01*
X119784810Y-117564288D01*
X119826992Y-117815319D01*
X119838094Y-117959356D01*
X119819658Y-118025825D01*
X119773230Y-118044153D01*
X119755543Y-118044667D01*
X119690002Y-117998638D01*
X119647986Y-117843606D01*
X119629565Y-117621333D01*
X117992000Y-117621333D01*
X117978342Y-117759155D01*
X117959541Y-117790667D01*
X117915067Y-117720856D01*
X117882801Y-117621333D01*
X117724631Y-117621333D01*
X117711326Y-117741529D01*
X117681927Y-117727167D01*
X117670744Y-117553824D01*
X117681927Y-117515500D01*
X117712829Y-117504864D01*
X117724631Y-117621333D01*
X117882801Y-117621333D01*
X117878053Y-117486325D01*
X117915260Y-117452000D01*
X117977633Y-117522982D01*
X117992000Y-117621333D01*
X119629565Y-117621333D01*
X119623996Y-117554147D01*
X119618711Y-117412065D01*
X119627194Y-117071000D01*
X119177333Y-117071000D01*
X119135000Y-117113333D01*
X119092666Y-117071000D01*
X119135000Y-117028667D01*
X119177333Y-117071000D01*
X119627194Y-117071000D01*
X119630412Y-116941639D01*
X119661607Y-116732333D01*
X117907333Y-116732333D01*
X117865000Y-116774667D01*
X117822666Y-116732333D01*
X117865000Y-116690000D01*
X117907333Y-116732333D01*
X119661607Y-116732333D01*
X119689706Y-116543810D01*
X119726025Y-116417232D01*
X119805613Y-116138570D01*
X119850125Y-115885563D01*
X119852517Y-115843333D01*
X112319333Y-115843333D01*
X112288355Y-115913023D01*
X112262889Y-115899778D01*
X112252756Y-115799298D01*
X112262889Y-115786889D01*
X112313223Y-115798511D01*
X112319333Y-115843333D01*
X119852517Y-115843333D01*
X119853434Y-115827163D01*
X119885979Y-115637332D01*
X119948387Y-115541404D01*
X120006070Y-115554229D01*
X124887066Y-115554229D01*
X124900617Y-115506389D01*
X124965220Y-115430677D01*
X125019007Y-115420000D01*
X125055621Y-115497242D01*
X125760761Y-115497242D01*
X125758873Y-115431243D01*
X125753230Y-115270701D01*
X113208333Y-115270701D01*
X112954333Y-115335333D01*
X112768775Y-115383519D01*
X112674630Y-115409810D01*
X112674170Y-115409983D01*
X112683564Y-115364555D01*
X112700333Y-115335333D01*
X112815435Y-115275644D01*
X112980497Y-115260684D01*
X113208333Y-115270701D01*
X125753230Y-115270701D01*
X125735623Y-114769896D01*
X125710675Y-114210990D01*
X125684175Y-113769620D01*
X125684119Y-113769000D01*
X113420000Y-113769000D01*
X113377666Y-113811333D01*
X113335333Y-113769000D01*
X113349444Y-113754889D01*
X113222444Y-113754889D01*
X113210822Y-113805223D01*
X113166000Y-113811333D01*
X113096310Y-113780355D01*
X113109555Y-113754889D01*
X113210035Y-113744756D01*
X113222444Y-113754889D01*
X113349444Y-113754889D01*
X113377666Y-113726667D01*
X113420000Y-113769000D01*
X125684119Y-113769000D01*
X125656264Y-113460882D01*
X125627088Y-113299872D01*
X125618347Y-113282894D01*
X125527131Y-113272871D01*
X125279072Y-113262379D01*
X124886660Y-113251599D01*
X124362382Y-113240712D01*
X123718729Y-113229900D01*
X122968189Y-113219342D01*
X122123251Y-113209221D01*
X121196405Y-113199717D01*
X120200139Y-113191011D01*
X119146943Y-113183284D01*
X118441713Y-113178895D01*
X111320770Y-113137667D01*
X111267018Y-113351832D01*
G37*
X111267018Y-113351832D02*
X111242627Y-113549881D01*
X111227943Y-113897349D01*
X111222760Y-114374616D01*
X111226867Y-114962058D01*
X111240058Y-115640053D01*
X111262125Y-116388979D01*
X111292858Y-117189212D01*
X111312301Y-117621333D01*
X111339443Y-118255135D01*
X111366767Y-118999435D01*
X111392395Y-119795408D01*
X111414448Y-120584233D01*
X111431048Y-121307085D01*
X111432630Y-121389000D01*
X111446345Y-122055472D01*
X111462747Y-122754094D01*
X111480592Y-123437821D01*
X111498632Y-124059608D01*
X111515624Y-124572412D01*
X111520060Y-124691000D01*
X111537670Y-125231434D01*
X111550657Y-125800478D01*
X111557911Y-126335313D01*
X111558325Y-126773120D01*
X111557738Y-126825831D01*
X111554307Y-127215697D01*
X111560823Y-127468306D01*
X111583814Y-127615700D01*
X111629814Y-127689920D01*
X111705352Y-127723007D01*
X111742297Y-127731282D01*
X111935051Y-127752671D01*
X112278292Y-127770677D01*
X112753209Y-127785212D01*
X113340987Y-127796183D01*
X114022814Y-127803501D01*
X114779876Y-127807075D01*
X115593361Y-127806814D01*
X116444455Y-127802629D01*
X117314344Y-127794428D01*
X118184216Y-127782121D01*
X119008000Y-127766223D01*
X119919855Y-127746197D01*
X120683868Y-127729909D01*
X121321484Y-127717202D01*
X121854152Y-127707918D01*
X122303316Y-127701902D01*
X122690423Y-127698995D01*
X123036920Y-127699040D01*
X123364253Y-127701882D01*
X123693868Y-127707361D01*
X124047211Y-127715322D01*
X124445729Y-127725608D01*
X124469000Y-127726227D01*
X124905634Y-127735092D01*
X125284854Y-127737590D01*
X125572848Y-127733884D01*
X125735807Y-127724141D01*
X125755543Y-127719960D01*
X125783084Y-127626742D01*
X125788483Y-127569667D01*
X111726666Y-127569667D01*
X111684333Y-127612000D01*
X111642000Y-127569667D01*
X111684333Y-127527333D01*
X111726666Y-127569667D01*
X125788483Y-127569667D01*
X125804503Y-127400333D01*
X123410666Y-127400333D01*
X123368333Y-127442667D01*
X123349421Y-127423754D01*
X123236009Y-127423754D01*
X123159750Y-127441083D01*
X123140497Y-127441370D01*
X122987410Y-127398227D01*
X122945000Y-127358000D01*
X122938168Y-127283208D01*
X123039125Y-127295638D01*
X123156666Y-127358000D01*
X123236009Y-127423754D01*
X123349421Y-127423754D01*
X123326000Y-127400333D01*
X123368333Y-127358000D01*
X123410666Y-127400333D01*
X125804503Y-127400333D01*
X125806489Y-127379341D01*
X125814649Y-127216889D01*
X116947778Y-127216889D01*
X116936155Y-127267223D01*
X116891333Y-127273333D01*
X116821643Y-127242355D01*
X116834889Y-127216889D01*
X116935368Y-127206756D01*
X116947778Y-127216889D01*
X125814649Y-127216889D01*
X125818902Y-127132222D01*
X121435111Y-127132222D01*
X121423489Y-127182556D01*
X121378666Y-127188667D01*
X121308976Y-127157688D01*
X121322222Y-127132222D01*
X121422702Y-127122089D01*
X121435111Y-127132222D01*
X125818902Y-127132222D01*
X125824572Y-127019333D01*
X111882631Y-127019333D01*
X111869326Y-127139529D01*
X111839927Y-127125167D01*
X111828744Y-126951824D01*
X111839927Y-126913500D01*
X111870829Y-126902864D01*
X111882631Y-127019333D01*
X125824572Y-127019333D01*
X125825903Y-126992851D01*
X125831764Y-126800611D01*
X123149982Y-126800611D01*
X123134416Y-126910425D01*
X123105514Y-126911736D01*
X123102054Y-126892333D01*
X121548000Y-126892333D01*
X121505666Y-126934667D01*
X121463333Y-126892333D01*
X121505666Y-126850000D01*
X121548000Y-126892333D01*
X123102054Y-126892333D01*
X123086952Y-126807667D01*
X121886666Y-126807667D01*
X121844333Y-126850000D01*
X121802000Y-126807667D01*
X121844333Y-126765333D01*
X121886666Y-126807667D01*
X123086952Y-126807667D01*
X123085302Y-126798419D01*
X123098830Y-126749458D01*
X123136424Y-126717388D01*
X123149982Y-126800611D01*
X125831764Y-126800611D01*
X125841467Y-126482368D01*
X125853327Y-125862989D01*
X125858067Y-125455603D01*
X112073027Y-125455603D01*
X111996544Y-125615875D01*
X111885633Y-125664667D01*
X111838168Y-125589866D01*
X111813614Y-125404394D01*
X111812630Y-125347167D01*
X111824028Y-125154616D01*
X111860458Y-125115073D01*
X111896000Y-125156667D01*
X111963423Y-125240974D01*
X111986083Y-125177279D01*
X111987810Y-125156667D01*
X112013401Y-125129472D01*
X112060328Y-125241333D01*
X112073027Y-125455603D01*
X125858067Y-125455603D01*
X125861135Y-125191944D01*
X124843316Y-125191944D01*
X124827749Y-125301758D01*
X124798847Y-125303069D01*
X124784652Y-125223478D01*
X121294000Y-125223478D01*
X121283920Y-125313578D01*
X121241650Y-125285514D01*
X121240597Y-125283667D01*
X119600666Y-125283667D01*
X119558333Y-125326000D01*
X119516000Y-125283667D01*
X119558333Y-125241333D01*
X119600666Y-125283667D01*
X121240597Y-125283667D01*
X121192293Y-125199000D01*
X120278000Y-125199000D01*
X120235666Y-125241333D01*
X120193333Y-125199000D01*
X120235666Y-125156667D01*
X120278000Y-125199000D01*
X121192293Y-125199000D01*
X121149144Y-125123369D01*
X121122273Y-125072000D01*
X121095195Y-125015555D01*
X120165111Y-125015555D01*
X120153489Y-125065890D01*
X120108666Y-125072000D01*
X120038976Y-125041022D01*
X120052222Y-125015555D01*
X120152702Y-125005422D01*
X120165111Y-125015555D01*
X121095195Y-125015555D01*
X121054506Y-124930742D01*
X121075782Y-124916774D01*
X121153138Y-124976533D01*
X121268667Y-125128005D01*
X121294000Y-125223478D01*
X124784652Y-125223478D01*
X124778636Y-125189752D01*
X124792163Y-125140792D01*
X124823179Y-125114333D01*
X124596000Y-125114333D01*
X124553666Y-125156667D01*
X124511333Y-125114333D01*
X124553666Y-125072000D01*
X124596000Y-125114333D01*
X124823179Y-125114333D01*
X124829758Y-125108721D01*
X124843316Y-125191944D01*
X125861135Y-125191944D01*
X125861626Y-125149808D01*
X125863670Y-124818000D01*
X124511333Y-124818000D01*
X124480355Y-124887690D01*
X124454889Y-124874444D01*
X124452129Y-124847073D01*
X124224028Y-124847073D01*
X124208717Y-124930842D01*
X124140777Y-125058576D01*
X124100083Y-125020038D01*
X124088000Y-124843400D01*
X124108515Y-124692382D01*
X124172710Y-124699560D01*
X124175442Y-124702242D01*
X124224028Y-124847073D01*
X124452129Y-124847073D01*
X124444756Y-124773965D01*
X124454889Y-124761555D01*
X124505223Y-124773178D01*
X124511333Y-124818000D01*
X125863670Y-124818000D01*
X125865757Y-124479333D01*
X124497965Y-124479333D01*
X124484659Y-124599529D01*
X124455260Y-124585167D01*
X124444077Y-124411824D01*
X124455260Y-124373500D01*
X124486163Y-124362864D01*
X124497965Y-124479333D01*
X125865757Y-124479333D01*
X125866506Y-124357921D01*
X125868111Y-123502423D01*
X125866586Y-122598411D01*
X125862073Y-121660979D01*
X125862042Y-121656926D01*
X124220124Y-121656926D01*
X124173171Y-121727059D01*
X123986272Y-121882527D01*
X123769538Y-121971206D01*
X123587617Y-121970283D01*
X123547797Y-121947741D01*
X123414365Y-121745636D01*
X123319179Y-121412905D01*
X123268365Y-120985178D01*
X123268053Y-120498088D01*
X123276604Y-120370980D01*
X123301305Y-120016844D01*
X123301705Y-119788359D01*
X123272209Y-119642879D01*
X123207222Y-119537757D01*
X123160752Y-119488085D01*
X122943710Y-119332316D01*
X122770683Y-119336178D01*
X122646870Y-119494479D01*
X122577471Y-119802026D01*
X122564000Y-120084115D01*
X122532735Y-120299068D01*
X122452646Y-120588629D01*
X122386920Y-120772032D01*
X122284393Y-121088408D01*
X122250710Y-121382049D01*
X122291029Y-121695255D01*
X122410509Y-122070327D01*
X122599748Y-122517416D01*
X122745762Y-122845824D01*
X122829174Y-123064164D01*
X122857353Y-123216567D01*
X122837670Y-123347164D01*
X122777493Y-123500088D01*
X122767618Y-123522681D01*
X122655004Y-123921626D01*
X122665578Y-124290830D01*
X122732671Y-124478097D01*
X122741181Y-124647598D01*
X122613323Y-124806628D01*
X122380058Y-124918734D01*
X122352333Y-124925911D01*
X122155413Y-124951623D01*
X122013124Y-124890010D01*
X121857331Y-124711123D01*
X121854226Y-124706970D01*
X121684482Y-124479617D01*
X121967104Y-123895408D01*
X122086208Y-123632667D01*
X121209333Y-123632667D01*
X121178355Y-123702357D01*
X121152889Y-123689111D01*
X121142756Y-123588631D01*
X121152889Y-123576222D01*
X121203223Y-123587844D01*
X121209333Y-123632667D01*
X122086208Y-123632667D01*
X122116441Y-123565975D01*
X122193130Y-123326512D01*
X122210600Y-123121167D01*
X122192953Y-122956164D01*
X122100853Y-122591838D01*
X121958009Y-122263146D01*
X121788450Y-122014905D01*
X121623516Y-121894096D01*
X121475065Y-121878585D01*
X121374444Y-121961900D01*
X121304747Y-122169325D01*
X121260509Y-122437008D01*
X121153546Y-122856227D01*
X120940724Y-123192814D01*
X120593415Y-123488736D01*
X120502129Y-123548744D01*
X120187388Y-123796003D01*
X120010712Y-124074173D01*
X119942849Y-124436535D01*
X119939333Y-124573936D01*
X119939333Y-124911516D01*
X119494833Y-124885924D01*
X119050333Y-124860333D01*
X119024420Y-124502993D01*
X119057567Y-124161997D01*
X119216320Y-123827521D01*
X119513332Y-123479859D01*
X119890193Y-123154352D01*
X120209709Y-122878641D01*
X120424349Y-122615461D01*
X120558394Y-122315886D01*
X120636127Y-121930986D01*
X120670180Y-121582680D01*
X120728285Y-121108068D01*
X120820459Y-120722327D01*
X120887213Y-120555317D01*
X121023421Y-120188707D01*
X121050864Y-119865517D01*
X120966596Y-119625059D01*
X120957767Y-119613933D01*
X120773968Y-119498701D01*
X120560314Y-119525285D01*
X120345941Y-119676774D01*
X120159983Y-119936256D01*
X120078464Y-120124300D01*
X119934202Y-120415334D01*
X119733444Y-120690556D01*
X119694408Y-120731900D01*
X119524534Y-120929718D01*
X119461949Y-121108060D01*
X119470389Y-121304946D01*
X119470665Y-121556054D01*
X119370294Y-121747947D01*
X119296467Y-121827896D01*
X119148048Y-121964425D01*
X119050863Y-121988766D01*
X118939035Y-121911036D01*
X118912189Y-121886915D01*
X118787129Y-121693267D01*
X118783118Y-121560698D01*
X118858992Y-121347272D01*
X118165489Y-121347272D01*
X118107951Y-121554179D01*
X117960118Y-121712309D01*
X117753213Y-121770000D01*
X117643983Y-121690397D01*
X117534833Y-121471324D01*
X117435235Y-121142383D01*
X117354665Y-120733175D01*
X117312593Y-120393225D01*
X117253781Y-119926067D01*
X117176171Y-119603204D01*
X117077862Y-119405277D01*
X116906933Y-119220017D01*
X116784514Y-119191923D01*
X116707067Y-119323506D01*
X116671051Y-119617277D01*
X116668509Y-119695667D01*
X116646420Y-120016788D01*
X116601397Y-120304416D01*
X116562676Y-120442012D01*
X116518986Y-120624351D01*
X116488341Y-120889171D01*
X116471724Y-121189929D01*
X116470117Y-121480080D01*
X116484503Y-121713082D01*
X116515864Y-121842392D01*
X116532857Y-121854667D01*
X116624501Y-121923721D01*
X116758240Y-122099181D01*
X116905669Y-122333491D01*
X117038385Y-122579095D01*
X117127985Y-122788439D01*
X117149836Y-122887672D01*
X117135299Y-123078220D01*
X117094414Y-123359719D01*
X117057334Y-123562298D01*
X117008203Y-123864988D01*
X117012130Y-124078386D01*
X117073567Y-124275406D01*
X117105090Y-124344779D01*
X117201086Y-124620180D01*
X117165264Y-124804877D01*
X116983333Y-124930070D01*
X116811380Y-124986064D01*
X116463835Y-125027757D01*
X116220746Y-124936860D01*
X116082375Y-124718762D01*
X116077022Y-124557799D01*
X116197151Y-124410978D01*
X116256427Y-124365330D01*
X116532722Y-124068343D01*
X116682021Y-123698806D01*
X116696119Y-123302266D01*
X116566809Y-122924272D01*
X116527397Y-122861315D01*
X116388157Y-122640823D01*
X116289279Y-122457500D01*
X116277023Y-122428689D01*
X116158980Y-122301135D01*
X115991674Y-122225426D01*
X115786560Y-122216566D01*
X115625221Y-122337436D01*
X115607048Y-122359282D01*
X115492272Y-122550308D01*
X115452000Y-122700346D01*
X115390899Y-122882420D01*
X115335203Y-122946865D01*
X115232995Y-123098162D01*
X115169758Y-123287045D01*
X115059027Y-123511964D01*
X114825974Y-123768185D01*
X114736221Y-123845678D01*
X114491765Y-124065905D01*
X114379046Y-124243503D01*
X114386555Y-124426142D01*
X114502780Y-124661493D01*
X114528900Y-124704322D01*
X114631483Y-124917617D01*
X114664367Y-125088251D01*
X114658557Y-125116482D01*
X114546863Y-125208408D01*
X114362306Y-125239749D01*
X114192590Y-125203714D01*
X114139666Y-125156667D01*
X114019845Y-125084695D01*
X113928709Y-125072000D01*
X113755220Y-125015016D01*
X113703588Y-124848237D01*
X113722049Y-124775667D01*
X112065333Y-124775667D01*
X112023000Y-124818000D01*
X111980666Y-124775667D01*
X112023000Y-124733333D01*
X112065333Y-124775667D01*
X113722049Y-124775667D01*
X113772357Y-124577920D01*
X113960076Y-124210323D01*
X114033710Y-124098333D01*
X112742666Y-124098333D01*
X112700333Y-124140667D01*
X112658000Y-124098333D01*
X112700333Y-124056000D01*
X112742666Y-124098333D01*
X114033710Y-124098333D01*
X114221277Y-123813065D01*
X114488550Y-123411437D01*
X114588222Y-123217952D01*
X113051283Y-123217952D01*
X113022328Y-123345382D01*
X112970369Y-123457160D01*
X112941203Y-123411864D01*
X112928184Y-123350873D01*
X112925225Y-123196296D01*
X112946849Y-123146262D01*
X113024715Y-123123839D01*
X113051283Y-123217952D01*
X114588222Y-123217952D01*
X114657190Y-123084071D01*
X114746166Y-122783391D01*
X114774446Y-122461824D01*
X114774666Y-122425107D01*
X114817874Y-122009252D01*
X114932667Y-121644213D01*
X114936599Y-121635978D01*
X115030890Y-121369200D01*
X115091456Y-121012507D01*
X115124426Y-120528484D01*
X115126211Y-120478539D01*
X115135738Y-120091291D01*
X115129119Y-119834292D01*
X115100546Y-119668773D01*
X115044209Y-119555965D01*
X114976402Y-119478772D01*
X114798913Y-119301283D01*
X114502040Y-119710141D01*
X114277063Y-120028176D01*
X114127881Y-120278155D01*
X114039616Y-120510491D01*
X113997388Y-120775595D01*
X113986319Y-121123880D01*
X113989195Y-121447775D01*
X113991307Y-121864065D01*
X113979970Y-122149026D01*
X113949885Y-122340465D01*
X113895752Y-122476189D01*
X113831923Y-122569608D01*
X113659564Y-122722034D01*
X113482999Y-122785996D01*
X113481988Y-122786000D01*
X113318494Y-122731688D01*
X113118587Y-122599582D01*
X112938665Y-122435932D01*
X112835126Y-122286984D01*
X112827333Y-122249174D01*
X112881828Y-122151869D01*
X113025627Y-121970747D01*
X113229206Y-121742629D01*
X113258595Y-121711366D01*
X113689857Y-121255370D01*
X113621583Y-120729518D01*
X113571905Y-120270954D01*
X113566074Y-119941040D01*
X113610492Y-119703290D01*
X113711558Y-119521212D01*
X113859738Y-119371790D01*
X114244135Y-119034579D01*
X114504340Y-118771559D01*
X114649806Y-118552938D01*
X114689984Y-118348922D01*
X114687973Y-118341000D01*
X112319333Y-118341000D01*
X112277000Y-118383333D01*
X112234666Y-118341000D01*
X112277000Y-118298667D01*
X112319333Y-118341000D01*
X114687973Y-118341000D01*
X114634328Y-118129717D01*
X114492290Y-117865532D01*
X114389157Y-117703145D01*
X114223794Y-117432508D01*
X114141474Y-117233817D01*
X114126217Y-117071000D01*
X112319333Y-117071000D01*
X112277000Y-117113333D01*
X112234666Y-117071000D01*
X112277000Y-117028667D01*
X112319333Y-117071000D01*
X114126217Y-117071000D01*
X114123644Y-117043547D01*
X114138306Y-116901667D01*
X112319333Y-116901667D01*
X112277000Y-116944000D01*
X112234666Y-116901667D01*
X112277000Y-116859333D01*
X112319333Y-116901667D01*
X114138306Y-116901667D01*
X114142681Y-116859333D01*
X114203574Y-116607492D01*
X114222714Y-116563000D01*
X112302828Y-116563000D01*
X112293676Y-116707596D01*
X112267171Y-116720326D01*
X112263797Y-116712778D01*
X112247048Y-116544699D01*
X112260660Y-116458778D01*
X112287611Y-116424251D01*
X112302269Y-116536707D01*
X112302828Y-116563000D01*
X114222714Y-116563000D01*
X114297941Y-116388137D01*
X114402149Y-116242845D01*
X114492561Y-116213188D01*
X114504720Y-116222498D01*
X114579906Y-116199338D01*
X114646248Y-116127288D01*
X114799790Y-116029911D01*
X115070377Y-115962102D01*
X115170195Y-115949804D01*
X115432774Y-115934663D01*
X115594006Y-115968017D01*
X115719720Y-116071410D01*
X115786082Y-116151367D01*
X115893128Y-116309162D01*
X115940567Y-116469244D01*
X115939291Y-116693701D01*
X115917720Y-116901667D01*
X115872461Y-117327719D01*
X115859496Y-117623031D01*
X115883750Y-117823965D01*
X115950146Y-117966888D01*
X116063609Y-118088165D01*
X116080368Y-118102772D01*
X116317895Y-118243038D01*
X116560107Y-118298666D01*
X117000330Y-118369164D01*
X117344651Y-118569160D01*
X117581668Y-118881405D01*
X117699974Y-119288653D01*
X117688165Y-119773656D01*
X117652923Y-119951378D01*
X117599272Y-120391215D01*
X117673298Y-120725659D01*
X117873907Y-120950931D01*
X117955389Y-120995202D01*
X118119160Y-121143607D01*
X118165489Y-121347272D01*
X118858992Y-121347272D01*
X119016795Y-120903396D01*
X119369162Y-120361437D01*
X119474272Y-120246000D01*
X119787337Y-119874205D01*
X119964004Y-119529755D01*
X120023696Y-119173707D01*
X120024000Y-119143805D01*
X120059920Y-118876335D01*
X120122257Y-118683650D01*
X120200396Y-118555807D01*
X120318244Y-118491408D01*
X120528587Y-118469538D01*
X120666542Y-118468000D01*
X121026942Y-118430639D01*
X121254381Y-118312388D01*
X121340261Y-118129333D01*
X119431333Y-118129333D01*
X119400355Y-118199023D01*
X119374889Y-118185778D01*
X119364756Y-118085298D01*
X119374889Y-118072889D01*
X119425223Y-118084511D01*
X119431333Y-118129333D01*
X121340261Y-118129333D01*
X121352148Y-118103996D01*
X121323528Y-117796208D01*
X121171807Y-117379772D01*
X121104319Y-117235442D01*
X121068090Y-117155667D01*
X119854666Y-117155667D01*
X119812333Y-117198000D01*
X119770000Y-117155667D01*
X119812333Y-117113333D01*
X119854666Y-117155667D01*
X121068090Y-117155667D01*
X121000302Y-117006406D01*
X120969714Y-116850140D01*
X121009778Y-116688195D01*
X121079270Y-116527459D01*
X121250401Y-116212423D01*
X121445845Y-116023099D01*
X121718475Y-115918291D01*
X121905137Y-115883981D01*
X122160731Y-115857776D01*
X122328042Y-115890897D01*
X122484231Y-116006585D01*
X122561304Y-116081611D01*
X122768800Y-116369236D01*
X122818000Y-116586186D01*
X122772373Y-116943618D01*
X122649233Y-117232434D01*
X122469193Y-117405561D01*
X122456656Y-117411407D01*
X122287588Y-117562453D01*
X122243831Y-117777528D01*
X122328886Y-118003033D01*
X122411983Y-118095291D01*
X122611005Y-118234089D01*
X122881149Y-118379259D01*
X122987333Y-118426874D01*
X123333400Y-118583985D01*
X123556969Y-118725581D01*
X123697587Y-118885295D01*
X123794799Y-119096759D01*
X123803213Y-119120762D01*
X123856088Y-119287294D01*
X123880630Y-119432428D01*
X123873144Y-119597358D01*
X123829938Y-119823282D01*
X123747316Y-120151393D01*
X123692219Y-120358604D01*
X123537666Y-120936875D01*
X123915691Y-121259343D01*
X124124055Y-121445852D01*
X124218730Y-121566024D01*
X124220124Y-121656926D01*
X125862042Y-121656926D01*
X125856142Y-120890536D01*
X124990229Y-120890536D01*
X124977000Y-120923333D01*
X124900918Y-121004104D01*
X124887336Y-121008000D01*
X124850971Y-120942494D01*
X124850000Y-120923333D01*
X124915088Y-120841920D01*
X124939663Y-120838667D01*
X124990229Y-120890536D01*
X125856142Y-120890536D01*
X125854715Y-120705224D01*
X125844657Y-119746240D01*
X125832041Y-118799124D01*
X125817011Y-117878970D01*
X125799711Y-117000875D01*
X125791186Y-116640611D01*
X124843316Y-116640611D01*
X124827749Y-116750425D01*
X124798847Y-116751736D01*
X124778636Y-116638419D01*
X124792163Y-116589458D01*
X124829758Y-116557388D01*
X124843316Y-116640611D01*
X125791186Y-116640611D01*
X125780284Y-116179934D01*
X125760761Y-115497242D01*
X125055621Y-115497242D01*
X125052057Y-115709793D01*
X125010026Y-116028894D01*
X124969902Y-116245500D01*
X124904465Y-116394220D01*
X124837479Y-116436000D01*
X124785169Y-116365086D01*
X124785018Y-116146169D01*
X124801838Y-115996364D01*
X124850386Y-115683726D01*
X124887066Y-115554229D01*
X120006070Y-115554229D01*
X119992547Y-115713645D01*
X119989750Y-115726908D01*
X119958356Y-115950378D01*
X119934782Y-116258572D01*
X119927226Y-116457167D01*
X119909881Y-116747342D01*
X119867569Y-116899458D01*
X119791739Y-116943995D01*
X119790613Y-116944000D01*
X119704428Y-116992575D01*
X119706599Y-117158872D01*
X119710003Y-117176833D01*
X119784810Y-117564288D01*
X119826992Y-117815319D01*
X119838094Y-117959356D01*
X119819658Y-118025825D01*
X119773230Y-118044153D01*
X119755543Y-118044667D01*
X119690002Y-117998638D01*
X119647986Y-117843606D01*
X119629565Y-117621333D01*
X117992000Y-117621333D01*
X117978342Y-117759155D01*
X117959541Y-117790667D01*
X117915067Y-117720856D01*
X117882801Y-117621333D01*
X117724631Y-117621333D01*
X117711326Y-117741529D01*
X117681927Y-117727167D01*
X117670744Y-117553824D01*
X117681927Y-117515500D01*
X117712829Y-117504864D01*
X117724631Y-117621333D01*
X117882801Y-117621333D01*
X117878053Y-117486325D01*
X117915260Y-117452000D01*
X117977633Y-117522982D01*
X117992000Y-117621333D01*
X119629565Y-117621333D01*
X119623996Y-117554147D01*
X119618711Y-117412065D01*
X119627194Y-117071000D01*
X119177333Y-117071000D01*
X119135000Y-117113333D01*
X119092666Y-117071000D01*
X119135000Y-117028667D01*
X119177333Y-117071000D01*
X119627194Y-117071000D01*
X119630412Y-116941639D01*
X119661607Y-116732333D01*
X117907333Y-116732333D01*
X117865000Y-116774667D01*
X117822666Y-116732333D01*
X117865000Y-116690000D01*
X117907333Y-116732333D01*
X119661607Y-116732333D01*
X119689706Y-116543810D01*
X119726025Y-116417232D01*
X119805613Y-116138570D01*
X119850125Y-115885563D01*
X119852517Y-115843333D01*
X112319333Y-115843333D01*
X112288355Y-115913023D01*
X112262889Y-115899778D01*
X112252756Y-115799298D01*
X112262889Y-115786889D01*
X112313223Y-115798511D01*
X112319333Y-115843333D01*
X119852517Y-115843333D01*
X119853434Y-115827163D01*
X119885979Y-115637332D01*
X119948387Y-115541404D01*
X120006070Y-115554229D01*
X124887066Y-115554229D01*
X124900617Y-115506389D01*
X124965220Y-115430677D01*
X125019007Y-115420000D01*
X125055621Y-115497242D01*
X125760761Y-115497242D01*
X125758873Y-115431243D01*
X125753230Y-115270701D01*
X113208333Y-115270701D01*
X112954333Y-115335333D01*
X112768775Y-115383519D01*
X112674630Y-115409810D01*
X112674170Y-115409983D01*
X112683564Y-115364555D01*
X112700333Y-115335333D01*
X112815435Y-115275644D01*
X112980497Y-115260684D01*
X113208333Y-115270701D01*
X125753230Y-115270701D01*
X125735623Y-114769896D01*
X125710675Y-114210990D01*
X125684175Y-113769620D01*
X125684119Y-113769000D01*
X113420000Y-113769000D01*
X113377666Y-113811333D01*
X113335333Y-113769000D01*
X113349444Y-113754889D01*
X113222444Y-113754889D01*
X113210822Y-113805223D01*
X113166000Y-113811333D01*
X113096310Y-113780355D01*
X113109555Y-113754889D01*
X113210035Y-113744756D01*
X113222444Y-113754889D01*
X113349444Y-113754889D01*
X113377666Y-113726667D01*
X113420000Y-113769000D01*
X125684119Y-113769000D01*
X125656264Y-113460882D01*
X125627088Y-113299872D01*
X125618347Y-113282894D01*
X125527131Y-113272871D01*
X125279072Y-113262379D01*
X124886660Y-113251599D01*
X124362382Y-113240712D01*
X123718729Y-113229900D01*
X122968189Y-113219342D01*
X122123251Y-113209221D01*
X121196405Y-113199717D01*
X120200139Y-113191011D01*
X119146943Y-113183284D01*
X118441713Y-113178895D01*
X111320770Y-113137667D01*
X111267018Y-113351832D01*
G36*
X110033333Y-129305333D02*
G01*
X126966666Y-129305333D01*
X126966666Y-128848177D01*
X111223850Y-128848177D01*
X111106778Y-128861538D01*
X111049333Y-128862357D01*
X110895298Y-128853530D01*
X110877144Y-128831552D01*
X110901166Y-128823637D01*
X111115900Y-128810470D01*
X111197500Y-128823637D01*
X111223850Y-128848177D01*
X126966666Y-128848177D01*
X126966666Y-128755976D01*
X124463090Y-128755976D01*
X124371581Y-128769309D01*
X124215000Y-128773117D01*
X124014211Y-128767737D01*
X123952266Y-128755000D01*
X120616666Y-128755000D01*
X120574333Y-128797333D01*
X120554091Y-128777091D01*
X116431278Y-128777091D01*
X116348055Y-128790649D01*
X116238241Y-128775082D01*
X116237331Y-128755000D01*
X115536666Y-128755000D01*
X115494333Y-128797333D01*
X115452000Y-128755000D01*
X115494333Y-128712667D01*
X112361666Y-128712667D01*
X112246370Y-128773764D01*
X112081503Y-128791382D01*
X111933123Y-128781122D01*
X111940049Y-128755000D01*
X111811333Y-128755000D01*
X111769000Y-128797333D01*
X111726666Y-128755000D01*
X110710666Y-128755000D01*
X110668333Y-128797333D01*
X110626000Y-128755000D01*
X110668333Y-128712667D01*
X110710666Y-128755000D01*
X111726666Y-128755000D01*
X111769000Y-128712667D01*
X111811333Y-128755000D01*
X111940049Y-128755000D01*
X111941155Y-128750829D01*
X112023000Y-128712667D01*
X112230676Y-128644998D01*
X112355105Y-128645861D01*
X112361666Y-128712667D01*
X115494333Y-128712667D01*
X115536666Y-128755000D01*
X116237331Y-128755000D01*
X116236930Y-128746180D01*
X116350247Y-128725969D01*
X116399208Y-128739496D01*
X116431278Y-128777091D01*
X120554091Y-128777091D01*
X120532000Y-128755000D01*
X120574333Y-128712667D01*
X120616666Y-128755000D01*
X123952266Y-128755000D01*
X123940817Y-128752646D01*
X123981002Y-128737734D01*
X124213279Y-128722488D01*
X124404336Y-128736578D01*
X124463090Y-128755976D01*
X126966666Y-128755976D01*
X126966666Y-128577684D01*
X125332884Y-128577684D01*
X125273333Y-128628000D01*
X125138237Y-128704150D01*
X125120238Y-128675469D01*
X125146333Y-128628000D01*
X125269982Y-128547501D01*
X125299497Y-128544630D01*
X125332884Y-128577684D01*
X126966666Y-128577684D01*
X126966666Y-128247000D01*
X112404000Y-128247000D01*
X112361666Y-128289333D01*
X112319333Y-128247000D01*
X112361666Y-128204667D01*
X112404000Y-128247000D01*
X126966666Y-128247000D01*
X126966666Y-127146333D01*
X126712666Y-127146333D01*
X126670333Y-127188667D01*
X126628000Y-127146333D01*
X126670333Y-127104000D01*
X126712666Y-127146333D01*
X126966666Y-127146333D01*
X126966666Y-126045667D01*
X126628000Y-126045667D01*
X126585666Y-126088000D01*
X126543333Y-126045667D01*
X126585666Y-126003333D01*
X126628000Y-126045667D01*
X126966666Y-126045667D01*
X126966666Y-125622333D01*
X126628000Y-125622333D01*
X126585666Y-125664667D01*
X126543333Y-125622333D01*
X126585666Y-125580000D01*
X126628000Y-125622333D01*
X126966666Y-125622333D01*
X126966666Y-120889250D01*
X126034258Y-120889250D01*
X126033356Y-122375959D01*
X126032809Y-122659000D01*
X126030769Y-123565089D01*
X126028606Y-124421799D01*
X126026373Y-125213952D01*
X126024125Y-125926371D01*
X126021915Y-126543879D01*
X126019797Y-127051300D01*
X126017826Y-127433456D01*
X126016055Y-127675171D01*
X126014672Y-127760167D01*
X125937520Y-127825230D01*
X125710668Y-127861255D01*
X125449722Y-127870332D01*
X125038781Y-127878042D01*
X124589168Y-127893111D01*
X124342000Y-127904680D01*
X124134349Y-127911885D01*
X123779576Y-127919491D01*
X123299892Y-127927214D01*
X122717507Y-127934771D01*
X122054632Y-127941879D01*
X121333477Y-127948254D01*
X120576253Y-127953612D01*
X120447333Y-127954391D01*
X119684062Y-127960318D01*
X118951276Y-127968715D01*
X118271525Y-127979124D01*
X117667359Y-127991092D01*
X117161330Y-128004161D01*
X116775989Y-128017877D01*
X116533885Y-128031784D01*
X116510333Y-128033957D01*
X116088470Y-128058943D01*
X115621992Y-128060586D01*
X115325000Y-128046398D01*
X115048737Y-128031750D01*
X114642499Y-128019967D01*
X114145629Y-128011715D01*
X113597470Y-128007662D01*
X113073423Y-128008259D01*
X111414512Y-128017550D01*
X111403674Y-127527333D01*
X110691024Y-127527333D01*
X110682196Y-127681369D01*
X110660219Y-127699522D01*
X110652304Y-127675500D01*
X110639136Y-127460766D01*
X110652304Y-127379167D01*
X110676844Y-127352816D01*
X110690205Y-127469888D01*
X110691024Y-127527333D01*
X111403674Y-127527333D01*
X111392442Y-127019333D01*
X110710666Y-127019333D01*
X110679688Y-127089023D01*
X110654222Y-127075778D01*
X110644089Y-126975298D01*
X110654222Y-126962889D01*
X110704556Y-126974511D01*
X110710666Y-127019333D01*
X111392442Y-127019333D01*
X111356210Y-125380608D01*
X111339891Y-124674833D01*
X111322423Y-123976058D01*
X111304680Y-123315343D01*
X111287533Y-122723750D01*
X111271855Y-122232338D01*
X111258521Y-121872169D01*
X111255930Y-121812333D01*
X111243581Y-121516000D01*
X110541333Y-121516000D01*
X110510355Y-121585690D01*
X110484889Y-121572444D01*
X110474756Y-121471965D01*
X110484889Y-121459555D01*
X110535223Y-121471178D01*
X110541333Y-121516000D01*
X111243581Y-121516000D01*
X111242129Y-121481168D01*
X111224198Y-121012857D01*
X111203285Y-120439508D01*
X111187534Y-119992000D01*
X110541333Y-119992000D01*
X110510355Y-120061690D01*
X110484889Y-120048444D01*
X110474756Y-119947965D01*
X110484889Y-119935555D01*
X110535223Y-119947178D01*
X110541333Y-119992000D01*
X111187534Y-119992000D01*
X111180537Y-119793225D01*
X111157101Y-119106114D01*
X111134124Y-118410282D01*
X111131881Y-118341000D01*
X111107916Y-117609097D01*
X111082475Y-116849293D01*
X111056932Y-116101437D01*
X111032660Y-115405376D01*
X111011035Y-114800961D01*
X110994231Y-114348963D01*
X110938652Y-112896927D01*
X112539159Y-112930980D01*
X112902637Y-112937162D01*
X113416383Y-112943617D01*
X114061332Y-112950204D01*
X114818420Y-112956782D01*
X115668581Y-112963209D01*
X116592751Y-112969346D01*
X117571866Y-112975052D01*
X118586860Y-112980186D01*
X119618669Y-112984607D01*
X119995770Y-112986016D01*
X120974376Y-112990119D01*
X121901531Y-112995163D01*
X122763628Y-113001001D01*
X123547064Y-113007486D01*
X124238232Y-113014472D01*
X124823529Y-113021809D01*
X125289348Y-113029352D01*
X125622086Y-113036952D01*
X125808136Y-113044464D01*
X125843962Y-113049333D01*
X125846470Y-113147484D01*
X125859998Y-113372635D01*
X125881930Y-113683003D01*
X125891670Y-113811333D01*
X125925564Y-114322279D01*
X125954543Y-114919794D01*
X125978769Y-115613992D01*
X125998405Y-116414987D01*
X126013610Y-117332896D01*
X126024546Y-118377833D01*
X126031375Y-119559912D01*
X126034258Y-120889250D01*
X126966666Y-120889250D01*
X126966666Y-115090683D01*
X126576488Y-115090683D01*
X126558785Y-115304877D01*
X126524054Y-115462457D01*
X126489922Y-115504667D01*
X126472897Y-115428262D01*
X126462690Y-115232016D01*
X126461241Y-115060167D01*
X126471763Y-114808765D01*
X126501327Y-114715270D01*
X126542727Y-114750632D01*
X126572642Y-114884419D01*
X126576488Y-115090683D01*
X126966666Y-115090683D01*
X126966666Y-112649732D01*
X124309288Y-112649732D01*
X124264769Y-112680247D01*
X124089254Y-112701233D01*
X123826944Y-112708092D01*
X123535547Y-112699107D01*
X123401310Y-112674087D01*
X123412611Y-112630617D01*
X123422957Y-112624186D01*
X123542983Y-112592177D01*
X122145850Y-112592177D01*
X122028778Y-112605538D01*
X121971333Y-112606357D01*
X121817298Y-112597530D01*
X121812565Y-112591800D01*
X121578926Y-112591800D01*
X121548000Y-112625276D01*
X121430126Y-112663972D01*
X121240560Y-112694154D01*
X121033819Y-112711852D01*
X120864422Y-112713094D01*
X120786888Y-112693909D01*
X120793055Y-112680261D01*
X120890406Y-112653038D01*
X121100076Y-112617067D01*
X121251666Y-112596167D01*
X121495451Y-112574364D01*
X121578926Y-112591800D01*
X121812565Y-112591800D01*
X121799144Y-112575552D01*
X121823166Y-112567637D01*
X122037900Y-112554470D01*
X122119500Y-112567637D01*
X122145850Y-112592177D01*
X123542983Y-112592177D01*
X123590542Y-112579494D01*
X123835881Y-112566213D01*
X124086723Y-112582259D01*
X124270817Y-112625549D01*
X124309288Y-112649732D01*
X126966666Y-112649732D01*
X126966666Y-112245000D01*
X122902666Y-112245000D01*
X122860333Y-112287333D01*
X122818000Y-112245000D01*
X122832111Y-112230889D01*
X122705111Y-112230889D01*
X122693489Y-112281223D01*
X122648666Y-112287333D01*
X122578976Y-112256355D01*
X122592222Y-112230889D01*
X122692702Y-112220756D01*
X122705111Y-112230889D01*
X122832111Y-112230889D01*
X122860333Y-112202667D01*
X122902666Y-112245000D01*
X126966666Y-112245000D01*
X126966666Y-111694667D01*
X110033333Y-111694667D01*
X110033333Y-129305333D01*
G37*
X110033333Y-129305333D02*
X126966666Y-129305333D01*
X126966666Y-128848177D01*
X111223850Y-128848177D01*
X111106778Y-128861538D01*
X111049333Y-128862357D01*
X110895298Y-128853530D01*
X110877144Y-128831552D01*
X110901166Y-128823637D01*
X111115900Y-128810470D01*
X111197500Y-128823637D01*
X111223850Y-128848177D01*
X126966666Y-128848177D01*
X126966666Y-128755976D01*
X124463090Y-128755976D01*
X124371581Y-128769309D01*
X124215000Y-128773117D01*
X124014211Y-128767737D01*
X123952266Y-128755000D01*
X120616666Y-128755000D01*
X120574333Y-128797333D01*
X120554091Y-128777091D01*
X116431278Y-128777091D01*
X116348055Y-128790649D01*
X116238241Y-128775082D01*
X116237331Y-128755000D01*
X115536666Y-128755000D01*
X115494333Y-128797333D01*
X115452000Y-128755000D01*
X115494333Y-128712667D01*
X112361666Y-128712667D01*
X112246370Y-128773764D01*
X112081503Y-128791382D01*
X111933123Y-128781122D01*
X111940049Y-128755000D01*
X111811333Y-128755000D01*
X111769000Y-128797333D01*
X111726666Y-128755000D01*
X110710666Y-128755000D01*
X110668333Y-128797333D01*
X110626000Y-128755000D01*
X110668333Y-128712667D01*
X110710666Y-128755000D01*
X111726666Y-128755000D01*
X111769000Y-128712667D01*
X111811333Y-128755000D01*
X111940049Y-128755000D01*
X111941155Y-128750829D01*
X112023000Y-128712667D01*
X112230676Y-128644998D01*
X112355105Y-128645861D01*
X112361666Y-128712667D01*
X115494333Y-128712667D01*
X115536666Y-128755000D01*
X116237331Y-128755000D01*
X116236930Y-128746180D01*
X116350247Y-128725969D01*
X116399208Y-128739496D01*
X116431278Y-128777091D01*
X120554091Y-128777091D01*
X120532000Y-128755000D01*
X120574333Y-128712667D01*
X120616666Y-128755000D01*
X123952266Y-128755000D01*
X123940817Y-128752646D01*
X123981002Y-128737734D01*
X124213279Y-128722488D01*
X124404336Y-128736578D01*
X124463090Y-128755976D01*
X126966666Y-128755976D01*
X126966666Y-128577684D01*
X125332884Y-128577684D01*
X125273333Y-128628000D01*
X125138237Y-128704150D01*
X125120238Y-128675469D01*
X125146333Y-128628000D01*
X125269982Y-128547501D01*
X125299497Y-128544630D01*
X125332884Y-128577684D01*
X126966666Y-128577684D01*
X126966666Y-128247000D01*
X112404000Y-128247000D01*
X112361666Y-128289333D01*
X112319333Y-128247000D01*
X112361666Y-128204667D01*
X112404000Y-128247000D01*
X126966666Y-128247000D01*
X126966666Y-127146333D01*
X126712666Y-127146333D01*
X126670333Y-127188667D01*
X126628000Y-127146333D01*
X126670333Y-127104000D01*
X126712666Y-127146333D01*
X126966666Y-127146333D01*
X126966666Y-126045667D01*
X126628000Y-126045667D01*
X126585666Y-126088000D01*
X126543333Y-126045667D01*
X126585666Y-126003333D01*
X126628000Y-126045667D01*
X126966666Y-126045667D01*
X126966666Y-125622333D01*
X126628000Y-125622333D01*
X126585666Y-125664667D01*
X126543333Y-125622333D01*
X126585666Y-125580000D01*
X126628000Y-125622333D01*
X126966666Y-125622333D01*
X126966666Y-120889250D01*
X126034258Y-120889250D01*
X126033356Y-122375959D01*
X126032809Y-122659000D01*
X126030769Y-123565089D01*
X126028606Y-124421799D01*
X126026373Y-125213952D01*
X126024125Y-125926371D01*
X126021915Y-126543879D01*
X126019797Y-127051300D01*
X126017826Y-127433456D01*
X126016055Y-127675171D01*
X126014672Y-127760167D01*
X125937520Y-127825230D01*
X125710668Y-127861255D01*
X125449722Y-127870332D01*
X125038781Y-127878042D01*
X124589168Y-127893111D01*
X124342000Y-127904680D01*
X124134349Y-127911885D01*
X123779576Y-127919491D01*
X123299892Y-127927214D01*
X122717507Y-127934771D01*
X122054632Y-127941879D01*
X121333477Y-127948254D01*
X120576253Y-127953612D01*
X120447333Y-127954391D01*
X119684062Y-127960318D01*
X118951276Y-127968715D01*
X118271525Y-127979124D01*
X117667359Y-127991092D01*
X117161330Y-128004161D01*
X116775989Y-128017877D01*
X116533885Y-128031784D01*
X116510333Y-128033957D01*
X116088470Y-128058943D01*
X115621992Y-128060586D01*
X115325000Y-128046398D01*
X115048737Y-128031750D01*
X114642499Y-128019967D01*
X114145629Y-128011715D01*
X113597470Y-128007662D01*
X113073423Y-128008259D01*
X111414512Y-128017550D01*
X111403674Y-127527333D01*
X110691024Y-127527333D01*
X110682196Y-127681369D01*
X110660219Y-127699522D01*
X110652304Y-127675500D01*
X110639136Y-127460766D01*
X110652304Y-127379167D01*
X110676844Y-127352816D01*
X110690205Y-127469888D01*
X110691024Y-127527333D01*
X111403674Y-127527333D01*
X111392442Y-127019333D01*
X110710666Y-127019333D01*
X110679688Y-127089023D01*
X110654222Y-127075778D01*
X110644089Y-126975298D01*
X110654222Y-126962889D01*
X110704556Y-126974511D01*
X110710666Y-127019333D01*
X111392442Y-127019333D01*
X111356210Y-125380608D01*
X111339891Y-124674833D01*
X111322423Y-123976058D01*
X111304680Y-123315343D01*
X111287533Y-122723750D01*
X111271855Y-122232338D01*
X111258521Y-121872169D01*
X111255930Y-121812333D01*
X111243581Y-121516000D01*
X110541333Y-121516000D01*
X110510355Y-121585690D01*
X110484889Y-121572444D01*
X110474756Y-121471965D01*
X110484889Y-121459555D01*
X110535223Y-121471178D01*
X110541333Y-121516000D01*
X111243581Y-121516000D01*
X111242129Y-121481168D01*
X111224198Y-121012857D01*
X111203285Y-120439508D01*
X111187534Y-119992000D01*
X110541333Y-119992000D01*
X110510355Y-120061690D01*
X110484889Y-120048444D01*
X110474756Y-119947965D01*
X110484889Y-119935555D01*
X110535223Y-119947178D01*
X110541333Y-119992000D01*
X111187534Y-119992000D01*
X111180537Y-119793225D01*
X111157101Y-119106114D01*
X111134124Y-118410282D01*
X111131881Y-118341000D01*
X111107916Y-117609097D01*
X111082475Y-116849293D01*
X111056932Y-116101437D01*
X111032660Y-115405376D01*
X111011035Y-114800961D01*
X110994231Y-114348963D01*
X110938652Y-112896927D01*
X112539159Y-112930980D01*
X112902637Y-112937162D01*
X113416383Y-112943617D01*
X114061332Y-112950204D01*
X114818420Y-112956782D01*
X115668581Y-112963209D01*
X116592751Y-112969346D01*
X117571866Y-112975052D01*
X118586860Y-112980186D01*
X119618669Y-112984607D01*
X119995770Y-112986016D01*
X120974376Y-112990119D01*
X121901531Y-112995163D01*
X122763628Y-113001001D01*
X123547064Y-113007486D01*
X124238232Y-113014472D01*
X124823529Y-113021809D01*
X125289348Y-113029352D01*
X125622086Y-113036952D01*
X125808136Y-113044464D01*
X125843962Y-113049333D01*
X125846470Y-113147484D01*
X125859998Y-113372635D01*
X125881930Y-113683003D01*
X125891670Y-113811333D01*
X125925564Y-114322279D01*
X125954543Y-114919794D01*
X125978769Y-115613992D01*
X125998405Y-116414987D01*
X126013610Y-117332896D01*
X126024546Y-118377833D01*
X126031375Y-119559912D01*
X126034258Y-120889250D01*
X126966666Y-120889250D01*
X126966666Y-115090683D01*
X126576488Y-115090683D01*
X126558785Y-115304877D01*
X126524054Y-115462457D01*
X126489922Y-115504667D01*
X126472897Y-115428262D01*
X126462690Y-115232016D01*
X126461241Y-115060167D01*
X126471763Y-114808765D01*
X126501327Y-114715270D01*
X126542727Y-114750632D01*
X126572642Y-114884419D01*
X126576488Y-115090683D01*
X126966666Y-115090683D01*
X126966666Y-112649732D01*
X124309288Y-112649732D01*
X124264769Y-112680247D01*
X124089254Y-112701233D01*
X123826944Y-112708092D01*
X123535547Y-112699107D01*
X123401310Y-112674087D01*
X123412611Y-112630617D01*
X123422957Y-112624186D01*
X123542983Y-112592177D01*
X122145850Y-112592177D01*
X122028778Y-112605538D01*
X121971333Y-112606357D01*
X121817298Y-112597530D01*
X121812565Y-112591800D01*
X121578926Y-112591800D01*
X121548000Y-112625276D01*
X121430126Y-112663972D01*
X121240560Y-112694154D01*
X121033819Y-112711852D01*
X120864422Y-112713094D01*
X120786888Y-112693909D01*
X120793055Y-112680261D01*
X120890406Y-112653038D01*
X121100076Y-112617067D01*
X121251666Y-112596167D01*
X121495451Y-112574364D01*
X121578926Y-112591800D01*
X121812565Y-112591800D01*
X121799144Y-112575552D01*
X121823166Y-112567637D01*
X122037900Y-112554470D01*
X122119500Y-112567637D01*
X122145850Y-112592177D01*
X123542983Y-112592177D01*
X123590542Y-112579494D01*
X123835881Y-112566213D01*
X124086723Y-112582259D01*
X124270817Y-112625549D01*
X124309288Y-112649732D01*
X126966666Y-112649732D01*
X126966666Y-112245000D01*
X122902666Y-112245000D01*
X122860333Y-112287333D01*
X122818000Y-112245000D01*
X122832111Y-112230889D01*
X122705111Y-112230889D01*
X122693489Y-112281223D01*
X122648666Y-112287333D01*
X122578976Y-112256355D01*
X122592222Y-112230889D01*
X122692702Y-112220756D01*
X122705111Y-112230889D01*
X122832111Y-112230889D01*
X122860333Y-112202667D01*
X122902666Y-112245000D01*
X126966666Y-112245000D01*
X126966666Y-111694667D01*
X110033333Y-111694667D01*
X110033333Y-129305333D01*
%TD*%
M02*
