M48
; DRILL file {KiCad 5.1.8} date Tue Nov 17 21:54:27 2020
; FORMAT={-:-/ absolute / inch / decimal}
; #@! TF.CreationDate,2020-11-17T21:54:27+01:00
; #@! TF.GenerationSoftware,Kicad,Pcbnew,5.1.8
FMAT,2
INCH
T1C0.0157
T2C0.0354
T3C0.0394
T4C0.0630
T5C0.0709
%
G90
G05
T1
X3.622Y-2.6378
X3.7402Y-3.3071
X4.0551Y-3.7402
X4.2126Y-2.6378
X4.3319Y-2.2399
X4.3635Y-3.2626
X4.3646Y-3.9198
X4.3678Y-2.4008
X4.3678Y-2.8349
X4.3683Y-2.0401
X4.3683Y-2.1651
X4.3683Y-3.7399
X4.3683Y-4.4006
X4.39Y-3.3462
X4.4077Y-4.3698
X4.4077Y-4.3698
X4.4156Y-3.8757
X4.447Y-4.5157
X4.4471Y-2.1651
X4.4471Y-2.8738
X4.4471Y-3.7006
X4.4471Y-3.8187
X4.4471Y-3.9368
X4.4471Y-4.0946
X4.4848Y-4.1058
X4.4864Y-2.3226
X4.4864Y-2.4407
X4.4864Y-2.9131
X4.4864Y-3.7399
X4.4864Y-4.6061
X4.4864Y-4.9604
X4.5192Y-4.1402
X4.5203Y-3.3462
X4.5258Y-3.2281
X4.5277Y-3.6986
X4.5327Y-3.8187
X4.5652Y-2.1257
X4.5652Y-3.6725
X4.5671Y-3.7272
X4.5893Y-2.0864
X4.5982Y-4.4633
X4.6045Y-2.2832
X4.6045Y-3.7399
X4.6045Y-4.6454
X4.6154Y-3.3068
X4.6373Y-4.4676
X4.6434Y-3.8575
X4.6439Y-2.5588
X4.6439Y-3.7291
X4.6764Y-2.4407
X4.6764Y-3.8206
X4.6828Y-2.0869
X4.6828Y-2.1656
X4.6833Y-1.6139
X4.6833Y-4.4633
X4.7113Y-3.9097
X4.7169Y-2.2848
X4.7226Y-3.7793
X4.7226Y-4.3117
X4.7226Y-4.4633
X4.7231Y-2.1252
X4.7295Y-4.3698
X4.7335Y-2.8791
X4.7335Y-3.3576
X4.7463Y-2.6175
X4.7506Y-2.4377
X4.762Y-3.2675
X4.762Y-4.293
X4.762Y-4.7242
X4.762Y-5.1572
X4.7625Y-3.4638
X4.7714Y-4.4348
X4.8005Y-2.0411
X4.8039Y-3.0665
X4.8119Y-3.3568
X4.8364Y-3.6655
X4.8403Y-2.9127
X4.8403Y-3.7798
X4.8408Y-2.2045
X4.8408Y-2.4801
X4.8408Y-4.884
X4.87Y-3.218
X4.8753Y-3.6218
X4.9087Y-4.0155
X4.9195Y-3.9368
X4.9435Y-4.7299
X4.9589Y-2.2439
X4.9589Y-2.4407
X4.9589Y-4.0317
X4.9589Y-4.2124
X4.9589Y-4.488
X4.9594Y-4.5662
X4.9754Y-3.7075
X4.9795Y-4.173
T2
X4.1042Y-2.17
X4.2042Y-2.17
X4.1019Y-1.5896
X4.2019Y-1.5896
X4.0989Y-3.2645
X4.1989Y-3.2645
X3.55Y-3.265
X3.65Y-3.265
X4.1032Y-2.7433
X4.2032Y-2.7433
X3.548Y-2.1662
X3.648Y-2.1662
X3.5449Y-2.7446
X3.6449Y-2.7446
X3.5471Y-1.5906
X3.6471Y-1.5906
T3
X4.3611Y-1.7483
X4.3611Y-1.8483
X4.3611Y-1.9483
X4.3621Y-5.6698
X4.3621Y-5.7698
X4.4621Y-5.6698
X4.4621Y-5.7698
X4.5621Y-5.6698
X4.5621Y-5.7698
X4.6621Y-5.6698
X4.6621Y-5.7698
X4.7621Y-5.6698
X4.7621Y-5.7698
X3.5717Y-2.9045
X3.5717Y-3.0045
X3.5717Y-3.1045
X4.9678Y-3.4238
X4.9678Y-3.5238
X4.9678Y-3.6238
X3.571Y-1.7503
X3.571Y-1.8503
X3.571Y-1.9503
X4.502Y-1.6057
X4.502Y-1.7057
X4.502Y-1.8057
X4.502Y-1.9057
X4.502Y-2.0057
X4.602Y-1.6057
X4.602Y-1.7057
X4.602Y-1.8057
X4.602Y-1.9057
X4.602Y-2.0057
X4.3646Y-3.8198
X4.3646Y-3.9198
X4.3646Y-4.0198
X4.3646Y-4.1198
X4.3646Y-4.2198
X4.3646Y-4.3198
X3.7754Y-2.0276
X3.8739Y-2.0276
X3.9723Y-2.0276
X3.7151Y-3.4277
X3.7151Y-3.5277
X3.7151Y-3.6277
X4.17Y-3.4275
X4.17Y-3.5275
X4.17Y-3.6275
X3.7754Y-3.2087
X3.8739Y-3.2087
X3.9723Y-3.2087
X4.9672Y-2.9046
X4.9672Y-3.0046
X4.9672Y-3.1046
X4.3604Y-3.4241
X4.3604Y-3.5241
X4.3604Y-3.6241
X3.5725Y-3.4275
X3.5725Y-3.5275
X3.5725Y-3.6275
X4.1773Y-1.7494
X4.1773Y-1.8494
X4.1773Y-1.9494
X4.5026Y-3.4241
X4.5026Y-3.5241
X4.5026Y-3.6241
X4.3601Y-2.9046
X4.3601Y-3.0046
X4.3601Y-3.1046
X3.7754Y-2.6181
X3.8739Y-2.6181
X3.9723Y-2.6181
X4.1775Y-2.9045
X4.1775Y-3.0045
X4.1775Y-3.1045
X4.9683Y-1.7464
X4.9683Y-1.8464
X4.9683Y-1.9464
T4
X4.05Y-4.9063
X4.05Y-5.2331
X4.05Y-5.3551
X3.7Y-5.4669
X3.7Y-5.7937
X4.0514Y-4.3786
X4.0514Y-4.7053
X3.7014Y-4.3786
X3.7014Y-4.7053
X3.7014Y-3.8179
X3.7014Y-4.1447
X3.7014Y-4.2667
X3.7Y-4.9063
X3.7Y-5.2331
X3.7Y-5.3551
X4.0514Y-3.8179
X4.0514Y-4.1447
X4.0514Y-4.2667
X4.05Y-5.4669
X4.05Y-5.7937
T5
X3.6849Y-1.7323
X4.0628Y-1.7323
X3.6849Y-2.9134
X4.0628Y-2.9134
X3.6849Y-2.3228
X4.0628Y-2.3228
T0
M30
